<svg width="55" height="50" viewBox="0 0 55 50" fill="none" xmlns="http://www.w3.org/2000/svg">
<path fill-rule="evenodd" clip-rule="evenodd" d="M2.11538 0C0.9471 0 0 1.24367 0 2.77778C0 4.31189 0.9471 5.55556 2.11538 5.55556H52.8846C54.0527 5.55556 55 4.31189 55 2.77778C55 1.24367 54.0527 0 52.8846 0H2.11538ZM0 25C0 23.4659 0.9471 22.2222 2.11538 22.2222H52.8846C54.0527 22.2222 55 23.4659 55 25C55 26.5341 54.0527 27.7778 52.8846 27.7778H2.11538C0.9471 27.7778 0 26.5341 0 25ZM0 47.2222C0 45.6883 0.9471 44.4444 2.11538 44.4444H52.8846C54.0527 44.4444 55 45.6883 55 47.2222C55 48.7561 54.0527 50 52.8846 50H2.11538C0.9471 50 0 48.7561 0 47.2222Z" fill="white"/>
</svg>
