<svg width="25" height="25" viewBox="0 0 25 25" fill="none" xmlns="http://www.w3.org/2000/svg">
<g clip-path="url(#clip0_464_715)">
<path d="M18.5939 6.41976C19.1354 6.97943 19.1354 7.88685 18.5939 8.44651L14.4606 12.7193L18.1696 16.5535C18.7112 17.1132 18.7112 18.0206 18.1696 18.5803C17.6283 19.1399 16.7504 19.1399 16.2091 18.5803L12.5 14.7461L8.7909 18.5803C8.24949 19.1399 7.3717 19.1399 6.83029 18.5803C6.28889 18.0206 6.28889 17.1132 6.83029 16.5535L10.5394 12.7193L6.40606 8.44651C5.86465 7.88685 5.86465 6.97943 6.40606 6.41976C6.94746 5.86008 7.82526 5.86008 8.36666 6.41976L12.5 10.6926L16.6333 6.41976C17.1748 5.86008 18.0525 5.86008 18.5939 6.41976Z" fill="#474747"/>
<path fill-rule="evenodd" clip-rule="evenodd" d="M3.40909 0C1.52631 0 0 1.52631 0 3.40909V21.5909C0 23.4737 1.52631 25 3.40909 25H21.5909C23.4737 25 25 23.4737 25 21.5909V3.40909C25 1.52631 23.4737 0 21.5909 0H3.40909ZM21.5909 2.27273H3.40909C2.7815 2.27273 2.27273 2.7815 2.27273 3.40909V21.5909C2.27273 22.2185 2.7815 22.7273 3.40909 22.7273H21.5909C22.2185 22.7273 22.7273 22.2185 22.7273 21.5909V3.40909C22.7273 2.7815 22.2185 2.27273 21.5909 2.27273Z" fill="#474747"/>
</g>
<defs>
<clipPath id="clip0_464_715">
<rect width="25" height="25" fill="white"/>
</clipPath>
</defs>
</svg>
