<svg width="40" height="41" viewBox="0 0 40 41" fill="none" xmlns="http://www.w3.org/2000/svg">
<path fill-rule="evenodd" clip-rule="evenodd" d="M9 0.5C4.02942 0.5 0 4.52944 0 9.5V31.5C0 36.4706 4.02942 40.5 9 40.5H31C35.9706 40.5 40 36.4706 40 31.5V9.5C40 4.52944 35.9706 0.5 31 0.5H9ZM26.8125 26.4375H22.75V40.25H16.25V26.4375H11.375V19.9375H16.25V15.3875C16.25 10.4426 19.383 7.75 23.7949 7.75C25.9073 7.75 27.9078 7.90763 28.4375 7.9775V13.4375H26C22.75 13.4375 22.75 15.0138 22.75 16.6875V19.9375H28.4375L26.8125 26.4375Z" fill="white"/>
</svg>
