<svg width="130" height="130" viewBox="0 0 130 130" fill="none" xmlns="http://www.w3.org/2000/svg">
<path d="M120.4 114.7H9.59998V43.8L65.5 15.3L120.4 43.8V114.7Z" stroke="#EB5E39" stroke-width="3" stroke-miterlimit="10"/>
<path d="M34.1868 107.558V60H37.2336V107.558H34.1868ZM44.4416 74.2675C44.2187 72.385 43.3146 70.9236 41.7293 69.8832C40.144 68.8429 38.1996 68.3227 35.896 68.3227C34.2116 68.3227 32.7378 68.5952 31.4745 69.1401C30.2236 69.6851 29.2452 70.4344 28.5393 71.388C27.8457 72.3417 27.4989 73.4253 27.4989 74.6391C27.4989 75.6546 27.7404 76.5278 28.2235 77.2585C28.7189 77.9768 29.3505 78.5775 30.1184 79.0605C30.8862 79.5312 31.6913 79.9213 32.5334 80.2309C33.3756 80.5281 34.1497 80.7697 34.8556 80.9554L38.7198 81.9958C39.7106 82.2558 40.8128 82.615 42.0265 83.0733C43.2527 83.5315 44.423 84.1569 45.5377 84.9496C46.6647 85.7298 47.5936 86.733 48.3243 87.9591C49.055 89.1853 49.4204 90.69 49.4204 92.4735C49.4204 94.5294 48.8816 96.3871 47.8042 98.0467C46.739 99.7063 45.1785 101.025 43.1226 102.004C41.0791 102.982 38.5959 103.471 35.673 103.471C32.9483 103.471 30.589 103.032 28.595 102.152C26.6134 101.273 25.0529 100.047 23.9135 98.474C22.7864 96.9011 22.1486 95.0743 22 92.9936H26.7558C26.8797 94.4303 27.3627 95.6193 28.2049 96.5605C29.0595 97.4894 30.1369 98.183 31.4374 98.6412C32.7502 99.0871 34.1621 99.31 35.673 99.31C37.4317 99.31 39.0108 99.0251 40.4103 98.4554C41.8098 97.8733 42.9183 97.0683 43.7357 96.0404C44.5531 95 44.9618 93.7863 44.9618 92.3992C44.9618 91.1359 44.6088 90.1079 43.9029 89.3153C43.1969 88.5227 42.2681 87.8786 41.1163 87.3832C39.9644 86.8878 38.7198 86.4544 37.3822 86.0828L32.7006 84.7452C29.7282 83.8907 27.3751 82.6707 25.6412 81.0855C23.9073 79.5002 23.0403 77.4257 23.0403 74.862C23.0403 72.7318 23.6162 70.874 24.768 69.2888C25.9322 67.6911 27.4927 66.4526 29.4496 65.5733C31.4188 64.6815 33.6171 64.2357 36.0446 64.2357C38.4968 64.2357 40.6766 64.6753 42.5839 65.5547C44.4912 66.4216 46.0021 67.6106 47.1168 69.1216C48.2438 70.6325 48.8383 72.3478 48.9002 74.2675H44.4416Z" fill="#2D6598" stroke="#2D6598" stroke-width="1.15275" stroke-miterlimit="10"/>
<path d="M81.8 38.7H70.7V27.6C70.7 26.6 69.9 25.8 68.9 25.8H64.5C63.5 25.8 62.7 26.6 62.7 27.6V38.7H51.6C50.6 38.7 49.8 39.5 49.8 40.5V44.9C49.8 45.9 50.6 46.7 51.6 46.7H62.7V57.8C62.7 58.8 63.5 59.6 64.5 59.6H68.9C69.9 59.6 70.7 58.8 70.7 57.8V46.7H81.8C82.8 46.7 83.6 45.9 83.6 44.9V40.5C83.7 39.5 82.8 38.7 81.8 38.7Z" fill="#2D6598"/>
<path d="M60.1 70.7L67.8 73.1L74.2 94.4H102.6L108.4 77H68.9" stroke="#2D6598" stroke-width="1.9843" stroke-miterlimit="10"/>
<path d="M71.5 86H105.5" stroke="#2D6598" stroke-width="1.9843" stroke-miterlimit="10"/>
<path d="M83.5 77L85.8 94.4" stroke="#2D6598" stroke-width="1.9843" stroke-miterlimit="10"/>
<path d="M96.8 77L94.4 94.4" stroke="#2D6598" stroke-width="1.9843" stroke-miterlimit="10"/>
<path d="M79.6 106.9C81.7539 106.9 83.5 105.199 83.5 103.1C83.5 101.001 81.7539 99.3 79.6 99.3C77.4461 99.3 75.7 101.001 75.7 103.1C75.7 105.199 77.4461 106.9 79.6 106.9Z" fill="#2D6598" stroke="#2D6598" stroke-width="0.5669" stroke-miterlimit="10"/>
<path d="M97.3 106.9C99.4539 106.9 101.2 105.199 101.2 103.1C101.2 101.001 99.4539 99.3 97.3 99.3C95.1461 99.3 93.4 101.001 93.4 103.1C93.4 105.199 95.1461 106.9 97.3 106.9Z" fill="#2D6598" stroke="#2D6598" stroke-width="0.5669" stroke-miterlimit="10"/>
<path d="M15 3H115V-3H15V3ZM127 15V115H133V15H127ZM115 127H15V133H115V127ZM3 115V15H-3V115H3ZM15 127C8.37259 127 3 121.627 3 115H-3C-3 124.941 5.05888 133 15 133V127ZM127 115C127 121.627 121.627 127 115 127V133C124.941 133 133 124.941 133 115H127ZM115 3C121.627 3 127 8.37258 127 15H133C133 5.05887 124.941 -3 115 -3V3ZM15 -3C5.05887 -3 -3 5.05888 -3 15H3C3 8.37259 8.37258 3 15 3V-3Z" fill="#2D6598"/>
</svg>
