<svg width="170" height="170" viewBox="0 0 170 170" fill="none" xmlns="http://www.w3.org/2000/svg">
<path d="M36.6154 162.677C36.6154 162.677 66.5615 124.754 80.2923 125.015C98.3385 125.408 100.169 132.208 118.869 136.654C141.1 142.015 166.338 108.8 161.5 89.4462C158.231 76.3692 137.7 83.3 106.185 91.0154C99.5154 92.7154 76.7615 89.7077 71.1385 81.2077" stroke="#EB5E39" stroke-width="3" stroke-miterlimit="10"/>
<path d="M60.0231 110.892C60.0231 97.9462 49.5615 87.4846 36.6154 87.4846C23.6692 87.4846 13.2077 97.9462 13.2077 110.892C13.2077 112.462 13.3385 114.162 13.7308 115.6C14.2539 117.954 18.7 127.369 18.7 127.369L36.6154 162.677L52.7 130.9C52.7 130.9 58.0616 119.785 58.8462 117.169C59.5 115.077 60.0231 112.723 60.0231 110.892Z" fill="#2D6598" stroke="#004C95" stroke-width="0.3402" stroke-miterlimit="10"/>
<path d="M95.2 33.8692C95.2 20.9231 84.7385 10.4615 71.7923 10.4615C58.8462 10.4615 48.3846 20.9231 48.3846 33.8692C48.3846 35.4385 48.5154 37.1385 48.9077 38.5769C49.4308 40.9308 53.8769 50.3462 53.8769 50.3462L71.7923 85.6539L87.8769 53.8769C87.8769 53.8769 93.2385 42.7615 94.0231 40.1462C94.6769 38.0539 95.2 35.7 95.2 33.8692Z" fill="#2D6598" stroke="#004C95" stroke-width="0.3402" stroke-miterlimit="10"/>
<path d="M157.969 83.5616C157.969 70.6154 147.508 60.1539 134.562 60.1539C121.615 60.1539 111.154 70.6154 111.154 83.5616C111.154 85.1308 111.285 86.8308 111.677 88.2693C112.2 90.6231 116.646 100.038 116.646 100.038L134.562 135.346L150.646 103.569C150.646 103.569 156.008 92.4539 156.792 89.8385C157.446 87.7462 157.969 85.3923 157.969 83.5616Z" fill="#2D6598" stroke="#004C95" stroke-width="0.3402" stroke-miterlimit="10"/>
<path d="M36.6154 129.985C47.3042 129.985 55.9692 121.32 55.9692 110.631C55.9692 99.942 47.3042 91.277 36.6154 91.277C25.9265 91.277 17.2615 99.942 17.2615 110.631C17.2615 121.32 25.9265 129.985 36.6154 129.985Z" fill="white"/>
<path d="M71.7923 52.9615C82.4812 52.9615 91.1462 44.2965 91.1462 33.6077C91.1462 22.9189 82.4812 14.2538 71.7923 14.2538C61.1035 14.2538 52.4385 22.9189 52.4385 33.6077C52.4385 44.2965 61.1035 52.9615 71.7923 52.9615Z" fill="white"/>
<path d="M134.562 102.654C145.25 102.654 153.915 93.9888 153.915 83.3C153.915 72.6112 145.25 63.9462 134.562 63.9462C123.873 63.9462 115.208 72.6112 115.208 83.3C115.208 93.9888 123.873 102.654 134.562 102.654Z" fill="white"/>
<path d="M33.9295 114.908C32.2925 114.908 30.4509 114.723 28.4047 114.352V112.248C30.7238 112.735 32.6628 112.978 34.2218 112.978C36.8137 112.978 38.1097 112.248 38.1097 110.786V107.541C38.1097 106.742 37.6809 106.216 36.8235 105.963C36.4142 105.865 36.044 105.807 35.7127 105.787C35.4009 105.748 34.9916 105.729 34.4849 105.729H30.8309V103.916H33.988C34.4947 103.916 34.9039 103.907 35.2157 103.887C35.5275 103.848 35.8881 103.77 36.2973 103.653C36.726 103.556 37.0573 103.371 37.2912 103.098C37.525 102.825 37.642 102.474 37.642 102.046V98.6548C37.642 97.6609 36.4727 97.1639 34.1341 97.1639C32.5751 97.1639 30.792 97.3198 28.7847 97.6316V95.6146C30.4607 95.4392 32.2341 95.3516 34.1049 95.3516C36.2681 95.3516 37.8368 95.5952 38.8112 96.0823C39.8051 96.5501 40.3021 97.3588 40.3021 98.5086V102.163C40.3021 102.767 40.0585 103.273 39.5713 103.683C39.0841 104.072 38.4605 104.326 37.7004 104.443V104.56C38.1681 104.638 38.5482 104.725 38.8405 104.823C39.1523 104.901 39.4836 105.027 39.8344 105.203C40.5164 105.553 40.8575 106.167 40.8575 107.044V110.844C40.8575 111.507 40.7113 112.101 40.419 112.628C40.1267 113.154 39.7564 113.563 39.3082 113.855C38.9184 114.128 38.402 114.352 37.7589 114.528C37.1158 114.684 36.4824 114.791 35.8588 114.849C35.1183 114.888 34.4752 114.908 33.9295 114.908Z" fill="#2D6598"/>
<path d="M68.0403 21.2517L62.2817 25.0226V22.6256L68.0696 18.6208H70.5835V37.5923H68.0403V21.2517Z" fill="#2D6598"/>
<path d="M125.028 83.763C125.028 83.2173 125.115 82.7106 125.291 82.2429C125.486 81.7557 125.729 81.3465 126.022 81.0152C126.256 80.7423 126.606 80.45 127.074 80.1382C127.561 79.8069 128.019 79.5341 128.448 79.3197C128.818 79.1248 129.305 78.9007 129.91 78.6474L133.067 77.2443C134.314 76.6986 134.937 75.8509 134.937 74.7011V72.0995C134.937 71.203 134.665 70.6086 134.119 70.3163C133.573 70.0045 132.618 69.8486 131.254 69.8486C129.91 69.8486 128.058 70.0532 125.7 70.4625V68.4162C127.668 68.046 129.705 67.8608 131.81 67.8608C133.914 67.8608 135.434 68.1824 136.37 68.8255C137.305 69.4491 137.773 70.5014 137.773 71.9825V75.0811C137.773 75.7827 137.656 76.3673 137.422 76.835C137.188 77.2832 136.808 77.6925 136.282 78.0628C135.775 78.4135 135.025 78.813 134.031 79.2613L129.646 81.2783C128.36 81.8629 127.717 82.7204 127.717 83.8507V85.1076H137.773V87.1539H125.028V83.763Z" fill="#2D6598"/>
<rect x="1.5" y="1.5" width="167" height="167" rx="13.5" stroke="#2D6598" stroke-width="3"/>
</svg>
