<svg width="130" height="131" viewBox="0 0 130 131" fill="none" xmlns="http://www.w3.org/2000/svg">
<path d="M0 15C0 6.71573 6.71573 0 15 0H115C123.284 0 130 6.71573 130 15V115C130 123.284 123.284 130 115 130H15C6.71573 130 0 123.284 0 115V15Z" fill="white"/>
<path d="M14.8 62.2L38.7 42.1L17.3 16.7L4.70001 27.3L15.9 40.5L4.60001 50.1L14.8 62.2Z" fill="#C4CDCF" stroke="#2D6598" stroke-width="1.1339" stroke-miterlimit="10"/>
<path d="M43.0412 47.5976L21.6323 66.1058L33.7313 80.101L55.1402 61.5928L43.0412 47.5976Z" fill="#C4CDCF" stroke="#2D6598" stroke-width="1.1339" stroke-miterlimit="10"/>
<path d="M20.5567 75.3485L5.50235 88.3631L17.6013 102.358L32.6557 89.3437L20.5567 75.3485Z" fill="#C4CDCF" stroke="#2D6598" stroke-width="1.1339" stroke-miterlimit="10"/>
<path d="M100.336 38.4197L72.3743 6.01581L58.3679 18.1019L86.3292 50.5057L100.336 38.4197Z" fill="#C4CDCF" stroke="#2D6598" stroke-width="1.1339" stroke-miterlimit="10"/>
<path d="M126.184 30.0669L108.937 10.0795L100.306 17.5271L117.553 37.5145L126.184 30.0669Z" fill="#C4CDCF" stroke="#2D6598" stroke-width="1.1339" stroke-miterlimit="10"/>
<path d="M122.631 63.2859L108.062 46.4026L94.0562 58.4886L108.625 75.372L122.631 63.2859Z" fill="#C4CDCF" stroke="#2D6598" stroke-width="1.1339" stroke-miterlimit="10"/>
<path d="M97.6 106.8L76.7 84.1L76.4 84.4L76.2 84.2L50.8 108.6L63.4 122L75.6 110.5L84.2 119.5L97.6 106.8Z" fill="#C4CDCF" stroke="#2D6598" stroke-width="1.1339" stroke-miterlimit="10"/>
<path d="M87.4 58.0999L89.5 56.2" stroke="#2D6598" stroke-width="1.1339" stroke-miterlimit="1"/>
<path d="M92 53.9L105.6 41.5" stroke="#2D6598" stroke-width="1.1339" stroke-miterlimit="1" stroke-dasharray="6.71 3.35"/>
<path d="M106.9 40.4L109 38.5L107.1 36.3" stroke="#2D6598" stroke-width="1.1339" stroke-miterlimit="1"/>
<path d="M105.3 34.2L79 3.79999" stroke="#2D6598" stroke-width="1.1339" stroke-miterlimit="1" stroke-dasharray="5.55 2.77"/>
<path d="M78.1 2.69998L76.3 0.599976" stroke="#2D6598" stroke-width="1.1339" stroke-miterlimit="1"/>
<path d="M109 106.9L106.9 108.8" stroke="#2D6598" stroke-width="1.1339" stroke-miterlimit="1"/>
<path d="M104.8 110.7L87.2 127" stroke="#2D6598" stroke-width="1.1339" stroke-miterlimit="1" stroke-dasharray="5.64 2.82"/>
<path d="M86.2 128L84.1 129.9" stroke="#2D6598" stroke-width="1.1339" stroke-miterlimit="1"/>
<path d="M39.6 4L127 102.5" stroke="#2D6598" stroke-width="1.1339" stroke-miterlimit="10"/>
<path d="M6 120.5L68.9 62C41.5 31 16.7 3.20001 16.7 3.20001" stroke="#2D6598" stroke-width="1.1339" stroke-miterlimit="10"/>
<path d="M122.5 121.5C122.4 120.7 102.3 99.6 77 71L18.5 126.7" stroke="#2D6598" stroke-width="1.1339" stroke-miterlimit="10"/>
<path d="M40.8687 109.368L33.0957 116.575L43.1582 127.427L50.9312 120.22L40.8687 109.368Z" fill="#C4CDCF" stroke="#2D6598" stroke-width="1.1339" stroke-miterlimit="1"/>
<path d="M19.75 90.58H16.52V89.79L19.46 85.51H20.58V89.89H21.28V90.58H20.58V92H19.75V90.58ZM19.75 89.89V86.3L17.32 89.89H19.75Z" fill="#474747"/>
<path d="M41.66 122.1C41.1 122.1 40.47 122.037 39.77 121.91V121.19C40.5633 121.357 41.2267 121.44 41.76 121.44C42.6467 121.44 43.09 121.19 43.09 120.69V119.58C43.09 119.307 42.9433 119.127 42.65 119.04C42.51 119.007 42.3833 118.987 42.27 118.98C42.1633 118.967 42.0233 118.96 41.85 118.96H40.6V118.34H41.68C41.8533 118.34 41.9933 118.337 42.1 118.33C42.2067 118.317 42.33 118.29 42.47 118.25C42.6167 118.217 42.73 118.153 42.81 118.06C42.89 117.967 42.93 117.847 42.93 117.7V116.54C42.93 116.2 42.53 116.03 41.73 116.03C41.1967 116.03 40.5867 116.083 39.9 116.19V115.5C40.4733 115.44 41.08 115.41 41.72 115.41C42.46 115.41 42.9967 115.493 43.33 115.66C43.67 115.82 43.84 116.097 43.84 116.49V117.74C43.84 117.947 43.7567 118.12 43.59 118.26C43.4233 118.393 43.21 118.48 42.95 118.52V118.56C43.11 118.587 43.24 118.617 43.34 118.65C43.4467 118.677 43.56 118.72 43.68 118.78C43.9133 118.9 44.03 119.11 44.03 119.41V120.71C44.03 120.937 43.98 121.14 43.88 121.32C43.78 121.5 43.6533 121.64 43.5 121.74C43.3667 121.833 43.19 121.91 42.97 121.97C42.75 122.023 42.5333 122.06 42.32 122.08C42.0667 122.093 41.8467 122.1 41.66 122.1Z" fill="#474747"/>
<path d="M76.19 98.41L74.22 99.7V98.88L76.2 97.51H77.06V104H76.19V98.41Z" fill="#474747"/>
<path d="M36.9153 66.3155C36.9153 66.1289 36.9453 65.9555 37.0053 65.7955C37.072 65.6289 37.1553 65.4889 37.2553 65.3755C37.3353 65.2822 37.4553 65.1822 37.6153 65.0755C37.782 64.9622 37.9386 64.8689 38.0853 64.7955C38.212 64.7289 38.3786 64.6522 38.5853 64.5655L39.6653 64.0855C40.092 63.8989 40.3053 63.6089 40.3053 63.2155V62.3255C40.3053 62.0189 40.212 61.8155 40.0253 61.7155C39.8386 61.6089 39.512 61.5555 39.0453 61.5555C38.5853 61.5555 37.952 61.6255 37.1453 61.7655V61.0655C37.8186 60.9389 38.5153 60.8755 39.2353 60.8755C39.9553 60.8755 40.4753 60.9855 40.7953 61.2055C41.1153 61.4189 41.2753 61.7789 41.2753 62.2855V63.3455C41.2753 63.5855 41.2353 63.7855 41.1553 63.9455C41.0753 64.0989 40.9453 64.2389 40.7653 64.3655C40.592 64.4855 40.3353 64.6222 39.9953 64.7755L38.4953 65.4655C38.0553 65.6655 37.8353 65.9589 37.8353 66.3455V66.7755H41.2753V67.4755H36.9153V66.3155Z" fill="#474747"/>
<path d="M48.7166 32.6402L51.5917 27.029L52.3789 27.9027L49.942 32.2791L49.958 32.2969L54.4594 30.2116L55.1904 31.0228L47.0693 34.4152L46.3143 33.5773L48.7166 32.6402ZM51.3885 35.4979C51.3082 35.4087 51.2394 35.3145 51.1823 35.2152L51.8687 34.5967C51.9259 34.696 51.9919 34.7872 52.0669 34.8704C52.2972 35.126 52.6635 35.162 53.1658 34.9786C53.6795 34.7957 54.4385 34.2518 55.4429 33.3468L56.4592 32.431L59.102 35.364L54.7872 39.2519L54.0643 38.4495L57.8531 35.0356L56.5759 33.6182L55.9518 34.1804C54.9712 35.0641 54.0912 35.647 53.3118 35.9293C52.5383 36.2063 51.8972 36.0625 51.3885 35.4979ZM56.9356 39.7001L57.8674 40.7342L56.9046 41.6018L55.9728 40.5676L56.9356 39.7001ZM63.8075 49.2625L59.9919 45.028L65.7776 39.8147L66.5568 40.6794L61.3773 45.3465L63.7469 47.9763L68.9264 43.3093L69.7056 44.174L64.5261 48.8411L65.0884 49.4651L63.2698 51.1038L62.595 50.355L63.8075 49.2625ZM69.7037 47.1297L71.4066 49.0197C71.7547 49.406 72.0094 49.7364 72.1707 50.0111C72.338 50.2803 72.4163 50.5167 72.4057 50.72C72.3957 50.9121 72.3506 51.0712 72.2704 51.1973C72.1902 51.3234 72.055 51.4722 71.8648 51.6435L71.7133 51.7801C71.4815 51.9889 71.2556 52.0848 71.0356 52.0677C70.8156 52.0506 70.55 51.9291 70.2389 51.7033L70.2032 51.7355C70.7055 52.532 70.716 53.1471 70.2346 53.5809L69.9761 53.8139C69.6849 54.0763 69.4025 54.223 69.129 54.2541C68.8668 54.2858 68.5795 54.2 68.2672 53.9968C67.9549 53.7936 67.5819 53.4513 67.1481 52.9699L65.3889 51.0176L69.7037 47.1297ZM69.6523 50.7297C69.8665 50.9674 70.045 51.1296 70.1877 51.2164C70.3364 51.2977 70.4711 51.3217 70.5918 51.2884C70.7185 51.2497 70.8709 51.15 71.0492 50.9893L71.1027 50.9411C71.2632 50.7965 71.3606 50.6656 71.395 50.5485C71.4348 50.4373 71.4133 50.3059 71.3306 50.1543C71.2591 50.0033 71.1136 49.8059 70.8941 49.5623L69.8739 48.4301L68.608 49.5708L69.6523 50.7297ZM67.7677 52.4924C68.0194 52.7717 68.2274 52.9666 68.3915 53.0771C68.5557 53.1876 68.7005 53.2348 68.826 53.2187C68.9574 53.1972 69.1033 53.1142 69.2638 52.9696L69.5491 52.7125C69.6977 52.5787 69.7662 52.4038 69.7548 52.188C69.7321 51.9715 69.5467 51.6702 69.1986 51.2838L68.082 50.0447L66.6913 51.2978L67.7677 52.4924ZM71.495 57.9734C70.3061 56.654 70.1515 55.598 71.0311 54.8055L72.7338 53.2712C73.2568 52.7999 73.7651 52.6111 74.2587 52.7048C74.7636 52.7991 75.3187 53.182 75.9238 53.8536C76.4968 54.4895 76.7992 55.0462 76.831 55.5236C76.8681 56.0071 76.6163 56.4924 76.0755 56.9798L75.1216 57.8393L72.5109 54.942L71.8602 55.5283C71.563 55.7961 71.4428 56.0929 71.4994 56.4187C71.5561 56.7446 71.7799 57.1244 72.1709 57.5582C72.5404 57.9683 73.0481 58.3884 73.6942 58.8186L73.079 59.3728C72.4675 58.9332 71.9395 58.4667 71.495 57.9734ZM74.9246 56.563L75.6021 55.9525C75.8636 55.7169 75.9696 55.476 75.9201 55.2298C75.8819 54.9843 75.6915 54.6713 75.3487 54.2909C75.0167 53.9225 74.7252 53.7005 74.4742 53.6252C74.2292 53.5444 73.9759 53.6219 73.7144 53.8575L73.0369 54.468L74.9246 56.563ZM78.9506 58.5752L77.5851 57.0596L78.1734 56.5295L81.6195 60.3539L81.0311 60.8841L79.6736 59.3775L75.9472 62.7352L75.2243 61.9329L78.9506 58.5752ZM79.7319 67.1148C79.3892 66.7344 79.147 66.4357 79.0054 66.2188C78.8578 66.0072 78.7429 65.7661 78.6607 65.4956C78.5731 65.2192 78.5872 64.948 78.703 64.6821C78.8247 64.4109 79.055 64.1227 79.3937 63.8174L80.8914 62.4679C81.1589 62.2269 81.4231 62.0481 81.6841 61.9314C81.945 61.8147 82.1802 61.7589 82.3895 61.7642C82.5709 61.7623 82.7686 61.8264 82.9828 61.9565C83.2082 62.0872 83.4155 62.2396 83.6047 62.4137C83.8094 62.6169 84.0161 62.8344 84.225 63.0662C84.5035 63.3753 84.7034 63.6151 84.8248 63.7857C84.9575 63.9569 85.0804 64.153 85.1935 64.3742C85.3061 64.6066 85.3544 64.8215 85.3384 65.019C85.3225 65.2164 85.2456 65.4418 85.1078 65.6952C84.9587 65.948 84.7474 66.1976 84.4741 66.4439L82.9764 67.7934C82.4712 68.2486 81.9983 68.4647 81.5577 68.4418C81.3769 68.4324 81.1794 68.3626 80.9653 68.2325C80.7511 68.1024 80.5495 67.9503 80.3603 67.7762C80.1449 67.5611 79.9354 67.3406 79.7319 67.1148ZM80.2579 66.6408C80.4828 66.8904 80.6521 67.0664 80.7657 67.1686C80.8794 67.2708 81.0111 67.3513 81.161 67.4101C81.305 67.4742 81.4492 67.4789 81.5936 67.4241C81.7494 67.3699 81.9253 67.2544 82.1215 67.0777L83.8688 65.5033C84.1362 65.2623 84.2999 65.0555 84.3599 64.8831C84.4258 64.7052 84.4042 64.52 84.2953 64.3274C84.1977 64.1354 83.9989 63.873 83.699 63.5402C83.3991 63.2073 83.1561 62.9794 82.9699 62.8565C82.795 62.7341 82.6157 62.6964 82.432 62.7435C82.2542 62.7852 82.0316 62.9266 81.7642 63.1676L80.0169 64.742C79.8207 64.9187 79.685 65.0788 79.6095 65.2221C79.5454 65.3661 79.5377 65.5129 79.5866 65.6628C79.6295 65.8179 79.6959 65.9573 79.7857 66.081C79.8756 66.2046 80.033 66.3912 80.2579 66.6408ZM87.31 71.4377C86.8303 71.7299 86.1996 71.4422 85.4177 70.5745C84.9197 70.0218 84.667 69.5442 84.6596 69.1416C84.6635 68.7396 84.8794 68.3458 85.3073 67.9603L87.0546 66.3858L87.7776 67.1882L86.0838 68.7144C85.8104 68.9607 85.6875 69.2007 85.7149 69.4344C85.7424 69.6681 85.9061 69.9513 86.206 70.2842C86.5006 70.611 86.7436 70.8389 86.9351 70.9679C87.138 71.0974 87.3167 71.1463 87.4713 71.1147C87.6312 71.0891 87.8033 70.9932 87.9876 70.8272L89.6814 69.301L90.4043 70.1033L86.0896 73.9912L85.3666 73.1889L87.31 71.4377ZM91.6594 71.4962L92.3823 72.2985L90.5905 73.9131L92.5023 76.0348L94.2941 74.4202L95.0171 75.2226L90.7023 79.1104L89.9794 78.3081L91.9139 76.565L90.0021 74.4433L88.0676 76.1864L87.3446 75.3841L91.6594 71.4962ZM93.0649 81.9117C92.6954 81.5016 92.4476 81.1489 92.3213 80.8534C92.2004 80.5639 92.1926 80.2803 92.2976 80.0025C92.4081 79.7307 92.6475 79.4288 93.016 79.0968C93.3429 78.8022 93.6356 78.6192 93.8943 78.5477C94.1642 78.4768 94.4369 78.5165 94.7123 78.6667C94.993 78.823 95.3182 79.1061 95.6877 79.5162L96.8524 80.8088L97.5389 80.1903C97.6993 80.0457 97.7917 79.9033 97.816 79.7629C97.8516 79.6231 97.8203 79.4629 97.7221 79.2822C97.6292 79.1074 97.4569 78.8804 97.2052 78.601C96.8036 78.1553 96.3234 77.6942 95.7648 77.2176L96.3532 76.6874C96.9368 77.2276 97.4429 77.7354 97.8713 78.2109C98.3211 78.7101 98.6145 79.1134 98.7515 79.4207C98.8944 79.7227 98.9138 80.0013 98.8099 80.2565C98.706 80.5116 98.4609 80.8132 98.0746 81.1613L95.0257 83.9086L94.3269 83.133L94.737 82.7635C94.3452 82.998 93.7879 82.7141 93.0649 81.9117ZM93.7114 81.5715C93.9738 81.8627 94.2169 82.0906 94.4405 82.2552C94.735 82.4745 94.9803 82.4957 95.1764 82.319L96.3532 81.2587L95.2366 80.0195C95.0064 79.764 94.8195 79.5985 94.6762 79.523C94.5388 79.4422 94.4005 79.4322 94.2614 79.4929C94.1223 79.5537 93.9339 79.6912 93.6962 79.9054C93.4822 80.0981 93.3345 80.2689 93.2532 80.4176C93.1777 80.561 93.1615 80.7102 93.2044 80.8654C93.2532 81.0152 93.374 81.1971 93.5668 81.4111L93.7114 81.5715ZM103.727 84.8889L99.4123 88.7768L98.6894 87.9745L100.241 86.5768L99.3891 85.6318L96.8499 85.933L95.894 84.8721L98.7856 84.6572C98.5338 84.2703 98.4215 83.9246 98.4487 83.6201C98.4871 83.3162 98.655 83.0304 98.9521 82.7626L99.4157 82.3449C99.7247 82.0665 99.994 81.8992 100.224 81.8432C100.458 81.7931 100.699 81.8453 100.946 81.9997C101.199 82.1488 101.51 82.4284 101.88 82.8385L103.727 84.8889ZM102.451 84.5846L101.399 83.4168C101.201 83.1969 101.036 83.0495 100.904 82.9747C100.772 82.8998 100.642 82.8818 100.516 82.9205C100.395 82.9652 100.248 83.0651 100.075 83.2204L99.7723 83.4936C99.5405 83.7024 99.4104 83.9166 99.382 84.136C99.3589 84.3614 99.4491 84.587 99.6526 84.8128L100.793 86.0787L102.451 84.5846Z" fill="#474747"/>
<path d="M79.78 34.1C79.24 34.1 78.6033 34.04 77.87 33.92V33.2C78.6433 33.36 79.29 33.44 79.81 33.44C80.2167 33.44 80.5133 33.3833 80.7 33.27C80.8933 33.15 80.99 32.9567 80.99 32.69V31.4C80.99 31.12 80.87 30.94 80.63 30.86C80.5167 30.8267 80.41 30.8067 80.31 30.8C80.2167 30.7867 80.0933 30.78 79.94 30.78H78.02V27.51H81.76V28.19H78.92V30.16H80.42C80.6867 30.16 80.9233 30.1933 81.13 30.26C81.3367 30.32 81.52 30.4267 81.68 30.58C81.8467 30.7467 81.93 30.9633 81.93 31.23V32.71C81.93 32.9433 81.8867 33.15 81.8 33.33C81.72 33.5033 81.61 33.64 81.47 33.74C81.3433 33.8333 81.18 33.91 80.98 33.97C80.7867 34.03 80.5933 34.0667 80.4 34.08C80.16 34.0933 79.9533 34.1 79.78 34.1Z" fill="#474747"/>
<path d="M114.34 22.16H110.62V21.51H115.18V22.16L112.7 28H111.74L114.34 22.16Z" fill="#474747"/>
<path d="M106.66 65.1C106.1 65.1 105.47 65.0367 104.77 64.91V64.19C105.563 64.3567 106.227 64.44 106.76 64.44C107.647 64.44 108.09 64.19 108.09 63.69V62.58C108.09 62.3067 107.943 62.1267 107.65 62.04C107.51 62.0067 107.383 61.9867 107.27 61.98C107.163 61.9667 107.023 61.96 106.85 61.96H105.6V61.34H106.68C106.853 61.34 106.993 61.3367 107.1 61.33C107.207 61.3167 107.33 61.29 107.47 61.25C107.617 61.2167 107.73 61.1533 107.81 61.06C107.89 60.9667 107.93 60.8467 107.93 60.7V59.54C107.93 59.2 107.53 59.03 106.73 59.03C106.197 59.03 105.587 59.0833 104.9 59.19V58.5C105.473 58.44 106.08 58.41 106.72 58.41C107.46 58.41 107.997 58.4933 108.33 58.66C108.67 58.82 108.84 59.0967 108.84 59.49V60.74C108.84 60.9467 108.757 61.12 108.59 61.26C108.423 61.3933 108.21 61.48 107.95 61.52V61.56C108.11 61.5867 108.24 61.6167 108.34 61.65C108.447 61.6767 108.56 61.72 108.68 61.78C108.913 61.9 109.03 62.11 109.03 62.41V63.71C109.03 63.9367 108.98 64.14 108.88 64.32C108.78 64.5 108.653 64.64 108.5 64.74C108.367 64.8333 108.19 64.91 107.97 64.97C107.75 65.0233 107.533 65.06 107.32 65.08C107.067 65.0933 106.847 65.1 106.66 65.1Z" fill="#474747"/>
<path d="M24.89 44.1C24.5967 44.1 24.36 44.09 24.18 44.07C24 44.05 23.8133 44.01 23.62 43.95C23.4133 43.89 23.25 43.8033 23.13 43.69C23.01 43.57 22.91 43.4033 22.83 43.19C22.75 42.9767 22.71 42.7267 22.71 42.44V39.16C22.71 38.86 22.7567 38.5967 22.85 38.37C22.95 38.1433 23.0767 37.9633 23.23 37.83C23.3633 37.7167 23.5433 37.6267 23.77 37.56C23.9967 37.4867 24.2233 37.44 24.45 37.42C24.7033 37.4067 24.9333 37.4 25.14 37.4C25.5467 37.4 26.0933 37.43 26.78 37.49V38.17C26.0933 38.0833 25.5033 38.04 25.01 38.04C24.6367 38.04 24.3533 38.0667 24.16 38.12C23.9667 38.1733 23.8233 38.28 23.73 38.44C23.6433 38.5933 23.6 38.8267 23.6 39.14V40.16H25.07C25.4033 40.16 25.6533 40.1667 25.82 40.18C25.9867 40.1933 26.1633 40.22 26.35 40.26C26.5367 40.3 26.6733 40.3667 26.76 40.46C26.8533 40.5533 26.9333 40.6867 27 40.86C27.06 41.0267 27.09 41.2367 27.09 41.49V42.44C27.09 43.16 26.8633 43.6267 26.41 43.84C26.19 43.94 25.97 44.0067 25.75 44.04C25.53 44.08 25.2433 44.1 24.89 44.1ZM24.91 43.51C25.2633 43.51 25.5267 43.4867 25.7 43.44C25.88 43.3867 26.0067 43.29 26.08 43.15C26.16 43.0033 26.2 42.7833 26.2 42.49V41.52C26.2 41.3 26.1667 41.1367 26.1 41.03C26.0333 40.9167 25.91 40.84 25.73 40.8C25.55 40.76 25.2733 40.74 24.9 40.74H23.6V42.49C23.6 42.7833 23.64 43.0033 23.72 43.15C23.8 43.29 23.93 43.3867 24.11 43.44C24.29 43.4867 24.5567 43.51 24.91 43.51Z" fill="#474747"/>
<path d="M114.3 33.6L109 38.5" stroke="#2D6598" stroke-width="1.1339" stroke-miterlimit="1" stroke-dasharray="5.67 2.83"/>
<path d="M15 3H115V-3H15V3ZM127 15V115H133V15H127ZM115 127H15V133H115V127ZM3 115V15H-3V115H3ZM15 127C8.37259 127 3 121.627 3 115H-3C-3 124.941 5.05888 133 15 133V127ZM127 115C127 121.627 121.627 127 115 127V133C124.941 133 133 124.941 133 115H127ZM115 3C121.627 3 127 8.37258 127 15H133C133 5.05887 124.941 -3 115 -3V3ZM15 -3C5.05887 -3 -3 5.05888 -3 15H3C3 8.37259 8.37258 3 15 3V-3Z" fill="#2D6598"/>
</svg>
