<svg width="130" height="130" viewBox="0 0 130 130" fill="none" xmlns="http://www.w3.org/2000/svg">
<path d="M28 124.4C28 124.4 50.9 95.4 61.4 95.6C75.2 95.9 76.6 101.1 90.9 104.5C107.9 108.6 127.2 83.2 123.5 68.4C121 58.4 105.3 63.7 81.2 69.6C76.1 70.9 58.7 68.6 54.4 62.1" stroke="#EB5E39" stroke-width="3" stroke-miterlimit="10"/>
<path d="M45.9 84.8C45.9 74.9 37.9 66.9 28 66.9C18.1 66.9 10.1 74.9 10.1 84.8C10.1 86 10.2 87.3 10.5 88.4C10.9 90.2 14.3 97.4 14.3 97.4L28 124.4L40.3 100.1C40.3 100.1 44.4 91.6 45 89.6C45.5 88 45.9 86.2 45.9 84.8Z" fill="#2D6598" stroke="#004C95" stroke-width="0.3402" stroke-miterlimit="10"/>
<path d="M72.8 25.9C72.8 16 64.8 8 54.9 8C45 8 37 16 37 25.9C37 27.1 37.1 28.4 37.4 29.5C37.8 31.3 41.2 38.5 41.2 38.5L54.9 65.5L67.2 41.2C67.2 41.2 71.3 32.7 71.9 30.7C72.4 29.1 72.8 27.3 72.8 25.9Z" fill="#2D6598" stroke="#004C95" stroke-width="0.3402" stroke-miterlimit="10"/>
<path d="M120.8 63.9C120.8 54 112.8 46 102.9 46C93 46 85 54 85 63.9C85 65.1 85.1 66.4 85.4 67.5C85.8 69.3 89.2 76.5 89.2 76.5L102.9 103.5L115.2 79.2C115.2 79.2 119.3 70.7 119.9 68.7C120.4 67.1 120.8 65.3 120.8 63.9Z" fill="#2D6598" stroke="#004C95" stroke-width="0.3402" stroke-miterlimit="10"/>
<path d="M28 99.4C36.1738 99.4 42.8 92.7739 42.8 84.6C42.8 76.4262 36.1738 69.8 28 69.8C19.8262 69.8 13.2 76.4262 13.2 84.6C13.2 92.7739 19.8262 99.4 28 99.4Z" fill="white"/>
<path d="M54.9 40.5C63.0738 40.5 69.7 33.8738 69.7 25.7C69.7 17.5262 63.0738 10.9 54.9 10.9C46.7262 10.9 40.1 17.5262 40.1 25.7C40.1 33.8738 46.7262 40.5 54.9 40.5Z" fill="white"/>
<path d="M102.9 78.5C111.074 78.5 117.7 71.8738 117.7 63.7C117.7 55.5262 111.074 48.9 102.9 48.9C94.7262 48.9 88.1 55.5262 88.1 63.7C88.1 71.8738 94.7262 78.5 102.9 78.5Z" fill="white"/>
<path d="M27.7757 94.2923C26.1387 94.2923 24.2971 94.1072 22.2509 93.7369V91.6322C24.5699 92.1194 26.509 92.363 28.068 92.363C30.6599 92.363 31.9558 91.6322 31.9558 90.1706V86.9259C31.9558 86.1269 31.5271 85.6007 30.6696 85.3474C30.2604 85.2499 29.8901 85.1915 29.5588 85.172C29.247 85.133 28.8378 85.1135 28.3311 85.1135H24.6771V83.3011H27.8341C28.3408 83.3011 28.7501 83.2914 29.0619 83.2719C29.3737 83.2329 29.7342 83.155 30.1435 83.038C30.5722 82.9406 30.9035 82.7555 31.1373 82.4826C31.3712 82.2098 31.4881 81.859 31.4881 81.4303V78.0394C31.4881 77.0455 30.3189 76.5486 27.9803 76.5486C26.4213 76.5486 24.6381 76.7045 22.6309 77.0163V74.9993C24.3068 74.8239 26.0802 74.7362 27.9511 74.7362C30.1142 74.7362 31.683 74.9798 32.6574 75.467C33.6513 75.9347 34.1482 76.7435 34.1482 77.8932V81.5472C34.1482 82.1513 33.9046 82.658 33.4174 83.0673C32.9302 83.457 32.3066 83.7104 31.5466 83.8273V83.9442C32.0143 84.0222 32.3943 84.1099 32.6866 84.2073C32.9984 84.2853 33.3297 84.4119 33.6805 84.5873C34.3626 84.9381 34.7036 85.552 34.7036 86.4289V90.2291C34.7036 90.8917 34.5575 91.4861 34.2652 92.0122C33.9728 92.5384 33.6026 92.9477 33.1543 93.24C32.7646 93.5128 32.2482 93.7369 31.6051 93.9123C30.962 94.0682 30.3286 94.1754 29.705 94.2339C28.9644 94.2728 28.3213 94.2923 27.7757 94.2923Z" fill="#2D6598"/>
<path d="M54.225 18.7594L48.4663 22.5303V20.1333L54.2542 16.1285H56.7681V35.1H54.225V18.7594Z" fill="#2D6598"/>
<path d="M96.1047 69.6091C96.1047 69.0634 96.1924 68.5568 96.3678 68.089C96.5627 67.6018 96.8063 67.1926 97.0986 66.8613C97.3324 66.5885 97.6832 66.2962 98.1509 65.9844C98.6381 65.6531 99.0961 65.3802 99.5248 65.1659C99.8951 64.971 100.382 64.7469 100.986 64.4935L104.143 63.0904C105.391 62.5447 106.014 61.697 106.014 60.5472V57.9456C106.014 57.0491 105.741 56.4548 105.196 56.1624C104.65 55.8506 103.695 55.6947 102.331 55.6947C100.986 55.6947 99.1351 55.8994 96.777 56.3086V54.2624C98.7453 53.8921 100.782 53.707 102.886 53.707C104.991 53.707 106.511 54.0285 107.447 54.6716C108.382 55.2952 108.85 56.3476 108.85 57.8287V60.9272C108.85 61.6288 108.733 62.2134 108.499 62.6811C108.265 63.1294 107.885 63.5386 107.359 63.9089C106.852 64.2597 106.102 64.6592 105.108 65.1074L100.723 67.1244C99.4371 67.709 98.794 68.5665 98.794 69.6968V70.9538H108.85V73H96.1047V69.6091Z" fill="#2D6598"/>
<path d="M15 3H115V-3H15V3ZM127 15V115H133V15H127ZM115 127H15V133H115V127ZM3 115V15H-3V115H3ZM15 127C8.37259 127 3 121.627 3 115H-3C-3 124.941 5.05888 133 15 133V127ZM127 115C127 121.627 121.627 127 115 127V133C124.941 133 133 124.941 133 115H127ZM115 3C121.627 3 127 8.37258 127 15H133C133 5.05887 124.941 -3 115 -3V3ZM15 -3C5.05887 -3 -3 5.05888 -3 15H3C3 8.37259 8.37258 3 15 3V-3Z" fill="#2D6598"/>
</svg>
