<svg width="170" height="170" viewBox="0 0 170 170" fill="none" xmlns="http://www.w3.org/2000/svg">
<path d="M36.6154 162.677C36.6154 162.677 66.5615 124.754 80.2923 125.015C98.3385 125.408 100.169 132.208 118.869 136.654C141.1 142.015 166.338 108.8 161.5 89.4461C158.231 76.3692 137.7 83.2999 106.185 91.0153C99.5154 92.7153 76.7615 89.7076 71.1385 81.2076" stroke="#EB5E39" stroke-width="3" stroke-miterlimit="10"/>
<path d="M60.0231 110.892C60.0231 97.9462 49.5615 87.4846 36.6154 87.4846C23.6692 87.4846 13.2077 97.9462 13.2077 110.892C13.2077 112.462 13.3385 114.162 13.7308 115.6C14.2539 117.954 18.7 127.369 18.7 127.369L36.6154 162.677L52.7 130.9C52.7 130.9 58.0616 119.785 58.8462 117.169C59.5 115.077 60.0231 112.723 60.0231 110.892Z" fill="#2D6598" stroke="#004C95" stroke-width="0.3402" stroke-miterlimit="10"/>
<path d="M95.2 33.8692C95.2 20.9231 84.7385 10.4615 71.7923 10.4615C58.8462 10.4615 48.3846 20.9231 48.3846 33.8692C48.3846 35.4385 48.5154 37.1385 48.9077 38.5769C49.4308 40.9308 53.8769 50.3462 53.8769 50.3462L71.7923 85.6539L87.8769 53.8769C87.8769 53.8769 93.2385 42.7615 94.0231 40.1462C94.6769 38.0539 95.2 35.7 95.2 33.8692Z" fill="#2D6598" stroke="#004C95" stroke-width="0.3402" stroke-miterlimit="10"/>
<path d="M157.969 83.5615C157.969 70.6153 147.508 60.1538 134.562 60.1538C121.615 60.1538 111.154 70.6153 111.154 83.5615C111.154 85.1307 111.285 86.8307 111.677 88.2692C112.2 90.623 116.646 100.038 116.646 100.038L134.562 135.346L150.646 103.569C150.646 103.569 156.008 92.4538 156.792 89.8384C157.446 87.7461 157.969 85.3923 157.969 83.5615Z" fill="#2D6598" stroke="#004C95" stroke-width="0.3402" stroke-miterlimit="10"/>
<path d="M36.6154 129.985C47.3042 129.985 55.9692 121.32 55.9692 110.631C55.9692 99.942 47.3042 91.277 36.6154 91.277C25.9265 91.277 17.2615 99.942 17.2615 110.631C17.2615 121.32 25.9265 129.985 36.6154 129.985Z" fill="white"/>
<path d="M71.7923 52.9616C82.4812 52.9616 91.1462 44.2966 91.1462 33.6077C91.1462 22.9189 82.4812 14.2539 71.7923 14.2539C61.1035 14.2539 52.4385 22.9189 52.4385 33.6077C52.4385 44.2966 61.1035 52.9616 71.7923 52.9616Z" fill="white"/>
<path d="M134.562 102.654C145.25 102.654 153.915 93.9888 153.915 83.3C153.915 72.6112 145.25 63.9462 134.562 63.9462C123.873 63.9462 115.208 72.6112 115.208 83.3C115.208 93.9888 123.873 102.654 134.562 102.654Z" fill="white"/>
<path d="M35.7757 119.292C34.1387 119.292 32.2971 119.107 30.2509 118.737V116.632C32.5699 117.119 34.509 117.363 36.068 117.363C38.6599 117.363 39.9558 116.632 39.9558 115.171V111.926C39.9558 111.127 39.5271 110.601 38.6696 110.347C38.2604 110.25 37.8901 110.191 37.5588 110.172C37.247 110.133 36.8378 110.114 36.3311 110.114H32.6771V108.301H35.8341C36.3408 108.301 36.7501 108.291 37.0619 108.272C37.3737 108.233 37.7342 108.155 38.1435 108.038C38.5722 107.941 38.9035 107.755 39.1373 107.483C39.3712 107.21 39.4881 106.859 39.4881 106.43V103.039C39.4881 102.046 38.3189 101.549 35.9803 101.549C34.4213 101.549 32.6381 101.704 30.6309 102.016V99.9993C32.3068 99.8239 34.0802 99.7362 35.9511 99.7362C38.1142 99.7362 39.683 99.9798 40.6574 100.467C41.6513 100.935 42.1482 101.743 42.1482 102.893V106.547C42.1482 107.151 41.9046 107.658 41.4174 108.067C40.9302 108.457 40.3066 108.71 39.5466 108.827V108.944C40.0143 109.022 40.3943 109.11 40.6866 109.207C40.9984 109.285 41.3297 109.412 41.6805 109.587C42.3626 109.938 42.7036 110.552 42.7036 111.429V115.229C42.7036 115.892 42.5575 116.486 42.2652 117.012C41.9728 117.538 41.6026 117.948 41.1543 118.24C40.7646 118.513 40.2482 118.737 39.6051 118.912C38.962 119.068 38.3286 119.175 37.705 119.234C36.9644 119.273 36.3213 119.292 35.7757 119.292Z" fill="#2D6598"/>
<path d="M71.325 26.6594L65.5663 30.4303V28.0333L71.3542 24.0285H73.8681V43H71.325V26.6594Z" fill="#2D6598"/>
<path d="M128.105 88.6091C128.105 88.0634 128.192 87.5568 128.368 87.089C128.563 86.6018 128.806 86.1926 129.099 85.8613C129.332 85.5885 129.683 85.2962 130.151 84.9844C130.638 84.6531 131.096 84.3802 131.525 84.1659C131.895 83.971 132.382 83.7469 132.986 83.4935L136.143 82.0904C137.391 81.5447 138.014 80.697 138.014 79.5472V76.9456C138.014 76.0491 137.741 75.4548 137.196 75.1624C136.65 74.8506 135.695 74.6947 134.331 74.6947C132.986 74.6947 131.135 74.8994 128.777 75.3086V73.2624C130.745 72.8921 132.782 72.707 134.886 72.707C136.991 72.707 138.511 73.0285 139.447 73.6716C140.382 74.2952 140.85 75.3476 140.85 76.8287V79.9272C140.85 80.6288 140.733 81.2134 140.499 81.6811C140.265 82.1294 139.885 82.5386 139.359 82.9089C138.852 83.2597 138.102 83.6592 137.108 84.1074L132.723 86.1244C131.437 86.709 130.794 87.5665 130.794 88.6968V89.9538H140.85V92H128.105V88.6091Z" fill="#2D6598"/>
<rect x="1.5" y="1.5" width="167" height="167" rx="13.5" stroke="#2D6598" stroke-width="3"/>
</svg>
