<svg width="130" height="130" viewBox="0 0 130 130" fill="none" xmlns="http://www.w3.org/2000/svg">
<path d="M49.4 106.3L59.5 98.5L71.1 89.4V80.8L78.3 84.9L76.6 85.9L76 85.5L74.7 88.7L75.1 88.9L75 90.1L71.1 92.9L67.2 95.6V99.5L63.7 102L49.3 112.8L49.4 106.3Z" fill="#BDA28D" stroke="#58595B" stroke-width="0.5669" stroke-miterlimit="10"/>
<path d="M35.2 128.4C43.6 121.7 44 121.5 44 121.5L49.5 117.1V115.4L63.8 104V102L67.3 99.4L68.4 100.1L83 89.3L105.7 71.1L106.1 65.1L111.2 67.5L124.5 57.5V51.9L127.7 53.6V56.6V59L117.8 67L95.1 85.1L66.8 107.7L51.2 120.1L40.9 128.3" fill="#C4BBC2"/>
<path d="M35.2 128.4C43.6 121.7 44 121.5 44 121.5L49.5 117.1V115.4L63.8 104V102L67.3 99.4L68.4 100.1L83 89.3L105.7 71.1L106.1 65.1L111.2 67.5L124.5 57.5V51.9L127.7 53.6V56.6V59L117.8 67L95.1 85.1L66.8 107.7L51.2 120.1L40.9 128.3" stroke="#58595B" stroke-width="0.5669" stroke-miterlimit="10"/>
<path d="M59.5 42.3L70.8 33.2L83 39.5L84.5 43.2L79.4 49.3L73.9 53L67.6 52.1L58.3 49.9L58.8 41.9L59.5 42.3Z" fill="#D1B39B" stroke="#58595B" stroke-width="0.5669" stroke-miterlimit="10"/>
<path d="M8 73.2L3 76.8V97.3L14.1 104.4L23.1 96.8L8.6 88.5L8.7 73.2H8Z" fill="#679983" stroke="#58595B" stroke-width="0.5669" stroke-miterlimit="10"/>
<path d="M40.8 128.4L58 114.7L85.1 93.1L127.5 59.5L127.6 81.9L69.3 128.4" fill="#D8D0C7"/>
<path d="M40.8 128.4L58 114.7L85.1 93.1L127.5 59.5L127.6 81.9L69.3 128.4" stroke="#58595B" stroke-width="0.5669" stroke-miterlimit="10"/>
<path d="M70.4 26.5L80.3 31.7V41.8L70.4 36.3V26.5Z" fill="#A8C0C7" stroke="#58595B" stroke-width="0.5669" stroke-miterlimit="10"/>
<path d="M80.3 31.7L69.8 26.3L82.3 16.7L93.4 22L89.7 24.8" fill="#A69FAC"/>
<path d="M80.3 31.7L69.8 26.3L82.3 16.7L93.4 22L89.7 24.8" stroke="#58595B" stroke-width="0.5669" stroke-miterlimit="10"/>
<path d="M92.6 22.6V26.5L87.8 38.9L80.3 41.8V32.2L82 30.5L92.6 22.6Z" fill="#CADBDB" stroke="#58595B" stroke-width="0.5669" stroke-miterlimit="10"/>
<path d="M58.9 65.7C57.9 64.7 56.9 63.6 56.6 62.3C56.3 60.9 56.8 59.3 58.2 58.8C55.7 57.5 55.1 53.6 57.2 51.7C57.6 51.4 58 51.1 58.2 50.7C58.6 49.8 57.9 48.8 57.9 47.8C57.9 45.9 60.4 45.2 62.3 45.4C63.7 45.5 65.2 46 66.2 47C67.2 48.1 67.4 49.8 66.4 50.9C67.7 51.3 69 52 69.7 53.1C70.4 54.2 70.2 56 69 56.5C70.1 56.7 70.9 57.9 70.8 59C70.7 60.1 70 61.1 69.1 61.8L68.9 65.9C68.5 67.1 67.5 68 66.2 68.4H64.9L64.8 67.8L61.3 64.9L59.1 66L58.9 65.7Z" fill="#AEC894" stroke="#58595B" stroke-width="0.5669" stroke-miterlimit="10"/>
<path d="M70.2 64.8C70.7 65.9 71 67.4 69.7 67.9C68.6 68.3 67.3 67.4 66.5 66.7C65.6 65.9 64.7 65.1 63.8 64.2C63.3 63.8 62.8 63.3 62 63.2C61.2 63.1 60.4 63.4 59.6 63.2C58.6 63 58.1 62 58 61.1C57.9 60.4 58 59.7 58.4 59.2C58.8 58.6 59.7 58.2 60.5 58.4C58 56.3 57.5 52.8 59.5 50.5C59.7 50.2 60 49.9 60.5 49.7C61.3 49.4 62.4 49.8 63 50.4C63.6 51 63.8 51.8 63.9 52.5C64.4 55.2 64.5 57.9 64.1 60.5C65.2 60 66.6 59.6 67.7 60.2C68.2 60.5 68.5 61 68.7 61.5C69.2 62.6 69.7 63.7 70.2 64.8Z" fill="#79AA7D" stroke="#58595B" stroke-width="0.5669" stroke-miterlimit="10"/>
<path d="M59.9 53.4C61.9 55 61.6 57.5 62 59.6C62.1 60.1 62.2 60.6 62.6 61C63.3 61.8 64.6 62.1 64.9 63C65 63.4 64.9 63.9 65.3 64.1C65.6 64.3 66.1 64.3 66.5 64.3C67.6 64.4 68.6 65.1 68.7 66C68.8 66.9 68 67.7 67 67.8C65.4 67.9 64.1 66.7 63.1 65.7C62.1 64.7 60.5 63.6 59 64C58.3 63.2 57.6 62.4 57.5 61.4C57.4 60.5 58 59.4 59.1 59.3C59.4 59.3 59.7 59.3 59.9 59.1C60 59 60 58.8 60 58.7C59.9 57.6 59.5 56.4 58.8 55.4C58.5 55 58.2 54.5 58.1 54C58.1 53.5 58.5 53 59.1 53C59.4 53.1 59.6 53.2 59.9 53.4Z" fill="#4C8574" stroke="#58595B" stroke-width="0.5669" stroke-miterlimit="10"/>
<path d="M18.6 44.1C18.8 43.7 19.2 43.6 19.5 43.3C20 42.8 20 42.1 19.8 41.5C19.6 40.9 19.3 40.3 19.1 39.7C18.6 38.4 18.7 37 19.3 35.7C20.5 39.8 22.1 43.8 23.9 47.6C24 47.9 24.2 48.2 24.5 48.5C24.7 48.7 25 48.8 25.3 48.9C26.3 49.5 26.4 50.8 26.8 51.9C26.8 52 26.9 52.2 27 52.3C27.4 52.6 27.8 52.1 28.3 51.9C28.9 51.7 29.5 52.2 29.7 52.7C29.9 53.3 29.8 53.9 29.7 54.5C29.7 54.7 29.6 54.9 29.4 55.1C29.1 55.3 28.8 55.2 28.5 55.1C27.6 54.8 26.6 54.4 25.6 54.6C24.6 54.8 23.7 55.7 24 56.7C22.7 57.1 21.3 57.1 20.1 56.6C20.9 55.6 21.7 54.3 21.3 53C21.2 52.6 20.9 52.3 20.8 51.9C19.9 50 20.6 47.5 19.4 45.7C18.9 45.2 18.4 44.7 18.6 44.1Z" fill="#4C8574" stroke="#58595B" stroke-width="0.5669" stroke-miterlimit="10"/>
<path d="M35.5 26.2C36 25.5 37.2 24.9 37.5 25.7C37.9 23.9 39 22.2 40.5 21.2C41.2 21.8 41.4 22.9 41 23.8C42 23.3 43.2 23.7 43.8 24.6C44.4 25.5 44.1 26.8 43.2 27.4C44.2 26.8 45.6 27.4 46 28.4C46.4 29.4 45.9 30.7 45 31.3C46.2 30.8 47.6 31.1 48.4 32.1C49.2 33 49.4 34.5 48.7 35.6C49.8 35.7 50.5 37 50.2 38C49.9 39.1 48.3 40.6 48.3 40.6C47.7 40.7 46.6 40.6 44.9 40.8C44.9 41.9 44.9 43.4 44.9 43.4C44.9 43.4 45.3 45.8 44.3 46.4C44 46.6 43.1 46.7 42.9 46.9C42.6 47.2 42.5 47.6 42.3 47.9C41.3 49.8 38.9 50 36.9 50C36.4 49.2 35.5 48.9 34.6 48.6C33.7 48.4 32.7 48.2 32.1 47.5C31.5 46.8 31.5 45.5 32.4 45.2C31.4 44.7 30.8 43.6 30.8 42.5C30.9 41.4 31.6 40.4 32.7 40C30.7 38.5 30.8 35 32.8 33.6C33 30.9 34 28.3 35.5 26.2Z" fill="#AEC894" stroke="#58595B" stroke-width="0.5669" stroke-miterlimit="10"/>
<path d="M58.3 56C59 54.1 60.3 54.3 61.5 54.7C61.2 53.3 60.3 52 59.7 50.7C59.1 49.4 58.7 47.8 59.4 46.4C60.1 45.1 62.2 44.5 63 45.7C62.5 44.6 62.3 43.5 62.6 42.3C62.9 41.1 63.8 40.2 64.9 40.1C66 40 67.3 41 67.2 42.1C67.6 41.2 68 40.2 68.8 39.5C69.6 38.8 71 38.9 71.5 39.8C71.7 40.1 71.7 40.6 71.7 40.9C71.7 42 71.4 43.1 70.8 44.1C72 43.3 73.6 44.6 73.8 46.1C73.9 47.5 73.1 48.8 72.3 50C72.8 49.1 74.4 49.3 74.9 50.3C75.4 51.2 75.2 52.4 74.8 53.4C74.3 54.6 73.6 55.7 72.8 56.7C73.2 55.8 74.3 54.9 75.2 55.4C75.9 55.9 75.9 57 75.6 57.8C75.1 59.4 74.2 60.9 72.9 62.1C73.3 61.9 73.8 62.3 73.8 62.8C73.8 63.3 73.5 63.7 73.2 64C72.3 65 71.4 65.9 70.1 66.2C69.1 66.4 68.1 66.2 67.1 66C65.1 65.6 63 65.1 61 64.7C59.8 64.5 58.5 64.1 58 63.1C57.3 61.8 58.7 60 60.1 60.2C59 59.5 58.1 58.4 57.7 57.1C57.6 56.9 57.5 56.6 57.6 56.4C57.7 56.3 58.2 56.3 58.3 56Z" fill="#AEC894" stroke="#58595B" stroke-width="0.5669" stroke-miterlimit="10"/>
<path d="M18.9 57.2C20.4 57.6 22.5 58 24.1 57.9C24.8 57.9 25.4 57.8 26 57.4C26.5 57 26.3 56.9 26 56.4C25.7 55.9 26.5 55.3 27.2 56.1C29.6 57.4 30.8 56.6 32.5 54.6C33.2 53.8 33.1 52.2 32.1 52.4C33.3 51.7 34.6 50.8 34.9 49.5C35.2 48.2 33.8 46.7 32.5 47.2C33.6 47.1 34.5 46 34.4 45C34.3 44 33.2 43.1 32.1 43.2C33.1 42.7 34.1 42.2 34.6 41.2C35 40.3 34.5 38.9 33.4 38.8C34.7 38.5 35.4 36.8 34.6 35.8C33.9 34.8 32 34.6 31.1 35.6C32 34.7 32.5 33.2 31.9 32.1C31.3 31 29.3 30.7 28.5 31.7C29.3 30.9 30 30 30.4 29C30.7 28 30.5 26.7 29.6 26C28.7 25.3 27.3 26.5 26.7 26.7C26.4 26 27.9 25 28 23.9C28.1 22.8 27.5 21.7 26.4 21.3C25.3 21 24.3 20.7 24.5 21.7C24.9 22.1 24.1 22.5 24.2 22.3C23.3 21.5 22.3 22.1 21.3 22.7C20.1 23.5 20.2 24.8 20.9 26C17.5 27.4 17.5 29.3 19.2 32C19.4 32.5 18.9 33 18.9 33C17.7 33.5 18 34.3 18.3 35.8C18.6 37.2 19.1 39.8 19.3 41.2C18.9 41.3 17.9 41.5 17.5 41.5C17.6 42 18.7 47.5 19.5 50.7C19.4 50.7 18.9 50.8 18.9 50.8C18.9 52.4 18.9 56 18.9 57.2Z" fill="#AEC894" stroke="#58595B" stroke-width="0.5669" stroke-miterlimit="10"/>
<path d="M18.7 43C18.8 42.7 19.1 42.6 19.3 42.3C20.4 41.2 19.4 39.3 19.2 37.8C19.1 36.8 19.4 35.7 20.1 34.9C20.5 34.5 20.9 34.1 21.1 33.5C21.2 33.1 21.1 32.7 21.1 32.2C20.9 30.5 21.3 28.8 22.1 27.4C25 29 26 33.3 24 36C25.4 36.2 26.4 38 25.8 39.3C26.5 38.8 27.4 39.5 27.7 40.3C28.5 42.2 27.6 44.4 26.8 46.3C27.2 45.7 28 44.9 28.7 45.4C28.9 45.5 29 45.8 29.1 46C29.8 47.6 29.8 49.5 29.2 51.1C29.4 52.3 29 53.6 28.4 54.6C28.3 54.8 28.1 55 27.8 55.1C27.6 55.1 27.4 55 27.2 54.9C26.6 54.6 26.1 54.3 25.5 53.9C25.3 55.1 24.4 56.1 23.2 56.5C22 56.8 20.7 56.4 19.9 55.5C19.7 53.9 19.5 52.3 19.4 50.6C19.4 50.5 19.4 50.4 19.4 50.3C19.2 48.1 18.9 45.9 18.7 43.6C18.6 43.6 18.6 43.3 18.7 43Z" fill="#79AA7D" stroke="#58595B" stroke-width="0.5669" stroke-miterlimit="10"/>
<path d="M66.6 64.9C66.2 65 65.7 64.8 65.3 64.6C63.8 63.8 62.3 63.1 60.8 62.3C60.4 62.1 60 61.9 59.8 61.5C59.5 61 59.7 60.3 60 59.9C60.4 59.4 60.9 59.1 61.4 58.9C60.7 58.7 60 58.4 59.6 57.9C59.2 57.3 59.4 56.3 60.1 56.2C60.8 56.1 61.5 56.9 62 56.4C62.3 56.1 62.2 55.6 62 55.3C61.3 53.6 60.1 51.9 60.6 50.2C60.7 49.9 60.9 49.5 61.2 49.3C62 48.8 62.9 49.6 63.5 50.3C63.5 48.1 64.2 45.9 65.6 44.2C68.5 46.8 69 51.2 68.5 55.1C68.5 55.4 68.4 55.7 68.5 56C68.6 56.3 68.9 56.5 69.1 56.8C69.8 57.7 69.4 58.9 69.1 59.9C69.5 59.3 69.9 58.8 70.5 58.4C70.7 58.3 70.9 58.2 71.1 58.2C71.6 58.2 71.7 59 71.7 59.5C71.6 60.5 71.5 61.5 71.4 62.5C71.3 63.2 71.2 64 70.6 64.4C70.3 64.6 69.8 64.6 69.4 64.6C67.9 64.6 66.3 64.5 64.8 64.5C63.8 64.5 62.6 64.2 62.4 63.3" fill="#79AA7D"/>
<path d="M66.6 64.9C66.2 65 65.7 64.8 65.3 64.6C63.8 63.8 62.3 63.1 60.8 62.3C60.4 62.1 60 61.9 59.8 61.5C59.5 61 59.7 60.3 60 59.9C60.4 59.4 60.9 59.1 61.4 58.9C60.7 58.7 60 58.4 59.6 57.9C59.2 57.3 59.4 56.3 60.1 56.2C60.8 56.1 61.5 56.9 62 56.4C62.3 56.1 62.2 55.6 62 55.3C61.3 53.6 60.1 51.9 60.6 50.2C60.7 49.9 60.9 49.5 61.2 49.3C62 48.8 62.9 49.6 63.5 50.3C63.5 48.1 64.2 45.9 65.6 44.2C68.5 46.8 69 51.2 68.5 55.1C68.5 55.4 68.4 55.7 68.5 56C68.6 56.3 68.9 56.5 69.1 56.8C69.8 57.7 69.4 58.9 69.1 59.9C69.5 59.3 69.9 58.8 70.5 58.4C70.7 58.3 70.9 58.2 71.1 58.2C71.6 58.2 71.7 59 71.7 59.5C71.6 60.5 71.5 61.5 71.4 62.5C71.3 63.2 71.2 64 70.6 64.4C70.3 64.6 69.8 64.6 69.4 64.6C67.9 64.6 66.3 64.5 64.8 64.5C63.8 64.5 62.6 64.2 62.4 63.3" stroke="#58595B" stroke-width="0.5669" stroke-miterlimit="10"/>
<path d="M44.2 35.9C44.3 36.4 44.1 37.2 44.6 37.3C44.8 37.3 45.1 37.2 45.3 37.1C45.9 37 46.4 37.8 46.2 38.4C46 39 45.4 39.3 44.8 39.5C44.2 39.7 43.6 39.9 43.2 40.3C43 40.5 42.9 40.7 42.9 41C42.9 41.3 43.1 41.5 43.3 41.7C44.2 43.1 43.9 45 42.7 46.1C42.3 46.4 41.9 46.7 41.6 47.1C41.3 47.5 41.3 48.1 41 48.5C40.3 49.4 38.9 49.2 37.8 48.8C36.2 48.3 34.7 47.8 33.1 47.3C32.7 47.2 32.3 46.9 32.4 46.5C32.5 46.3 32.6 46.2 32.7 46.2C33.4 45.8 34 45.3 34.7 44.9C34 44.4 33.3 43.9 33 43.2C32.7 42.4 33 41.4 33.8 41.2C33.4 40.8 32.9 40.3 33.2 39.8C33.3 39.5 33.7 39.4 33.9 39.2C34.6 38.6 34.5 37.5 34.1 36.7C33.7 35.9 33.2 35 33.3 34.1C33.4 33.2 34.7 32.5 35.2 33.2C35.4 31.7 36 30.3 37 29.1C37.2 28.9 37.4 28.7 37.6 28.7C37.9 28.6 38.1 28.8 38.4 28.8C39 28.9 39.7 28.4 39.7 27.7C42 29.1 43.2 32.1 42.6 34.7C43.2 34.7 44.1 35.2 44.2 35.9Z" fill="#79AA7D" stroke="#58595B" stroke-width="0.5669" stroke-miterlimit="10"/>
<path d="M18.4 36.8C19.5 35.6 21.6 36 22.5 37.3C23.4 38.6 23 40.6 21.9 41.7C23 41.6 24.2 41.5 25.1 42.2C26 42.9 26.3 44.3 26 45.4C25.7 46.5 25 47.5 24.2 48.4C25.5 48.2 26.6 49.6 26.4 51C26.3 52.3 25.4 53.4 24.5 54.4C25.4 54.5 25.3 55.9 24.9 56.7C23.5 59.1 20.8 60.6 18 60.9C15.2 61.2 12.4 60.7 9.8 59.7C9.1 59.4 8.3 59 8 58.3C7.7 57.6 8.3 56.6 9 56.7C7.6 57 5.9 56.3 5.3 55C4.7 53.6 5.9 51.7 7.4 51.9C6.9 50.5 6.4 49 6.5 47.5C6.6 46 7.5 44.4 8.9 44C8.3 42.3 8.2 40.5 8.6 38.7C8.9 37.5 9.9 36.1 11 36.6C11 33.9 12.2 31.2 14.3 29.4C14.9 29.9 15.3 30.6 15.7 31.2C16.2 30.2 17.7 30 18.5 30.7C19.3 31.4 19.7 32.6 19.6 33.6C19.4 34.8 18.9 35.8 18.4 36.8Z" fill="#AEC894" stroke="#58595B" stroke-width="0.5669" stroke-miterlimit="10"/>
<path d="M22.1 54.1C22.5 53.9 23 54.4 23 54.9C23 55.4 22.7 55.8 22.4 56.2C21.2 57.6 19.8 58.9 18.2 59.8C17.1 60.4 15.8 60.9 14.6 60.5C14.3 60.4 13.9 60.2 13.6 59.9C12.2 59 10.9 58.1 9.49999 57.1C9.09999 56.8 8.69999 56.5 8.49999 56.1C8.29999 55.7 8.29999 55.1 8.69999 54.8C8.19999 55.3 7.29999 55 6.99999 54.4C6.69999 53.8 6.89999 53 7.39999 52.5C7.79999 52 8.39999 51.7 8.99999 51.7C8.99999 51 8.49999 50.3 8.09999 49.7C7.69999 49.1 7.19999 48.4 7.29999 47.7C7.39999 47 8.49999 46.5 8.89999 47.1C8.59999 45.8 8.29999 44.2 9.29999 43.3C9.89999 42.7 11 42.5 11.4 41.6C11.7 40.9 11.3 40.1 11.1 39.3C10.9 38.5 11.2 37.5 12 37.5C12.2 37.5 12.5 37.6 12.7 37.5C13.4 37.2 12.5 35.7 13.3 35.6C14.5 36.2 15.2 37.6 15.6 38.9C16.6 41.9 17.1 45.1 17.1 48.3C17.5 47.6 18.1 46.7 18.9 46.9C20 47.2 19.6 49 20.2 50C21.1 49.7 22.1 50.4 22.4 51.3C22.5 52.3 22.3 53.2 22.1 54.1Z" fill="#79AA7D" stroke="#58595B" stroke-width="0.5669" stroke-miterlimit="10"/>
<path d="M11.2 56.2C10.4 54.5 8.00001 54.3 6.10001 54.5C7.40001 54 8.90001 53 8.60001 51.7C8.40001 51 7.80001 50.5 7.40001 50C7.00001 49.5 6.70001 48.6 7.20001 48.1C7.80001 47.5 8.80001 48 9.60001 47.7C10.1 47.5 10.4 47 11 46.9C11.8 46.7 12.4 47.7 12.7 48.5C13.4 50.4 14.1 52.3 14.9 54.2C16.5 53.9 18.1 53.6 19.8 53.3C20 53.3 20.3 53.2 20.4 53.4C20.6 53.5 20.7 53.7 20.8 53.9C21.4 55.6 22 57.6 21 59.1C20.1 60.5 18 60.8 16.7 59.7C16.6 60.3 15.7 60.1 15.2 59.8C13.6 58.8 11.7 58.2 9.80001 58.1C9.90001 57.3 10.5 56.6 11.2 56.2Z" fill="#4C8574" stroke="#58595B" stroke-width="0.5669" stroke-miterlimit="10"/>
<path d="M35.2 37.4C35.7 37.6 36.2 37.5 36.6 37.6C37.5 37.8 38.2 38.7 38.6 39.6C38.9 40.5 38.9 41.5 38.9 42.5C39.8 42.5 40.1 40.8 41 41C41.2 41 41.4 41.2 41.5 41.3C42.5 42.3 42.7 44 42.2 45.4C41.7 46.8 40.9 48 40.1 49.2C39.8 49.6 39.5 49.9 39.1 50.1C38.7 50.3 38.1 50 38 49.6C36.2 48.7 34.4 47.7 32.6 46.7C32.7 45.9 33.1 45.1 33.1 44.3C33.1 43.5 32.4 42.5 31.6 42.8C31.6 42.2 31.9 41.7 32.4 41.4C32.1 40.1 32 38.8 32.2 37.5C32.2 37.3 32.3 37 32.4 36.8C32.7 36.4 33.4 36.4 33.9 36.7C34.3 36.8 34.7 37.2 35.2 37.4Z" fill="#4C8574" stroke="#58595B" stroke-width="0.5669" stroke-miterlimit="10"/>
<path d="M68.1 61C68.3 61.2 68.3 61.5 68.5 61.7C69 62.1 69.8 61.2 70.3 61.5C70.4 61.6 70.5 61.7 70.6 61.8C71.2 63.1 70.1 64.7 68.8 65.2C67.4 65.7 65.9 65.4 64.5 65C62.8 64.6 61.2 64.2 59.5 63.9C59.1 63.8 58.6 63.6 58.4 63.2C58.2 62.7 58.7 62.2 59.2 61.9C59.7 61.6 60.3 61.4 60.5 60.9C60.7 60.2 60.1 59.6 59.6 59.1C59.1 58.6 58.6 57.8 59.1 57.2C59.7 56.5 60.8 57.3 61.7 57C62.5 56.7 62.6 55.7 62.5 54.9C62.3 54.1 62 53.3 62.2 52.5C63.6 53 64.5 54.3 65 55.7C65.5 57.1 65.7 58.6 66.1 60C66.2 60.4 66.4 60.8 66.8 60.9C67.2 60.9 67.8 60.7 68.1 61Z" fill="#4C8574" stroke="#58595B" stroke-width="0.5669" stroke-miterlimit="10"/>
<path d="M92.7 29.2C93.8 28.3 96 28.5 96.9 29.6C97.8 30.6 97.4 32.1 96.3 33C97.4 32.9 98.6 32.8 99.5 33.4C100.5 33.9 100.7 35 100.4 35.9C100.1 36.8 99.3 37.5 98.6 38.2C99.9 38 101 39.2 100.9 40.2C100.8 41.2 99.9 42.1 99 42.8C99.9 42.9 99.9 44 99.4 44.6C97.9 46.5 95.2 47.6 92.4 47.9C89.6 48.2 86.7 47.7 84.1 46.9C83.4 46.7 82.6 46.4 82.3 45.8C82 45.2 82.6 44.4 83.3 44.6C81.8 44.8 80.1 44.3 79.5 43.3C78.9 42.2 80.1 40.8 81.6 40.9C81.1 39.8 80.6 38.7 80.7 37.5C80.8 36.3 81.7 35.1 83.2 34.8C82.6 33.5 82.5 32 82.9 30.7C83.2 29.8 84.2 28.7 85.3 29.1C85.3 27 86.6 24.9 88.6 23.5C89.2 23.9 89.6 24.4 90 24.9C90.5 24.1 92 24 92.9 24.5C93.8 25 94.1 25.9 94 26.8C93.7 27.6 93.2 28.4 92.7 29.2Z" fill="#AEC894" stroke="#58595B" stroke-width="0.5669" stroke-miterlimit="10"/>
<path d="M96.5 42.7C96.9 42.6 97.4 42.9 97.5 43.3C97.6 43.7 97.2 44 96.9 44.3C95.7 45.4 94.3 46.4 92.6 47.1C91.5 47.6 90.1 48 88.9 47.6C88.6 47.5 88.2 47.3 87.9 47.2C86.5 46.5 85.1 45.8 83.8 45C83.4 44.8 83 44.6 82.7 44.2C82.5 43.9 82.5 43.4 82.9 43.2C82.4 43.6 81.4 43.4 81.1 42.9C80.8 42.4 81 41.8 81.5 41.4C81.9 41 82.5 40.8 83.1 40.8C83.1 40.2 82.6 39.7 82.2 39.3C81.7 38.8 81.3 38.3 81.4 37.7C81.5 37.1 82.6 36.8 83 37.2C82.7 36.2 82.4 34.9 83.4 34.2C84 33.7 85.1 33.6 85.5 32.9C85.8 32.3 85.4 31.7 85.2 31.1C85 30.5 85.3 29.7 86.1 29.7C86.3 29.7 86.6 29.8 86.8 29.7C87.5 29.5 86.6 28.3 87.4 28.2C88.7 28.6 89.3 29.7 89.7 30.8C90.7 33.2 91.2 35.7 91.2 38.1C91.6 37.5 92.2 36.9 93 37C94.1 37.3 93.7 38.6 94.3 39.4C95.2 39.2 96.2 39.7 96.5 40.4C96.8 41.1 96.7 42 96.5 42.7Z" fill="#79AA7D" stroke="#58595B" stroke-width="0.5669" stroke-miterlimit="10"/>
<path d="M84.2 45C83.9 43.9 82.7 43.3 81.5 42.9C81 42.8 81 42.1 81.4 41.9C82 41.6 82.4 41.2 82.3 40.6C82.3 40 81.7 39.5 81.4 38.9C81 38.3 80.9 37.6 81.5 37.2C82.2 36.8 83.2 37.5 84 37.4C84.5 37.3 85 37 85.6 37C86.5 37.1 86.9 38 87 38.7L88.1 43.6C88.2 43.8 88.3 44 88.6 44C90.2 44.1 91.8 44.2 93.4 44.3C93.6 44.3 93.9 44.3 94.1 44.5C94.3 44.6 94.3 44.8 94.4 45C94.7 46.6 95 48.4 93.7 49.4C92.5 50.4 90.3 50.2 89.2 49C89 49.5 88.1 49.1 87.6 48.7C86.1 47.5 84.3 46.6 82.4 46.1C82.7 45.6 83.4 45.2 84.2 45Z" fill="#4C8574" stroke="#58595B" stroke-width="0.5669" stroke-miterlimit="10"/>
<path d="M106.1 53.2L110.6 55.1L111.1 54.7V67.6L106 65.2L106.1 53.2Z" fill="#AAA1B5" stroke="#58595B" stroke-width="0.5669" stroke-miterlimit="10"/>
<path d="M110.8 54.3L116.8 38.3L125.5 43.7L124.4 44.6V57.5L111.1 67.6V54.7L110.6 54.9L110.8 54.3Z" fill="#BEBFDB" stroke="#58595B" stroke-width="0.5669" stroke-miterlimit="10"/>
<path d="M104.8 32.5C105.1 32.4 109.1 30.9 109.1 30.9L111.2 35.6L104.8 32.5Z" fill="#B5B9D8" stroke="#58595B" stroke-width="0.5669" stroke-miterlimit="10"/>
<path d="M87.1 40.3L92.6 26.5L116.8 38.3L110.6 55.1L106.1 53.2L106 48.2L106.3 48.1L98 36.3L90.8 37.1L87.1 40.3Z" fill="#B22B43" stroke="#58595B" stroke-width="0.5669" stroke-miterlimit="10"/>
<path d="M68.1 64.2V57.6L67.5 57.3L72.5 52.6L80.4 57.3L83 66.4V83.1L81.8 82.2L78.1 84.8L71.1 80.8L71.4 65L69.4 63.8L68.1 64.2Z" fill="#D9A481" stroke="#58595B" stroke-width="0.5669" stroke-miterlimit="10"/>
<path d="M83 66.4L105.9 48.6L106 71L83 89.4V66.4Z" fill="#FCCBAA" stroke="#58595B" stroke-width="0.5669" stroke-miterlimit="10"/>
<path d="M72.5 52.6L90.8 37.1L98 36.3L81.5 49.2L72.5 52.6Z" fill="#943041" stroke="#58595B" stroke-width="0.5669" stroke-miterlimit="10"/>
<path d="M83 66.4L80.4 57.3L81.5 49.2L98 36.3L106.3 48.1L83 66.4Z" fill="#E85A62" stroke="#58595B" stroke-width="0.5669" stroke-miterlimit="10"/>
<path d="M97.6 28.9C97.6 28.8 101.7 27.5 101.7 27.5L108.9 30.9L104.8 32.5L97.7 29L97.6 28.9Z" fill="#E85A62" stroke="#58595B" stroke-width="0.5669" stroke-miterlimit="10"/>
<path d="M80.4 57.3L72.5 52.6L81.5 49.2L80.4 57.3Z" fill="#B22B43" stroke="#58595B" stroke-width="0.5669" stroke-miterlimit="10"/>
<path d="M3 115.4L15.4 123.4V128.4L10.5 127.8L6.3 125.6L3.1 120.3L3 115.4Z" fill="#98ABB7" stroke="#58595B" stroke-width="0.5669" stroke-miterlimit="10"/>
<path d="M49.4 96.7V117.1L35.2 128.4H15.4V123.4L49.4 96.7Z" fill="#BAC5CC" stroke="#58595B" stroke-width="0.5669" stroke-miterlimit="10"/>
<path d="M3 100.5L14.6 108.1L15.4 123.4L3 115.4V100.5Z" fill="#A7ABB4" stroke="#58595B" stroke-width="0.5669" stroke-miterlimit="10"/>
<path d="M14.1 103.2L36.1 86.3L44.5 85.1L14.6 108.1L14.1 103.2Z" fill="#A7ABB4" stroke="#58595B" stroke-width="0.5669" stroke-miterlimit="10"/>
<path d="M3 100.5L3.1 95.9L14.1 103.2L14.6 108.1L3 100.5Z" fill="#CACED7" stroke="#58595B" stroke-width="0.5669" stroke-miterlimit="10"/>
<path d="M15.4 123.4L14.6 108.1L44.4 85.1L50.5 95.9L15.4 123.4Z" fill="#CACED7" stroke="#58595B" stroke-width="0.5669" stroke-miterlimit="10"/>
<path d="M14.3 62.4L16.7 64.2L19.5 65.5V69.6L40 81.9L36.7 86H36.2L35.2 86.8L6.7 68.5L14.3 62.4Z" fill="#777E87" stroke="#58595B" stroke-width="0.5669" stroke-miterlimit="10"/>
<path d="M14.3 44.5L20.3 39.7L23.4 41.8L24.6 38.9L29 41.6L29.2 45.2C29.2 45.2 31 46.1 31.9 46.2C32.7 46.3 34.3 46.1 35 45.7C35.7 45.3 35.7 45.1 35.7 45.1L42.3 48.9V49.4L42.8 49.6V55.5L41.7 54.8L40.4 55.8L41.7 56.6V66L19 52.3L19.8 50.1L16.9 48L14.3 44.5Z" fill="#777E87" stroke="#58595B" stroke-width="0.5669" stroke-miterlimit="10"/>
<path d="M8 69.6L35.2 86.8L21.4 97.6L8 89V69.6Z" fill="#AFBFD2" stroke="#58595B" stroke-width="0.5669" stroke-miterlimit="10"/>
<path d="M14.3 44.5L17 48.1L19.9 50.1L19 52.3L41.5 66.2V80.4L40 81.9L19.5 69.6V65.5L17 64.2L14.3 62.4V44.5Z" fill="#AFBFD2" stroke="#58595B" stroke-width="0.5669" stroke-miterlimit="10"/>
<path d="M8 69.6L35.2 86.8L33.8 87.9L8.1 71.7L8 69.6Z" fill="#B66629" stroke="#58595B" stroke-width="0.5669" stroke-miterlimit="10"/>
<path d="M14.3 44.5L17 48.1L19.9 50.1L19.2 51.9L16.9 50.2L14.3 46.8V44.5Z" fill="#B66629" stroke="#58595B" stroke-width="0.5669" stroke-miterlimit="10"/>
<path d="M19.4 52.6L41.5 66.2V68.1L19.4 54.4V52.6Z" fill="#B66629" stroke="#58595B" stroke-width="0.5669" stroke-miterlimit="10"/>
<path d="M36.7 86C36.7 86 41.1 81 41.8 79.8C42.5 78.6 43.5 74.3 43.8 71.7C44.1 69.1 44.1 68.7 44.1 68.7L46.9 70.1C46.9 70.1 46.1 75.2 45.9 76.1C45.7 77 45.2 79.9 44.2 81.6C43.2 83.2 41.7 85.5 41.7 85.5L36.7 86Z" fill="#253C80" stroke="#58595B" stroke-width="0.5669" stroke-miterlimit="10"/>
<path d="M61.4 60.3C61.4 60.3 63.9 63 64.5 63.4C65.1 63.8 66.1 64.4 67.2 64.4C68.3 64.4 69.4 63.8 69.4 63.8L71.4 65C71.4 65 70.8 65.8 70.5 66C70.2 66.2 69.3 66.8 67.9 66.7C66.5 66.6 65.5 66.1 64.9 65.5C64.3 64.9 63 63.4 62.6 62.5C62.1 61.7 61.4 60.3 61.4 60.3Z" fill="#253C80" stroke="#58595B" stroke-width="0.5669" stroke-miterlimit="10"/>
<path d="M34.6 22.8C34.6 22.8 34.2 24 32.6 24C31.1 24 30 23 30 23C30 23 29.2 23.7 29.6 24.4C30 25.1 31.1 25.4 32.4 25.4C33.3 25.4 34.7 25 35 24.3C35.3 23.9 35.3 23.1 34.6 22.8Z" fill="#B66629" stroke="#58595B" stroke-width="0.5669" stroke-miterlimit="10"/>
<path d="M36.2 34.2C36.2 34.2 35.6 35.9 33 35.9C30.5 35.9 28.7 34.4 28.7 34.4C28.7 34.4 27.4 35.4 28.1 36.3C28.8 37.2 30.6 37.7 32.9 37.7C34.3 37.7 36.7 37.2 37.3 36.2C37.3 35.7 37.3 34.6 36.2 34.2Z" fill="#B66629" stroke="#58595B" stroke-width="0.5669" stroke-miterlimit="10"/>
<path d="M29.1 37.1C29.1 37.1 30.3 37.6 30.8 37.7C31.3 37.8 31.7 37.7 31.7 37.7V46.4C31.7 46.4 30.2 45.9 29.7 45.7C29.2 45.5 29.1 45.3 29.1 45.3V37.1Z" fill="#AFBFD2" stroke="#58595B" stroke-width="0.5669" stroke-miterlimit="10"/>
<path d="M41.5 56.8L48.3 60.4V85.8L46.9 86.8V70.1L44.1 68.7C44.1 68.7 43.5 73.7 43.3 74.6C42.4 78.7 41.4 80 41.4 80L41.5 56.8Z" fill="#AFBFD2" stroke="#58595B" stroke-width="0.5669" stroke-miterlimit="10"/>
<path d="M42.6 49.7L47.2 51.9V58L42.6 55.6V49.7Z" fill="#AFBFD2" stroke="#58595B" stroke-width="0.5669" stroke-miterlimit="10"/>
<path d="M44.9 44.3V39.5L46 40.1C46 40.1 46.1 37.8 46.5 37.4C46.9 37 47.5 36.5 48 37.2C48.5 37.9 49 39 49.1 39.4C49.2 39.8 49.3 41.6 49.3 41.6L51.3 42.6V47L45.6 44.5H44.9V44.3Z" fill="#AFBFD2" stroke="#58595B" stroke-width="0.5669" stroke-miterlimit="10"/>
<path d="M40.2 56L41.5 54.9L48.1 58.4L60.9 48.7L62.4 49.8L48.3 60.3L40.2 56Z" fill="#B66629" stroke="#58595B" stroke-width="0.5669" stroke-miterlimit="10"/>
<path d="M31.7 46.4V37.7C31.7 37.7 33.4 37.7 34.2 37.5C35 37.3 35.8 37.1 35.8 37.1V45.3C35.8 45.3 34.3 46.1 33.5 46.2C32.7 46.4 31.7 46.4 31.7 46.4Z" fill="#DFD8D2" stroke="#58595B" stroke-width="0.5669" stroke-miterlimit="10"/>
<path d="M34.3 24.8V30.6C33 32.5 30.8 30.8 30.8 30.8V25.2C30.8 25.2 32.1 25.4 32.8 25.3C33.5 25.2 34 25.2 34.3 24.8Z" fill="#AFBFD2" stroke="#58595B" stroke-width="0.5669" stroke-miterlimit="10"/>
<path d="M34.6 22.8C35.1 21 34.3 20.4 33.5 19.9C32.7 19.4 32.6 18.2 32.6 18.2C32.6 18.2 33.1 18.7 31.4 19.9C29.7 21.1 30.1 22.8 30.1 22.8C30.1 22.8 30.7 23.7 31.9 23.9C33.1 24.2 33.7 23.9 33.9 23.7C34.1 23.5 34.5 23.3 34.6 22.8Z" fill="#686C77" stroke="#58595B" stroke-width="0.5669" stroke-miterlimit="10"/>
<path d="M28.5 34.4C28.5 34.4 28.7 33.1 28.9 32.6C29.1 32.2 29.5 31.5 29.8 31.2C30.1 30.9 30.7 30.7 30.7 30.7C30.7 30.7 30.9 31 31.3 31.2C31.6 31.4 32.2 31.6 32.7 31.6C32.9 31.6 33.5 31.6 34 31.1C34.3 30.7 34.4 30.6 34.4 30.6C34.4 30.6 35.3 31.2 35.5 31.7C35.7 32.1 36 33 36.1 33.6C36.2 34.2 36.1 34.4 36.1 34.4C36.1 34.4 35.4 35.2 34.9 35.5C34.1 35.9 33 35.9 32.2 35.9C31.5 35.9 30.2 35.6 29.7 35.3C29.4 34.9 28.5 34.4 28.5 34.4Z" fill="#686C77" stroke="#58595B" stroke-width="0.5669" stroke-miterlimit="10"/>
<path d="M44.1 39.2C44.1 39.2 44.1 37.7 44.5 36.7C44.9 35.7 45.3 35 45.7 34.8C46.1 34.6 47.1 34.4 47.8 34.6C48.5 34.9 49.3 35.3 49.8 36.1C50.3 36.9 50.7 37.9 50.7 38.6C50.7 39.3 50.8 40.3 50.8 40.3C50.8 40.3 51.1 38.7 51.3 38.2C51.6 37.7 52.3 36.6 53.1 36C54 35.4 54.6 35.2 55 35.3C55.3 35.4 55.9 35.3 56.3 36.1C56.7 36.9 56.9 37.3 56.9 38C56.9 38.7 56.9 39.2 56.9 39.2L55.5 40.3C55.5 40.3 55.5 39.1 55.4 38.8C55.3 38.5 55.2 38.1 54.9 37.9C54.6 37.7 54.1 37.7 53.8 37.9C53.6 38.1 53.1 38.4 52.9 39.4C52.7 40.4 52.6 41.4 52.6 41.4L51.1 42.3L49.2 41.2C49.2 41.2 49.2 39.7 49 39.2C48.8 38.7 48.6 37.6 48.2 37.2C47.8 36.8 47.2 36.4 46.6 36.9C46 37.4 45.9 39.9 45.9 39.9L44.1 39.2Z" fill="#B66629" stroke="#58595B" stroke-width="0.5669" stroke-miterlimit="10"/>
<path d="M54.3 22.3C54.3 22.3 53.7 24 51.1 24C48.6 24 46.8 22.5 46.8 22.5C46.8 22.5 45.5 23.5 46.2 24.4C46.9 25.3 48.7 25.8 51 25.8C52.4 25.8 54.8 25.3 55.4 24.3C55.4 23.9 55.4 22.8 54.3 22.3Z" fill="#B66629" stroke="#58595B" stroke-width="0.5669" stroke-miterlimit="10"/>
<path d="M52.7 11C52.7 11 52.3 12.2 50.7 12.2C49.2 12.2 48.1 11.2 48.1 11.2C48.1 11.2 47.3 11.9 47.7 12.6C48.1 13.3 49.2 13.6 50.5 13.6C51.4 13.6 52.8 13.2 53.1 12.5C53.4 12.1 53.4 11.2 52.7 11Z" fill="#B66629" stroke="#58595B" stroke-width="0.5669" stroke-miterlimit="10"/>
<path d="M46.5 22.5C46.5 22.5 47.8 23.2 49.1 23.6C50 23.9 50.7 24.2 52.4 23.7C53.6 23.4 54.1 22.4 54.1 22.4C54.5 19.5 52.5 18.6 52.5 18.6C52.3 18.7 52.2 19 51.9 19.2C51.5 19.5 50.9 19.6 50.7 19.6C50.5 19.6 50.1 19.6 49.6 19.4C49.1 19.2 48.9 18.8 48.9 18.8C46.6 19.5 46.5 22.5 46.5 22.5Z" fill="#686C77" stroke="#58595B" stroke-width="0.5669" stroke-miterlimit="10"/>
<path d="M52.7 11C53.2 9.20002 52.4 8.60003 51.6 8.10003C50.8 7.60003 50.7 6.40002 50.7 6.40002C50.7 6.40002 51.2 6.90003 49.5 8.10003C47.8 9.30003 48.2 11 48.2 11C48.2 11 48.6 11.6 49.1 11.8C49.7 12.1 50.3 12.2 50.5 12.2C50.7 12.2 51.4 12.2 51.8 12C52.2 11.7 52.6 11.3 52.7 11Z" fill="#686C77" stroke="#58595B" stroke-width="0.5669" stroke-miterlimit="10"/>
<path d="M47.1 25.2C47.1 25.2 47.9 25.6 48.4 25.6C48.9 25.6 49.5 25.7 49.5 25.7V34.4C49.5 34.4 47.9 33.7 47.7 33.6C47.5 33.5 47.2 33.3 47.2 33.3L47.1 25.2Z" fill="#AFBFD2" stroke="#58595B" stroke-width="0.5669" stroke-miterlimit="10"/>
<path d="M53.9 25.3C53.9 25.3 53.3 25.5 52.6 25.6C51.9 25.7 49.6 25.7 49.6 25.7V34.4C49.6 34.4 50.9 34.6 51.7 34.3C52.5 34 53.4 33.7 53.6 33.6C53.8 33.5 54.1 33.3 54.1 33.3L53.9 25.3Z" fill="#DFD8D2" stroke="#58595B" stroke-width="0.5669" stroke-miterlimit="10"/>
<path d="M48.9 13.3C48.9 13.3 49.9 13.5 50.5 13.5C51.1 13.5 52.5 13.1 52.5 13.1V18.8C52.5 18.8 52 19.6 51.6 19.6C51.2 19.7 50.3 19.7 49.9 19.5C49.5 19.3 48.9 18.7 48.9 18.7C48.9 18.7 48.9 13.1 48.9 13.3Z" fill="#AFBFD2" stroke="#58595B" stroke-width="0.5669" stroke-miterlimit="10"/>
<path d="M45.2 35.3C45.2 35.3 45.7 34 46 33.7C46.3 33.4 46.8 33 46.8 33C46.8 33 47.7 33.8 48.4 34C49.2 34.2 50.2 34.8 51.2 34.5C52.3 34.2 53.8 33.4 53.8 33.4V32.8C53.8 32.8 54.8 33.5 55.1 33.9C55.4 34.2 55.8 34.8 55.9 35.3C56.1 35.8 56.2 36.3 56.2 36.3C56.2 36.3 55.7 35.6 55.1 35.6C54.5 35.6 53.7 35.5 52.9 36.2C52.1 36.9 51.5 37.6 51.2 38.4C50.9 39.2 50.7 40.4 50.7 40.4C50.7 40.4 50.8 39 50.6 38.5C50.4 37.9 50.3 37 49.7 36.4C49.1 35.8 48.3 35.1 47.8 34.9C47.4 34.7 46.6 34.7 46.1 34.8C45.9 34.6 45.2 35.3 45.2 35.3Z" fill="#686C77" stroke="#58595B" stroke-width="0.5669" stroke-miterlimit="10"/>
<path d="M42.2 49.5C42.2 49.5 42.3 47.9 42.4 47.4C42.5 46.9 42.9 45.7 43.3 45.2C43.8 44.7 44.2 44.3 44.8 44.3C45.4 44.3 45.4 44.3 45.8 44.5C46.2 44.7 51.1 46.8 51.1 46.8C51.1 46.8 50.2 46.8 49.8 46.9C49.4 47 48.8 47.3 48.3 47.9C47.9 48.4 47.5 49.1 47.4 49.9C47.3 50.7 47.2 51.9 47.2 51.9L42.2 49.5Z" fill="#686C77" stroke="#58595B" stroke-width="0.5669" stroke-miterlimit="10"/>
<path d="M56.7 39.5L60 41C60 41 59 41.1 58.8 41.3C58.6 41.5 57.1 42.8 57 43.3C56.9 43.8 56.6 44.4 56.6 44.4L56.7 39.5Z" fill="#A7ABB4" stroke="#58595B" stroke-width="0.5669" stroke-miterlimit="10"/>
<path d="M47.2 58C47.1 57.6 47.2 51.7 47.2 51.7C47.2 51.7 47.4 49.7 47.6 49.2C47.8 48.6 48.4 47.7 48.9 47.4C49.4 47.1 50.5 46.8 50.7 46.8C50.9 46.8 51.1 46.9 51.1 46.9L51.2 56.1L48 58.5L47.2 58Z" fill="#DFD8D2" stroke="#58595B" stroke-width="0.5669" stroke-miterlimit="10"/>
<path d="M51.2 42.5L52.7 41.6C52.7 41.6 52.8 39.9 53.1 39.2C53.5 38.5 53.9 38 54.4 37.9C54.9 37.8 55.3 38.1 55.4 38.5C55.5 38.9 55.6 40.4 55.6 40.4L56.7 39.5L56.6 52L51.2 56.1V42.5Z" fill="#DFD8D2" stroke="#58595B" stroke-width="0.5669" stroke-miterlimit="10"/>
<path d="M56.7 43.7C56.7 43.7 57.8 42 58.3 41.6C58.8 41.2 59.6 40.8 60 41C60.3 41.2 60.9 41.6 60.9 41.9C61 42.2 61 48.7 61 48.7L56.6 52L56.7 43.7Z" fill="#DFD8D2" stroke="#58595B" stroke-width="0.5669" stroke-miterlimit="10"/>
<path d="M48.3 60.3L60.9 50.8V75.5L48.3 85.7V60.3Z" fill="#DFD8D2" stroke="#58595B" stroke-width="0.5669" stroke-miterlimit="10"/>
<path d="M47.2 51.9L48.6 50.6C48.6 50.6 48.7 49.6 48.9 49C49.2 48.4 49.6 48.2 50.2 48C50.6 47.9 51.1 47.9 51.1 47.9L51.2 46.7C51.2 46.7 50.4 46.5 50.2 46.7C50 46.9 49 47.1 48.5 47.7C48.1 48.3 47.7 49 47.6 49.4C47.5 49.9 47.2 51.9 47.2 51.9Z" fill="#B66629" stroke="#58595B" stroke-width="0.5669" stroke-miterlimit="10"/>
<path d="M56.6 45.9C56.6 45.9 57.3 44.4 57.6 43.9C57.7 43.7 58.1 42.7 58.8 42.5C59.7 42.2 60.1 43 60.1 43L60.9 42.6C60.9 42.6 61 41.9 60.7 41.6C60.5 41.3 60 40.8 59.3 41C58.6 41.2 57.9 41.7 57.5 42.2C57.1 42.7 56.7 43.4 56.6 43.6C56.6 43.9 56.6 45.9 56.6 45.9Z" fill="#B66629" stroke="#58595B" stroke-width="0.5669" stroke-miterlimit="10"/>
<path d="M48.3 63L60.9 53.8V55.6L48.3 64.8V63Z" fill="#B66629" stroke="#58595B" stroke-width="0.5669" stroke-miterlimit="10"/>
<path d="M51.6 78.8V65.7C51.6 65.7 51.4 64.1 52.5 63.1C53.2 62.4 55.1 61.4 55.2 64C55.3 66 55.1 76 55.1 76L51.6 78.8Z" fill="#263474" stroke="#58595B" stroke-width="0.5669" stroke-miterlimit="1"/>
<path d="M51.6 70.1L55.1 67.7V69.5L51.6 71.9V70.1Z" fill="#9A395C" stroke="#58595B" stroke-width="0.5669" stroke-miterlimit="10"/>
<path d="M52.9 65.9L54.1 64.9V76.7L52.9 77.7V65.9Z" fill="#9A395C" stroke="#58595B" stroke-width="0.5669" stroke-miterlimit="10"/>
<path d="M41.5 85.4C41.5 85.4 43.6 82.7 43.9 82.1C44.2 81.5 45.3 79.1 45.5 78.1C45.8 76.8 46.4 73.7 46.5 72.8C46.6 71.9 46.9 70.3 46.9 70.3V86.7L45.9 87.6L44.5 85L41.5 85.4Z" fill="#DFD8D2" stroke="#58595B" stroke-width="0.5669" stroke-miterlimit="10"/>
<path d="M60.9 59.1C60.9 59.1 62.2 62.1 62.5 62.6C62.8 63.1 64.3 65.1 64.8 65.6C65.3 66 67 66.8 67.8 66.8C68.6 66.8 69.5 66.6 70.1 66.3C70.7 66 71.2 65.4 71.2 65.4V67.3L60.9 75.5V59.1Z" fill="#CACED7" stroke="#58595B" stroke-width="0.5669" stroke-miterlimit="10"/>
<path d="M45.9 87.7L71.1 67.1L71 70.1L46.8 89.4L45.9 87.7Z" fill="#B66629" stroke="#58595B" stroke-width="0.5669" stroke-miterlimit="10"/>
<path d="M46.8 89.4L71 70.1L71.1 89.6L69.6 90.6L68.7 89.6L67 92.6L62.2 96.2L61.3 95.4L59.7 98.3L49.5 106.2L49.4 96.7L50.5 95.9L46.8 89.4Z" fill="#DFD8D2" stroke="#58595B" stroke-width="0.5669" stroke-miterlimit="10"/>
<path d="M51.6 104.6V94.1C51.6 94.1 51.5 92.2 53.1 90.9C54.7 89.6 56.2 91.1 56.3 92.1C56.3 93.1 56.3 101 56.3 101L51.6 104.6Z" fill="#893346" stroke="#58595B" stroke-width="0.5669" stroke-miterlimit="10"/>
<path d="M63.8 91.7L66.9 89.2V82.5C66.9 82.5 66.8 80.8 65.6 80.9C64.4 81 63.8 82.8 63.8 83.9C63.8 85 63.8 91.7 63.8 91.7Z" fill="#89AEC7" stroke="#58595B" stroke-width="0.5669" stroke-miterlimit="10"/>
<path d="M51.6 90.2V88.7L61.3 81.1V82.6L51.6 90.2Z" fill="#B66629" stroke="#58595B" stroke-width="0.5669" stroke-miterlimit="10"/>
<path d="M61.3 82.5V81L69.4 74.6V76.1L61.3 82.5Z" fill="#B66629" stroke="#58595B" stroke-width="0.5669" stroke-miterlimit="10"/>
<path d="M77.8 87L82.9 83.3L83 89.4L78.3 92.9V87.9L78.5 87.6L77.8 87Z" fill="#F9DD9F" stroke="#58595B" stroke-width="0.5669" stroke-miterlimit="10"/>
<path d="M49.3 110.5L54.9 106.3V105.4H55.1L57 104V104.7L61 101.6V99.6H61.3L63.8 97.8V103.9L49.4 115.4L49.3 110.5Z" fill="#DFD8D2" stroke="#58595B" stroke-width="0.5669" stroke-miterlimit="10"/>
<path d="M68.3 94L71 92L71.1 94.3L75.9 90.6L76 89.4H76.2L78.3 87.9V92.9L68.3 100.2V94Z" fill="#DFD8D2" stroke="#58595B" stroke-width="0.5669" stroke-miterlimit="10"/>
<path d="M76.6 85.9L81.8 82.3L82.9 83.3L77.8 87L76.6 85.9Z" fill="#A7ABB4" stroke="#58595B" stroke-width="0.5669" stroke-miterlimit="10"/>
<path d="M75.1 88.9L76 89.4L75.9 90.6L71.1 94.3L71 92.9L75 90.1L75.1 88.9Z" fill="#A7ABB4" stroke="#58595B" stroke-width="0.5669" stroke-miterlimit="10"/>
<path d="M67.2 93.2L68.3 94V100.2L67.2 99.5V93.2Z" fill="#A7ABB4" stroke="#58595B" stroke-width="0.5669" stroke-miterlimit="10"/>
<path d="M60.1 99.1L61 99.6V101.6L57 104.7V104L57.5 103.7L57 103.2L60.2 101L60.1 99.1Z" fill="#A7ABB4" stroke="#58595B" stroke-width="0.5669" stroke-miterlimit="10"/>
<path d="M49.4 109.1L53.9 105.8V104.9L54.9 105.4V106.3L49.4 110.7V109.1Z" fill="#A7ABB4" stroke="#58595B" stroke-width="0.5669" stroke-miterlimit="10"/>
<path d="M76.2 85.5L78.5 87.6L76.2 89.4V85.5Z" fill="#AF6466" stroke="#58595B" stroke-width="0.5669" stroke-miterlimit="10"/>
<path d="M68.5 93.9L68.7 89.6L71 92L68.5 93.9Z" fill="#AF6466" stroke="#58595B" stroke-width="0.5669" stroke-miterlimit="10"/>
<path d="M61.3 99.5V95.4L63.8 97.8L61.3 99.5Z" fill="#AF6466" stroke="#58595B" stroke-width="0.5669" stroke-miterlimit="10"/>
<path d="M55.1 105.4L55.2 101.6L57.5 103.7L55.1 105.4Z" fill="#AF6466" stroke="#58595B" stroke-width="0.5669" stroke-miterlimit="10"/>
<path d="M53.6 104.7L55.2 101.6L55.1 105.4L53.6 104.7Z" fill="#893346" stroke="#58595B" stroke-width="0.5669" stroke-miterlimit="10"/>
<path d="M59.6 98.8L61.3 95.4V99.5L59.6 98.8Z" fill="#893346" stroke="#58595B" stroke-width="0.5669" stroke-miterlimit="10"/>
<path d="M66.9 93L68.6 89.8L68.5 94L66.9 93Z" fill="#893346" stroke="#58595B" stroke-width="0.5669" stroke-miterlimit="10"/>
<path d="M74.7 88.7L76.1 85.7L76.2 89.4L74.7 88.7Z" fill="#893346" stroke="#58595B" stroke-width="0.5669" stroke-miterlimit="10"/>
<path d="M34.3 31.7C34.3 31.7 35.8 33.3 35.3 34.1C34.9 35 33.7 34.9 33.7 34.9C33.7 34.9 34.9 33.3 34.3 31.7Z" fill="#CACED7" stroke="#58595B" stroke-width="0.5669" stroke-miterlimit="10"/>
<path d="M52.6 19.8C52.6 19.8 54.1 21.4 53.6 22.2C53.2 23.1 52 23 52 23C52 23 53.2 21.4 52.6 19.8Z" fill="#CACED7" stroke="#58595B" stroke-width="0.5669" stroke-miterlimit="10"/>
<path d="M51 8.20001C51 8.20001 52.5 9.80001 52 10.6C51.6 11.5 50.4 11.4 50.4 11.4C50.4 11.4 51.6 9.80001 51 8.20001Z" fill="#CACED7" stroke="#58595B" stroke-width="0.5669" stroke-miterlimit="10"/>
<path d="M33 20.2C33 20.2 34.5 21.8 34 22.6C33.6 23.5 32.4 23.4 32.4 23.4C32.4 23.4 33.6 21.8 33 20.2Z" fill="#CACED7" stroke="#58595B" stroke-width="0.5669" stroke-miterlimit="10"/>
<path d="M92.6 26.5L117.5 38.7L125.5 43.7L110.6 55.1L105.9 53.1" stroke="#58595B" stroke-width="0.5669" stroke-miterlimit="1"/>
<path d="M110.6 54.7L116.8 38.3" stroke="#58595B" stroke-width="0.5669" stroke-miterlimit="1"/>
<path d="M87.4 39.9L92.6 26.4" stroke="#58595B" stroke-width="0.5669" stroke-miterlimit="1"/>
<path d="M106 65.2L111.1 67.6V55.1" stroke="#58595B" stroke-width="0.5669" stroke-miterlimit="1"/>
<path d="M124.4 44.6V57.6L111.1 67.6" stroke="#58595B" stroke-width="0.5669" stroke-miterlimit="1"/>
<path d="M67.5 57.3L83 66.4L80.4 57.3L72.5 52.6L67.5 57.3Z" stroke="#58595B" stroke-width="0.5669" stroke-miterlimit="1"/>
<path d="M72.5 52.6L81.5 49.2L80.4 57.3" stroke="#58595B" stroke-width="0.5669" stroke-miterlimit="1"/>
<path d="M81.5 49.2L98.2 36.3L106.4 48.2L83 66.4" stroke="#58595B" stroke-width="0.5669" stroke-miterlimit="1"/>
<path d="M72.5 52.6L91 37.1L98.2 36.3" stroke="#58595B" stroke-width="0.5669" stroke-miterlimit="1"/>
<path d="M68.1 57.6V64.1" stroke="#58595B" stroke-width="0.5669" stroke-miterlimit="1"/>
<path d="M83 66.4V89.4L106 71V48.2" stroke="#58595B" stroke-width="0.5669" stroke-miterlimit="1"/>
<path d="M76.6 85.9L77.8 87L83 83.2L81.8 82.3L76.6 85.9Z" stroke="#58595B" stroke-width="0.5669" stroke-miterlimit="1"/>
<path d="M71.1 80.8L78.3 84.9" stroke="#58595B" stroke-width="0.5669" stroke-miterlimit="1"/>
<path d="M97.6 28.9L101.6 27.5" stroke="#58595B" stroke-width="0.5669" stroke-miterlimit="1"/>
<path d="M101.6 27.5L109.1 30.9L111.2 35.6" stroke="#58595B" stroke-width="0.5669" stroke-miterlimit="1"/>
<path d="M104.8 32.5L109.1 30.9" stroke="#58595B" stroke-width="0.5669" stroke-miterlimit="1"/>
<path d="M80.3 40.6V31.7" stroke="#58595B" stroke-width="0.5669" stroke-miterlimit="1"/>
<path d="M70.4 26.5V36.3L79.4 41.3" stroke="#58595B" stroke-width="0.5669" stroke-miterlimit="1"/>
<path d="M90.4 24.2L92.3 22.8L93.5 21.9L82.3 16.7L69.6 26.4L80.3 31.7" stroke="#58595B" stroke-width="0.5669" stroke-miterlimit="1"/>
<path d="M80.3 31.7L82.4 30.1" stroke="#58595B" stroke-width="0.5669" stroke-miterlimit="1"/>
<path d="M92.6 24.4V22.8" stroke="#58595B" stroke-width="0.5669" stroke-miterlimit="1"/>
<path d="M44.5 85.1L14.6 108.1L3 100.5" stroke="#58595B" stroke-width="0.5669" stroke-miterlimit="1"/>
<path d="M3.1 95.9C5.9 97.6 14.2 103.2 14.2 103.2L36.2 86L44.4 85.1L50.4 95.8L15.3 123.3L3.2 115.7" stroke="#58595B" stroke-width="0.5669" stroke-miterlimit="1"/>
<path d="M14.6 108.1L14.1 103.2" stroke="#58595B" stroke-width="0.5669" stroke-miterlimit="1"/>
<path d="M14.6 108.1L15.4 123.4" stroke="#58595B" stroke-width="0.5669" stroke-miterlimit="1"/>
<path d="M15.4 123.6V128.4" stroke="#58595B" stroke-width="0.5669" stroke-miterlimit="1"/>
<path d="M35.2 128.4L49.4 117.1V96.7" stroke="#58595B" stroke-width="0.5669" stroke-miterlimit="1"/>
<path d="M21.4 97.6L8 89V69.6" stroke="#58595B" stroke-width="0.5669" stroke-miterlimit="1"/>
<path d="M14.1 62.4L6.7 68.7L35.2 86.8" stroke="#58595B" stroke-width="0.5669" stroke-miterlimit="1"/>
<path d="M40 81.9L19.5 69.6V52.6L41.5 66.4" stroke="#58595B" stroke-width="0.5669" stroke-miterlimit="1"/>
<path d="M19 52.3L24.5 38.9L29.2 41.8" stroke="#58595B" stroke-width="0.5669" stroke-miterlimit="1"/>
<path d="M6.7 68.7L16.7 64.2L14.3 62.4V44.5L17 48.1L19.9 50.1" stroke="#58595B" stroke-width="0.5669" stroke-miterlimit="1"/>
<path d="M19.5 65.5L16.7 64.2" stroke="#58595B" stroke-width="0.5669" stroke-miterlimit="1"/>
<path d="M17 62.4V48.1" stroke="#58595B" stroke-width="0.5669" stroke-miterlimit="1"/>
<path d="M14.3 44.5L20.3 39.7L23.3 41.8" stroke="#58595B" stroke-width="0.5669" stroke-miterlimit="1"/>
<path d="M35.6 45.2L41.5 48.4" stroke="#58595B" stroke-width="0.5669" stroke-miterlimit="1"/>
<path d="M41.5 56.4V79.8" stroke="#58595B" stroke-width="0.5669" stroke-miterlimit="1"/>
<path d="M45.9 87.7L71.1 67.3V89.4" stroke="#58595B" stroke-width="0.5669" stroke-miterlimit="1"/>
<path d="M46.9 89.4L71.1 69.9" stroke="#58595B" stroke-width="0.5669" stroke-miterlimit="1"/>
<path d="M60.9 50.9V75.5" stroke="#58595B" stroke-width="0.5669" stroke-miterlimit="1"/>
<path d="M48.3 60.3L40.2 56L41.5 54.9L48.1 58.4L60.9 48.7L62.4 49.8L48.3 60.3ZM48.3 60.3V85.7" stroke="#58595B" stroke-width="0.5669" stroke-miterlimit="1"/>
<path d="M41.5 85.4C41.5 85.4 43.4 83.3 44.6 80.8C45.9 78.3 46.9 70.1 46.9 70.1L44.1 68.7C44.1 68.7 43.6 77.4 41.2 80.5C38.8 83.7 36.7 86 36.7 86" stroke="#58595B" stroke-width="0.5669" stroke-miterlimit="1"/>
<path d="M83 89.4L68.3 100.2V94.2L71.1 91.9V98.1" stroke="#58595B" stroke-width="0.5669" stroke-miterlimit="1"/>
<path d="M76 94.6V89.4L74.7 88.7L76.2 85.5" stroke="#58595B" stroke-width="0.5669" stroke-miterlimit="1"/>
<path d="M76.2 89.4L78.5 87.7L76.2 85.5V89.4Z" stroke="#58595B" stroke-width="0.5669" stroke-miterlimit="1"/>
<path d="M54.9 111.1V105.4L53.6 104.7L55.1 101.6" stroke="#58595B" stroke-width="0.5669" stroke-miterlimit="1"/>
<path d="M55.1 105.4L57.4 103.7L55.1 101.6V105.4Z" stroke="#58595B" stroke-width="0.5669" stroke-miterlimit="1"/>
<path d="M68.3 93.9L66.9 93L68.6 89.6" stroke="#58595B" stroke-width="0.5669" stroke-miterlimit="1"/>
<path d="M68.6 93.9L71 92L68.6 89.6V93.9Z" stroke="#58595B" stroke-width="0.5669" stroke-miterlimit="1"/>
<path d="M61.3 95.4L59.6 98.8L61 99.6V106.1" stroke="#58595B" stroke-width="0.5669" stroke-miterlimit="1"/>
<path d="M61.3 99.6L63.8 97.8L61.3 95.4V99.6Z" stroke="#58595B" stroke-width="0.5669" stroke-miterlimit="1"/>
<path d="M78.3 92.9V87.9" stroke="#58595B" stroke-width="0.5669" stroke-miterlimit="1"/>
<path d="M57 104V109.4" stroke="#58595B" stroke-width="0.5669" stroke-miterlimit="1"/>
<path d="M49.4 115.6L63.8 104V97.8" stroke="#58595B" stroke-width="0.5669" stroke-miterlimit="1"/>
<path d="M42.6 49.9V55.6" stroke="#58595B" stroke-width="0.5669" stroke-miterlimit="1"/>
<path d="M47.2 51.4V58" stroke="#58595B" stroke-width="0.5669" stroke-miterlimit="1"/>
<path d="M51.2 42.5V56.1" stroke="#58595B" stroke-width="0.5669" stroke-miterlimit="1"/>
<path d="M56.6 39.5V52.2" stroke="#58595B" stroke-width="0.5669" stroke-miterlimit="1"/>
<path d="M44.9 44.3V39.5" stroke="#58595B" stroke-width="0.5669" stroke-miterlimit="1"/>
<path d="M47.2 25.4V33.4" stroke="#58595B" stroke-width="0.5669" stroke-miterlimit="1"/>
<path d="M53.9 25.1V33.4" stroke="#58595B" stroke-width="0.5669" stroke-miterlimit="1"/>
<path d="M60.9 58.8C60.9 58.8 62.8 66 67.1 66.8C69.7 67.3 71.2 65.6 71.2 65.6V67.4" stroke="#58595B" stroke-width="0.5669" stroke-miterlimit="10"/>
<path d="M61.2 59.5C61.2 59.5 64.1 64.4 67 64.4C67.9 64.4 69.4 63.8 69.4 63.8L71.2 65" stroke="#58595B" stroke-width="0.5669" stroke-miterlimit="10"/>
<path d="M45.5 44.3L51.2 46.8" stroke="#58595B" stroke-width="0.5669" stroke-miterlimit="10"/>
<path d="M56.6 39.5L60 41" stroke="#58595B" stroke-width="0.5669" stroke-miterlimit="10"/>
<path d="M41.9 49.4L47.2 51.9" stroke="#58595B" stroke-width="0.5669" stroke-miterlimit="10"/>
<path d="M45.5 44.3C45.5 44.3 42.3 43.7 42.2 49.5" stroke="#58595B" stroke-width="0.5669" stroke-miterlimit="10"/>
<path d="M51.2 46.8C51.2 46.8 47.3 46 47.3 52.1" stroke="#58595B" stroke-width="0.5669" stroke-miterlimit="10"/>
<path d="M56.6 43.9C56.6 43.9 59 39 61 41.9V48.9" stroke="#58595B" stroke-width="0.5669" stroke-miterlimit="1"/>
<path d="M57 39.2C57.1 35.4 55.1 35.3 54.4 35.5C53.5 35.7 52.3 36.7 51.8 37.5C50.9 39 50.9 40.6 50.9 40.6C50.9 40.6 51 39 50.7 37.7C50.4 36.4 48.6 34.1 46.4 34.6C44.4 35 44.2 39.2 44.2 39.2L46 40.3C46 40.3 46.1 37.3 46.9 37C48.3 36.5 49.3 38.4 49.3 41.4L51.3 42.5L52.8 41.6C52.8 41.6 52.9 38.3 54.3 38C55.4 37.7 55.7 38.2 55.7 40.5" stroke="#58595B" stroke-width="0.5669" stroke-miterlimit="1"/>
<path d="M55.5 40.4L57 39.2" stroke="#58595B" stroke-width="0.5669" stroke-miterlimit="1"/>
<path d="M45.1 35.6C45.1 35.6 45.9 33.2 47.3 32.8" stroke="#58595B" stroke-width="0.5669" stroke-miterlimit="10"/>
<path d="M56.2 36.1C56.2 36.1 55.9 34 53.9 32.8" stroke="#58595B" stroke-width="0.5669" stroke-miterlimit="10"/>
<path d="M47.2 33.4C47.2 33.4 49.5 34.7 51.1 34.5C52.7 34.3 53.8 33.4 53.8 33.4" stroke="#58595B" stroke-width="0.5669" stroke-miterlimit="10"/>
<path d="M54.3 22.3C54.3 22.3 53.7 24 51.1 24C48.6 24 46.8 22.5 46.8 22.5C46.8 22.5 45.5 23.5 46.2 24.4C46.9 25.3 48.7 25.8 51 25.8C52.4 25.8 54.8 25.3 55.4 24.3C55.4 23.9 55.4 22.8 54.3 22.3Z" stroke="#58595B" stroke-width="0.5669" stroke-miterlimit="1"/>
<path d="M52.7 11C52.7 11 52.3 12.2 50.7 12.2C49.2 12.2 48.1 11.2 48.1 11.2C48.1 11.2 47.3 11.9 47.7 12.6C48.1 13.3 49.2 13.6 50.5 13.6C51.4 13.6 52.8 13.2 53.1 12.5C53.4 12.1 53.4 11.2 52.7 11Z" stroke="#58595B" stroke-width="0.5669" stroke-miterlimit="1"/>
<path d="M46.5 22.8C46.5 22.8 46.6 19.6 48.9 18.9" stroke="#58595B" stroke-width="0.5669" stroke-miterlimit="1"/>
<path d="M52.4 18.6C52.4 18.6 54.6 19.6 54.1 22.5" stroke="#58595B" stroke-width="0.5669" stroke-miterlimit="1"/>
<path d="M48.9 13.4V19C48.9 19 51.1 20.7 52.4 18.8V13" stroke="#58595B" stroke-width="0.5669" stroke-miterlimit="1"/>
<path d="M48.1 11C48.1 11 47.8 9.30003 49.4 8.10003C51.1 6.90003 50.6 6.40002 50.6 6.40002C50.6 6.40002 50.8 7.60003 51.5 8.10003C52.3 8.60003 53.2 9.20002 52.6 11" stroke="#58595B" stroke-width="0.5669" stroke-miterlimit="1"/>
<path d="M50.7 2.5V6.6" stroke="#58595B" stroke-width="0.5669" stroke-miterlimit="1"/>
<path d="M29.1 37.3V45.2" stroke="#58595B" stroke-width="0.5669" stroke-miterlimit="1"/>
<path d="M35.8 36.9V45.2" stroke="#58595B" stroke-width="0.5669" stroke-miterlimit="1"/>
<path d="M29.1 45.2C29.1 45.2 31.4 46.5 33 46.3C34.6 46.1 35.7 45.2 35.7 45.2" stroke="#58595B" stroke-width="0.5669" stroke-miterlimit="10"/>
<path d="M36.2 34.2C36.2 34.2 35.6 35.9 33 35.9C30.5 35.9 28.7 34.4 28.7 34.4C28.7 34.4 27.4 35.4 28.1 36.3C28.8 37.2 30.6 37.7 32.9 37.7C34.3 37.7 36.7 37.2 37.3 36.2C37.3 35.7 37.3 34.6 36.2 34.2Z" stroke="#58595B" stroke-width="0.5669" stroke-miterlimit="1"/>
<path d="M34.6 22.8C34.6 22.8 34.2 24 32.6 24C31.1 24 30 23 30 23C30 23 29.2 23.7 29.6 24.4C30 25.1 31.1 25.4 32.4 25.4C33.3 25.4 34.7 25 35 24.3C35.3 23.9 35.3 23.1 34.6 22.8Z" stroke="#58595B" stroke-width="0.5669" stroke-miterlimit="1"/>
<path d="M28.4 34.6C28.4 34.6 28.5 31.4 30.8 30.7" stroke="#58595B" stroke-width="0.5669" stroke-miterlimit="1"/>
<path d="M34.3 30.5C34.3 30.5 36.5 31.5 36 34.4" stroke="#58595B" stroke-width="0.5669" stroke-miterlimit="1"/>
<path d="M32.6 7.70001V18.5" stroke="#58595B" stroke-width="0.5669" stroke-miterlimit="1"/>
<path d="M30.6 13.9L34.6 10.6" stroke="#58595B" stroke-width="0.5669" stroke-miterlimit="1"/>
<path d="M49.5 6L52 4" stroke="#58595B" stroke-width="0.5669" stroke-miterlimit="1"/>
<path d="M8.2 84.9L24.4 95.3" stroke="#58595B" stroke-width="0.5669" stroke-miterlimit="1"/>
<path d="M8 71.7L33.8 87.9" stroke="#58595B" stroke-width="0.5669" stroke-miterlimit="1"/>
<path d="M51.6 57.9V82.9" stroke="#58595B" stroke-width="0.5669" stroke-miterlimit="1"/>
<path d="M51.6 85.9V104.4" stroke="#58595B" stroke-width="0.5669" stroke-miterlimit="1"/>
<path d="M57.4 80.8V100.1" stroke="#58595B" stroke-width="0.5669" stroke-miterlimit="1"/>
<path d="M61.3 77.5V94.8" stroke="#58595B" stroke-width="0.5669" stroke-miterlimit="1"/>
<path d="M69.4 71.8V90.4" stroke="#58595B" stroke-width="0.5669" stroke-miterlimit="1"/>
<path d="M57.4 53.8V78.4" stroke="#58595B" stroke-width="0.5669" stroke-miterlimit="1"/>
<path d="M19 52L19.5 52.6" stroke="#58595B" stroke-width="0.5669" stroke-miterlimit="1"/>
<path d="M17 64.3V48.1" stroke="#58595B" stroke-width="0.5669" stroke-miterlimit="1"/>
<path d="M14.3 46.9L17 50.3L19.3 51.8" stroke="#58595B" stroke-width="0.5669" stroke-miterlimit="1"/>
<path d="M19.5 54.5L41.5 68.1" stroke="#58595B" stroke-width="0.5669" stroke-miterlimit="1"/>
<path d="M46.9 86.8V70.1" stroke="#58595B" stroke-width="0.5669" stroke-miterlimit="1"/>
<path d="M31.7 37.7V46.4" stroke="#58595B" stroke-width="0.5669" stroke-miterlimit="1"/>
<path d="M49.5 25.9V34.3" stroke="#58595B" stroke-width="0.5669" stroke-miterlimit="1"/>
<path d="M51.8 25.9V34.3" stroke="#58595B" stroke-width="0.5669" stroke-miterlimit="1"/>
<path d="M34.2 37.4V46.1" stroke="#58595B" stroke-width="0.5669" stroke-miterlimit="1"/>
<path d="M30 22.8C30 22.8 29.7 21.1 31.3 19.9C32.9 18.7 32.5 18.2 32.5 18.2C32.5 18.2 32.7 19.4 33.4 19.9C34.2 20.4 35.1 21 34.5 22.8" stroke="#58595B" stroke-width="0.5669" stroke-miterlimit="1"/>
<path d="M30.8 25.3V30.9C30.8 30.9 33 32.6 34.3 30.7V24.9" stroke="#58595B" stroke-width="0.5669" stroke-miterlimit="1"/>
<path d="M70.1 90.2L71.1 89.4" stroke="#58595B" stroke-width="0.5669" stroke-miterlimit="1"/>
<path d="M62.7 96L66.4 93.1" stroke="#58595B" stroke-width="0.5669" stroke-miterlimit="1"/>
<path d="M55.9 101.2L59 98.9" stroke="#58595B" stroke-width="0.5669" stroke-miterlimit="1"/>
<path d="M49.4 106.3L53.9 102.9" stroke="#58595B" stroke-width="0.5669" stroke-miterlimit="1"/>
<path d="M51.6 78.8V65.7C51.6 65.7 51.4 64.1 52.5 63.1C53.2 62.4 55.1 61.4 55.2 64C55.3 66 55.1 76 55.1 76L51.6 78.8Z" stroke="#58595B" stroke-width="0.5669" stroke-miterlimit="1"/>
<path d="M51.6 104.6V94.1C51.6 94.1 51.5 92.2 53.1 90.9C54.7 89.6 56.2 91.1 56.3 92.1C56.3 93.1 56.3 101 56.3 101L51.6 104.6Z" stroke="#58595B" stroke-width="0.5669" stroke-miterlimit="1"/>
<path d="M53.9 90.6V102.6" stroke="#58595B" stroke-width="0.5669" stroke-miterlimit="1"/>
<path d="M63.8 91.7L66.9 89.2V82.5C66.9 82.5 66.8 80.8 65.6 80.9C64.4 81 63.8 82.8 63.8 83.9C63.8 85 63.8 91.7 63.8 91.7Z" stroke="#58595B" stroke-width="0.5669" stroke-miterlimit="5"/>
<path d="M53.9 104.9V105.8L49.4 109.2" stroke="#58595B" stroke-width="0.5669" stroke-miterlimit="1"/>
<path d="M60.2 99.1V101L57 103.4" stroke="#58595B" stroke-width="0.5669" stroke-miterlimit="1"/>
<path d="M57 104.7L61 101.6L60.1 100.9" stroke="#58595B" stroke-width="0.5669" stroke-miterlimit="1"/>
<path d="M75.1 88.9V90L71.1 92.9" stroke="#58595B" stroke-width="0.5669" stroke-miterlimit="1"/>
<path d="M71.1 94.3L75.9 90.6L74.9 89.9" stroke="#58595B" stroke-width="0.5669" stroke-miterlimit="1"/>
<path d="M49.4 110.6L54.9 106.3L53.9 105.8" stroke="#58595B" stroke-width="0.5669" stroke-miterlimit="1"/>
<path d="M68.3 100.2L67.3 99.5V93.2" stroke="#58595B" stroke-width="0.5669" stroke-miterlimit="1"/>
<path d="M28.4 22.8L29.6 22.1" stroke="#58595B" stroke-width="0.5669" stroke-miterlimit="1"/>
<path d="M40.8 128.4C54.5 117.4 68.6 106.4 68.6 106.4C68.6 106.4 115.3 69 119.4 66.1C120.6 65.3 122.6 63.7 127.6 59.6" stroke="#58595B" stroke-width="0.5669" stroke-miterlimit="1"/>
<path d="M15 3H115V-3H15V3ZM127 15V115H133V15H127ZM115 127H15V133H115V127ZM3 115V15H-3V115H3ZM15 127C8.37259 127 3 121.627 3 115H-3C-3 124.941 5.05888 133 15 133V127ZM127 115C127 121.627 121.627 127 115 127V133C124.941 133 133 124.941 133 115H127ZM115 3C121.627 3 127 8.37258 127 15H133C133 5.05887 124.941 -3 115 -3V3ZM15 -3C5.05887 -3 -3 5.05888 -3 15H3C3 8.37259 8.37258 3 15 3V-3Z" fill="#2D6598"/>
</svg>
