<svg width="170" height="170" viewBox="0 0 170 170" fill="none" xmlns="http://www.w3.org/2000/svg">
<path d="M45 83V20H49V83H45ZM58.4634 38.9C58.1707 36.4063 56.9837 34.4703 54.9024 33.0922C52.8211 31.7141 50.2683 31.025 47.2439 31.025C45.0325 31.025 43.0976 31.3859 41.439 32.1078C39.7967 32.8297 38.5122 33.8223 37.5854 35.0855C36.6748 36.3488 36.2195 37.7844 36.2195 39.3922C36.2195 40.7375 36.5366 41.8941 37.1707 42.8621C37.8211 43.8137 38.6504 44.6094 39.6585 45.2492C40.6667 45.8727 41.7236 46.3895 42.8293 46.7996C43.935 47.1934 44.9512 47.5133 45.878 47.7594L50.9512 49.1375C52.252 49.482 53.6992 49.9578 55.2927 50.5648C56.9024 51.1719 58.439 52.0004 59.9024 53.0504C61.3821 54.084 62.6016 55.4129 63.561 57.0371C64.5203 58.6613 65 60.6547 65 63.0172C65 65.7406 64.2927 68.2016 62.8781 70.4C61.4797 72.5984 59.4309 74.3457 56.7317 75.6418C54.0488 76.9379 50.7886 77.5859 46.9512 77.5859C43.374 77.5859 40.2764 77.0035 37.6585 75.8387C35.0569 74.6738 33.0081 73.0496 31.5122 70.966C30.0325 68.8824 29.1951 66.4625 29 63.7062H35.2439C35.4065 65.6094 36.0406 67.1844 37.1463 68.4312C38.2683 69.6617 39.6829 70.5805 41.3902 71.1875C43.1138 71.7781 44.9675 72.0734 46.9512 72.0734C49.2602 72.0734 51.3333 71.6961 53.1707 70.9414C55.0081 70.1703 56.4634 69.1039 57.5366 67.7422C58.6098 66.3641 59.1463 64.7562 59.1463 62.9187C59.1463 61.2453 58.6829 59.8836 57.7561 58.8336C56.8293 57.7836 55.6098 56.9305 54.0976 56.2742C52.5854 55.618 50.9512 55.0437 49.1951 54.5516L43.0488 52.7797C39.1463 51.6477 36.0569 50.0316 33.7805 47.9316C31.5041 45.8316 30.3659 43.0836 30.3659 39.6875C30.3659 36.8656 31.122 34.4047 32.6341 32.3047C34.1626 30.1883 36.2114 28.5477 38.7805 27.3828C41.3659 26.2016 44.252 25.6109 47.439 25.6109C50.6585 25.6109 53.5203 26.1934 56.0244 27.3582C58.5285 28.5066 60.5122 30.0816 61.9756 32.0832C63.4553 34.0848 64.2358 36.357 64.3171 38.9H58.4634Z" fill="#2D6598" stroke="#2D6598" stroke-width="1.15275" stroke-miterlimit="10"/>
<path d="M139.511 44.9636H122.337V27.7856C122.337 26.2381 121.099 25 119.552 25H112.744C111.197 25 109.959 26.2381 109.959 27.7856V44.9636H92.785C91.2378 44.9636 90 46.2016 90 47.7492V54.5585C90 56.1061 91.2378 57.3441 92.785 57.3441H109.959V74.5221C109.959 76.0696 111.197 77.3077 112.744 77.3077H119.552C121.099 77.3077 122.337 76.0696 122.337 74.5221V57.3441H139.511C141.058 57.3441 142.296 56.1061 142.296 54.5585V47.7492C142.451 46.2016 141.058 44.9636 139.511 44.9636Z" fill="#2D6598"/>
<path d="M80 99L91.4783 102.58L101.019 134.354H143.354L152 108.398H93.118" stroke="#2D6598" stroke-width="5" stroke-miterlimit="10"/>
<path d="M96.9938 121.823H147.677" stroke="#2D6598" stroke-width="5" stroke-miterlimit="10"/>
<path d="M114.882 108.398L118.311 134.354" stroke="#2D6598" stroke-width="5" stroke-miterlimit="10"/>
<path d="M134.708 108.398L131.13 134.354" stroke="#2D6598" stroke-width="5" stroke-miterlimit="10"/>
<path d="M109.068 153C112.279 153 114.882 150.462 114.882 147.332C114.882 144.201 112.279 141.663 109.068 141.663C105.858 141.663 103.255 144.201 103.255 147.332C103.255 150.462 105.858 153 109.068 153Z" fill="#2D6598" stroke="#2D6598" stroke-width="0.5669" stroke-miterlimit="10"/>
<path d="M135.453 153C138.664 153 141.267 150.462 141.267 147.332C141.267 144.201 138.664 141.663 135.453 141.663C132.243 141.663 129.64 144.201 129.64 147.332C129.64 150.462 132.243 153 135.453 153Z" fill="#2D6598" stroke="#2D6598" stroke-width="0.5669" stroke-miterlimit="10"/>
<rect x="1.5" y="1.5" width="167" height="167" rx="13.5" stroke="#2D6598" stroke-width="3"/>
</svg>
