<svg width="170" height="170" viewBox="0 0 170 170" fill="none" xmlns="http://www.w3.org/2000/svg">
<path d="M40 156V93H44V156H40ZM53.4634 111.9C53.1707 109.406 51.9837 107.47 49.9024 106.092C47.8211 104.714 45.2683 104.025 42.2439 104.025C40.0325 104.025 38.0976 104.386 36.439 105.108C34.7967 105.83 33.5122 106.822 32.5854 108.086C31.6748 109.349 31.2195 110.784 31.2195 112.392C31.2195 113.737 31.5366 114.894 32.1707 115.862C32.8211 116.814 33.6504 117.609 34.6585 118.249C35.6667 118.873 36.7236 119.389 37.8293 119.8C38.935 120.193 39.9512 120.513 40.878 120.759L45.9512 122.137C47.252 122.482 48.6992 122.958 50.2927 123.565C51.9024 124.172 53.439 125 54.9024 126.05C56.3821 127.084 57.6016 128.413 58.561 130.037C59.5203 131.661 60 133.655 60 136.017C60 138.741 59.2927 141.202 57.8781 143.4C56.4797 145.598 54.4309 147.346 51.7317 148.642C49.0488 149.938 45.7886 150.586 41.9512 150.586C38.374 150.586 35.2764 150.004 32.6585 148.839C30.0569 147.674 28.0081 146.05 26.5122 143.966C25.0325 141.882 24.1951 139.462 24 136.706H30.2439C30.4065 138.609 31.0406 140.184 32.1463 141.431C33.2683 142.662 34.6829 143.58 36.3902 144.187C38.1138 144.778 39.9675 145.073 41.9512 145.073C44.2602 145.073 46.3333 144.696 48.1707 143.941C50.0081 143.17 51.4634 142.104 52.5366 140.742C53.6098 139.364 54.1463 137.756 54.1463 135.919C54.1463 134.245 53.6829 132.884 52.7561 131.834C51.8293 130.784 50.6098 129.93 49.0976 129.274C47.5854 128.618 45.9512 128.044 44.1951 127.552L38.0488 125.78C34.1463 124.648 31.0569 123.032 28.7805 120.932C26.5041 118.832 25.3659 116.084 25.3659 112.688C25.3659 109.866 26.122 107.405 27.6341 105.305C29.1626 103.188 31.2114 101.548 33.7805 100.383C36.3659 99.2016 39.252 98.6109 42.439 98.6109C45.6585 98.6109 48.5203 99.1934 51.0244 100.358C53.5285 101.507 55.5122 103.082 56.9756 105.083C58.4553 107.085 59.2358 109.357 59.3171 111.9H53.4634Z" fill="#2D6598" stroke="#2D6598" stroke-width="1.15275" stroke-miterlimit="10"/>
<path d="M149.54 41.5562H134.437V26.4497C134.437 25.0888 133.349 24 131.988 24H126.001C124.641 24 123.552 25.0888 123.552 26.4497V41.5562H108.449C107.089 41.5562 106 42.645 106 44.0059V49.9941C106 51.355 107.089 52.4438 108.449 52.4438H123.552V67.5503C123.552 68.9112 124.641 70 126.001 70H131.988C133.349 70 134.437 68.9112 134.437 67.5503V52.4438H149.54C150.901 52.4438 151.99 51.355 151.99 49.9941V44.0059C152.126 42.645 150.901 41.5562 149.54 41.5562Z" fill="#2D6598"/>
<path d="M78 102L89.4783 105.58L99.0186 137.354H141.354L150 111.398H91.118" stroke="#2D6598" stroke-width="5" stroke-miterlimit="10"/>
<path d="M94.9938 124.823H145.677" stroke="#2D6598" stroke-width="5" stroke-miterlimit="10"/>
<path d="M112.882 111.398L116.311 137.354" stroke="#2D6598" stroke-width="5" stroke-miterlimit="10"/>
<path d="M132.708 111.398L129.13 137.354" stroke="#2D6598" stroke-width="5" stroke-miterlimit="10"/>
<path d="M107.068 156C110.279 156 112.882 153.462 112.882 150.331C112.882 147.201 110.279 144.663 107.068 144.663C103.858 144.663 101.255 147.201 101.255 150.331C101.255 153.462 103.858 156 107.068 156Z" fill="#2D6598" stroke="#2D6598" stroke-width="0.5669" stroke-miterlimit="10"/>
<path d="M133.453 156C136.664 156 139.267 153.462 139.267 150.331C139.267 147.201 136.664 144.663 133.453 144.663C130.243 144.663 127.64 147.201 127.64 150.331C127.64 153.462 130.243 156 133.453 156Z" fill="#2D6598" stroke="#2D6598" stroke-width="0.5669" stroke-miterlimit="10"/>
<g clip-path="url(#clip0_173_6852)">
<path d="M23.7435 52.7393C23.7435 52.7393 17.7493 50.4939 17 50.1196C16.438 49.5583 19.4351 30.8466 20.1844 26.7301C21.683 19.0583 28.0519 11.0123 29.9251 23.362C30.2997 25.6074 30.6743 36.8344 30.487 49.184C30.487 63.2178 30.2997 78 30.2997 78H23.7435V52.7393Z" fill="#2D6598"/>
<path d="M82 20.9294L79.5648 17.9355L77.6916 21.3036L78.0663 38.1441L74.8818 38.3313L74.5072 21.3036L72.634 17.9355L70.3862 21.3036L70.5735 38.3313H67.2017L67.0144 21.3036L64.7666 17.9355L62.7061 21.3036L63.6427 49.184C63.6427 51.0552 67.5764 52.365 69.4496 52.5521V77.0644H76.5677V52.5521C79.3775 52.365 81.8127 51.0552 81.8127 49.7454C81.8127 46.1901 82 20.9294 82 20.9294Z" fill="#2D6598"/>
<path d="M47.1585 72.5737C59.0557 72.5737 68.7003 62.9396 68.7003 51.0553C68.7003 39.171 59.0557 29.5369 47.1585 29.5369C35.2613 29.5369 25.6167 39.171 25.6167 51.0553C25.6167 62.9396 35.2613 72.5737 47.1585 72.5737Z" stroke="#2D6598" stroke-width="3" stroke-miterlimit="10"/>
<path d="M47.1585 62.4693C53.4692 62.4693 58.585 57.3591 58.585 51.0552C58.585 44.7514 53.4692 39.6411 47.1585 39.6411C40.8478 39.6411 35.732 44.7514 35.732 51.0552C35.732 57.3591 40.8478 62.4693 47.1585 62.4693Z" stroke="#2D6598" stroke-width="2" stroke-miterlimit="10"/>
</g>
<rect x="1.5" y="1.5" width="167" height="167" rx="13.5" stroke="#2D6598" stroke-width="3"/>
<defs>
<clipPath id="clip0_173_6852">
<rect width="65" height="61" fill="white" transform="translate(17 17)"/>
</clipPath>
</defs>
</svg>
