<svg width="170" height="170" viewBox="0 0 170 170" fill="none" xmlns="http://www.w3.org/2000/svg">
<path d="M64.6 139.008L77.8077 128.808L92.9769 116.908V105.662L102.392 111.023L100.169 112.331L99.3846 111.808L97.6846 115.992L98.2077 116.254L98.0769 117.823L92.9769 121.485L87.8769 125.015V130.115L83.3 133.385L64.4692 147.508L64.6 139.008Z" fill="#BDA28D" stroke="#58595B" stroke-width="0.5669" stroke-miterlimit="10"/>
<path d="M46.0308 167.908C57.0154 159.146 57.5385 158.885 57.5385 158.885L64.7308 153.131V150.908L83.4308 136V133.385L88.0077 129.985L89.4461 130.9L108.538 116.777L138.223 92.977L138.746 85.1308L145.415 88.2693L162.808 75.1923V67.8693L166.992 70.0923V74.0154V77.1539L154.046 87.6154L124.362 111.285L87.3538 140.838L66.9538 157.054L53.4846 167.777" fill="#C4BBC2"/>
<path d="M46.0308 167.908C57.0154 159.146 57.5385 158.885 57.5385 158.885L64.7308 153.131V150.908L83.4308 136V133.385L88.0077 129.985L89.4461 130.9L108.538 116.777L138.223 92.977L138.746 85.1308L145.415 88.2693L162.808 75.1923V67.8693L166.992 70.0923V74.0154V77.1539L154.046 87.6154L124.362 111.285L87.3538 140.838L66.9538 157.054L53.4846 167.777" stroke="#58595B" stroke-width="0.5669" stroke-miterlimit="10"/>
<path d="M77.8077 55.3154L92.5846 43.4154L108.538 51.6539L110.5 56.4923L103.831 64.4692L96.6385 69.3077L88.4 68.1308L76.2385 65.2539L76.8923 54.7923L77.8077 55.3154Z" fill="#D1B39B" stroke="#58595B" stroke-width="0.5669" stroke-miterlimit="10"/>
<path d="M10.4615 95.7231L3.92308 100.431V127.238L18.4385 136.523L30.2077 126.585L11.2462 115.731L11.3769 95.7231H10.4615Z" fill="#679983" stroke="#58595B" stroke-width="0.5669" stroke-miterlimit="10"/>
<path d="M53.3539 167.908L75.8462 149.992L111.285 121.746L166.731 77.8077L166.862 107.1L90.6231 167.908" fill="#D8D0C7"/>
<path d="M53.3539 167.908L75.8462 149.992L111.285 121.746L166.731 77.8077L166.862 107.1L90.6231 167.908" stroke="#58595B" stroke-width="0.5669" stroke-miterlimit="10"/>
<path d="M92.0615 34.6539L105.008 41.4539V54.6616L92.0615 47.4693V34.6539Z" fill="#A8C0C7" stroke="#58595B" stroke-width="0.5669" stroke-miterlimit="10"/>
<path d="M105.008 41.4538L91.2769 34.3923L107.623 21.8384L122.138 28.7692L117.3 32.4307" fill="#A69FAC"/>
<path d="M105.008 41.4538L91.2769 34.3923L107.623 21.8384L122.138 28.7692L117.3 32.4307" stroke="#58595B" stroke-width="0.5669" stroke-miterlimit="10"/>
<path d="M121.092 29.5538V34.6538L114.815 50.8692L105.008 54.6615V42.1077L107.231 39.8846L121.092 29.5538Z" fill="#CADBDB" stroke="#58595B" stroke-width="0.5669" stroke-miterlimit="10"/>
<path d="M77.0231 85.9154C75.7154 84.6077 74.4077 83.1692 74.0154 81.4692C73.6231 79.6385 74.2769 77.5462 76.1077 76.8923C72.8385 75.1923 72.0538 70.0923 74.8 67.6077C75.3231 67.2154 75.8462 66.8231 76.1077 66.3C76.6308 65.1231 75.7154 63.8154 75.7154 62.5077C75.7154 60.0231 78.9846 59.1077 81.4692 59.3692C83.3 59.5 85.2615 60.1539 86.5692 61.4615C87.8769 62.9 88.1385 65.1231 86.8308 66.5615C88.5308 67.0846 90.2308 68 91.1462 69.4385C92.0615 70.8769 91.8 73.2308 90.2308 73.8846C91.6692 74.1462 92.7154 75.7154 92.5846 77.1539C92.4538 78.5923 91.5385 79.9 90.3615 80.8154L90.1 86.1769C89.5769 87.7462 88.2692 88.9231 86.5692 89.4462H84.8692L84.7385 88.6615L80.1615 84.8692L77.2846 86.3077L77.0231 85.9154Z" fill="#AEC894" stroke="#58595B" stroke-width="0.5669" stroke-miterlimit="10"/>
<path d="M91.8 84.7385C92.4538 86.1769 92.8462 88.1385 91.1462 88.7923C89.7077 89.3154 88.0077 88.1384 86.9615 87.2231C85.7846 86.1769 84.6077 85.1308 83.4308 83.9538C82.7769 83.4308 82.1231 82.7769 81.0769 82.6461C80.0308 82.5154 78.9846 82.9077 77.9385 82.6461C76.6308 82.3846 75.9769 81.0769 75.8461 79.9C75.7154 78.9846 75.8461 78.0692 76.3692 77.4154C76.8923 76.6308 78.0692 76.1077 79.1154 76.3692C75.8461 73.6231 75.1923 69.0461 77.8077 66.0384C78.0692 65.6461 78.4615 65.2538 79.1154 64.9923C80.1615 64.6 81.6 65.1231 82.3846 65.9077C83.1692 66.6923 83.4308 67.7384 83.5615 68.6538C84.2154 72.1846 84.3461 75.7154 83.8231 79.1154C85.2615 78.4615 87.0923 77.9384 88.5308 78.7231C89.1846 79.1154 89.5769 79.7692 89.8385 80.4231C90.4923 81.8615 91.1462 83.3 91.8 84.7385Z" fill="#79AA7D" stroke="#58595B" stroke-width="0.5669" stroke-miterlimit="10"/>
<path d="M78.3308 69.8308C80.9461 71.9231 80.5538 75.1923 81.0769 77.9384C81.2077 78.5923 81.3385 79.2461 81.8615 79.7692C82.7769 80.8154 84.4769 81.2077 84.8692 82.3846C85 82.9077 84.8692 83.5615 85.3923 83.8231C85.7846 84.0846 86.4385 84.0846 86.9615 84.0846C88.4 84.2154 89.7077 85.1308 89.8385 86.3077C89.9692 87.4846 88.9231 88.5308 87.6154 88.6615C85.5231 88.7923 83.8231 87.2231 82.5154 85.9154C81.2077 84.6077 79.1154 83.1692 77.1538 83.6923C76.2385 82.6461 75.3231 81.6 75.1923 80.2923C75.0615 79.1154 75.8461 77.6769 77.2846 77.5461C77.6769 77.5461 78.0692 77.5461 78.3308 77.2846C78.4615 77.1538 78.4615 76.8923 78.4615 76.7615C78.3308 75.3231 77.8077 73.7538 76.8923 72.4461C76.5 71.9231 76.1077 71.2692 75.9769 70.6154C75.9769 69.9615 76.5 69.3077 77.2846 69.3077C77.6769 69.4384 77.9385 69.5692 78.3308 69.8308Z" fill="#4C8574" stroke="#58595B" stroke-width="0.5669" stroke-miterlimit="10"/>
<path d="M24.3231 57.6692C24.5846 57.1462 25.1077 57.0154 25.5 56.6231C26.1538 55.9692 26.1538 55.0539 25.8923 54.2692C25.6308 53.4846 25.2385 52.7 24.9769 51.9154C24.3231 50.2154 24.4538 48.3846 25.2385 46.6846C26.8077 52.0462 28.9 57.2769 31.2538 62.2462C31.3846 62.6385 31.6462 63.0308 32.0385 63.4231C32.3 63.6846 32.6923 63.8154 33.0846 63.9462C34.3923 64.7308 34.5231 66.4308 35.0462 67.8692C35.0462 68 35.1769 68.2616 35.3077 68.3923C35.8308 68.7846 36.3538 68.1308 37.0077 67.8692C37.7923 67.6077 38.5769 68.2616 38.8385 68.9154C39.1 69.7 38.9692 70.4846 38.8385 71.2692C38.8385 71.5308 38.7077 71.7923 38.4462 72.0539C38.0538 72.3154 37.6615 72.1846 37.2692 72.0539C36.0923 71.6616 34.7846 71.1385 33.4769 71.4C32.1692 71.6616 30.9923 72.8385 31.3846 74.1462C29.6846 74.6692 27.8538 74.6692 26.2846 74.0154C27.3308 72.7077 28.3769 71.0077 27.8538 69.3077C27.7231 68.7846 27.3308 68.3923 27.2 67.8692C26.0231 65.3846 26.9385 62.1154 25.3692 59.7616C24.7154 59.1077 24.0615 58.4539 24.3231 57.6692Z" fill="#4C8574" stroke="#58595B" stroke-width="0.5669" stroke-miterlimit="10"/>
<path d="M46.4231 34.2615C47.0769 33.3462 48.6461 32.5615 49.0385 33.6077C49.5615 31.2539 51 29.0308 52.9615 27.7231C53.8769 28.5077 54.1385 29.9462 53.6154 31.1231C54.9231 30.4692 56.4923 30.9923 57.2769 32.1692C58.0615 33.3462 57.6692 35.0462 56.4923 35.8308C57.8 35.0462 59.6308 35.8308 60.1538 37.1385C60.6769 38.4462 60.0231 40.1462 58.8461 40.9308C60.4154 40.2769 62.2461 40.6692 63.2923 41.9769C64.3385 43.1538 64.6 45.1154 63.6846 46.5539C65.1231 46.6846 66.0385 48.3846 65.6461 49.6923C65.2538 51.1308 63.1615 53.0923 63.1615 53.0923C62.3769 53.2231 60.9385 53.0923 58.7154 53.3539C58.7154 54.7923 58.7154 56.7539 58.7154 56.7539C58.7154 56.7539 59.2385 59.8923 57.9308 60.6769C57.5385 60.9385 56.3615 61.0692 56.1 61.3308C55.7077 61.7231 55.5769 62.2462 55.3154 62.6385C54.0077 65.1231 50.8692 65.3846 48.2538 65.3846C47.6 64.3385 46.4231 63.9462 45.2461 63.5538C44.0692 63.2923 42.7615 63.0308 41.9769 62.1154C41.1923 61.2 41.1923 59.5 42.3692 59.1077C41.0615 58.4539 40.2769 57.0154 40.2769 55.5769C40.4077 54.1385 41.3231 52.8308 42.7615 52.3077C40.1461 50.3462 40.2769 45.7692 42.8923 43.9385C43.1538 40.4077 44.4615 37.0077 46.4231 34.2615Z" fill="#AEC894" stroke="#58595B" stroke-width="0.5669" stroke-miterlimit="10"/>
<path d="M76.2385 73.2307C77.1539 70.7461 78.8539 71.0077 80.4231 71.5307C80.0308 69.7 78.8539 68 78.0692 66.3C77.2846 64.6 76.7615 62.5077 77.6769 60.6769C78.5923 58.9769 81.3385 58.1923 82.3846 59.7615C81.7308 58.3231 81.4692 56.8846 81.8615 55.3154C82.2539 53.7461 83.4308 52.5692 84.8692 52.4384C86.3077 52.3077 88.0077 53.6154 87.8769 55.0538C88.4 53.8769 88.9231 52.5692 89.9692 51.6538C91.0154 50.7384 92.8462 50.8692 93.5 52.0461C93.7615 52.4384 93.7616 53.0923 93.7616 53.4846C93.7616 54.9231 93.3692 56.3615 92.5846 57.6692C94.1539 56.6231 96.2462 58.3231 96.5077 60.2846C96.6385 62.1154 95.5923 63.8154 94.5462 65.3846C95.2 64.2077 97.2923 64.4692 97.9462 65.7769C98.6 66.9538 98.3385 68.5231 97.8154 69.8307C97.1616 71.4 96.2462 72.8384 95.2 74.1461C95.7231 72.9692 97.1616 71.7923 98.3385 72.4461C99.2539 73.1 99.2539 74.5384 98.8615 75.5846C98.2077 77.6769 97.0308 79.6384 95.3308 81.2077C95.8539 80.9461 96.5077 81.4692 96.5077 82.1231C96.5077 82.7769 96.1154 83.3 95.7231 83.6923C94.5462 85 93.3692 86.1769 91.6692 86.5692C90.3615 86.8307 89.0539 86.5692 87.7462 86.3077C85.1308 85.7846 82.3846 85.1307 79.7692 84.6077C78.2 84.3461 76.5 83.8231 75.8462 82.5154C74.9308 80.8154 76.7615 78.4615 78.5923 78.7231C77.1539 77.8077 75.9769 76.3692 75.4539 74.6692C75.3231 74.4077 75.1923 74.0154 75.3231 73.7538C75.4539 73.6231 76.1077 73.6231 76.2385 73.2307Z" fill="#AEC894" stroke="#58595B" stroke-width="0.5669" stroke-miterlimit="10"/>
<path d="M24.7154 74.8C26.6769 75.3231 29.4231 75.8462 31.5154 75.7154C32.4308 75.7154 33.2154 75.5846 34 75.0615C34.6538 74.5385 34.3923 74.4077 34 73.7538C33.6077 73.1 34.6538 72.3154 35.5692 73.3615C38.7077 75.0615 40.2769 74.0154 42.5 71.4C43.4154 70.3538 43.2846 68.2615 41.9769 68.5231C43.5462 67.6077 45.2462 66.4308 45.6385 64.7308C46.0308 63.0308 44.2 61.0692 42.5 61.7231C43.9385 61.5923 45.1154 60.1538 44.9846 58.8462C44.8538 57.5385 43.4154 56.3615 41.9769 56.4923C43.2846 55.8385 44.5923 55.1846 45.2462 53.8769C45.7692 52.7 45.1154 50.8692 43.6769 50.7385C45.3769 50.3462 46.2923 48.1231 45.2462 46.8154C44.3308 45.5077 41.8462 45.2462 40.6692 46.5538C41.8462 45.3769 42.5 43.4154 41.7154 41.9769C40.9308 40.5385 38.3154 40.1462 37.2692 41.4538C38.3154 40.4077 39.2308 39.2308 39.7538 37.9231C40.1462 36.6154 39.8846 34.9154 38.7077 34C37.5308 33.0846 35.7 34.6538 34.9154 34.9154C34.5231 34 36.4846 32.6923 36.6154 31.2538C36.7462 29.8154 35.9615 28.3769 34.5231 27.8538C33.0846 27.4615 31.7769 27.0692 32.0385 28.3769C32.5615 28.9 31.5154 29.4231 31.6462 29.1615C30.4692 28.1154 29.1615 28.9 27.8538 29.6846C26.2846 30.7308 26.4154 32.4308 27.3308 34C22.8846 35.8308 22.8846 38.3154 25.1077 41.8462C25.3692 42.5 24.7154 43.1538 24.7154 43.1538C23.1462 43.8077 23.5385 44.8538 23.9308 46.8154C24.3231 48.6462 24.9769 52.0462 25.2385 53.8769C24.7154 54.0077 23.4077 54.2692 22.8846 54.2692C23.0154 54.9231 24.4538 62.1154 25.5 66.3C25.3692 66.3 24.7154 66.4308 24.7154 66.4308C24.7154 68.5231 24.7154 73.2308 24.7154 74.8Z" fill="#AEC894" stroke="#58595B" stroke-width="0.5669" stroke-miterlimit="10"/>
<path d="M24.4538 56.2308C24.5846 55.8384 24.9769 55.7077 25.2385 55.3154C26.6769 53.8769 25.3692 51.3923 25.1077 49.4307C24.9769 48.1231 25.3692 46.6846 26.2846 45.6384C26.8077 45.1154 27.3308 44.5923 27.5923 43.8077C27.7231 43.2846 27.5923 42.7615 27.5923 42.1077C27.3308 39.8846 27.8538 37.6615 28.9 35.8307C32.6923 37.9231 34 43.5461 31.3846 47.0769C33.2154 47.3384 34.5231 49.6923 33.7385 51.3923C34.6538 50.7384 35.8308 51.6538 36.2231 52.7C37.2692 55.1846 36.0923 58.0615 35.0462 60.5461C35.5692 59.7615 36.6154 58.7154 37.5308 59.3692C37.7923 59.5 37.9231 59.8923 38.0538 60.1538C38.9692 62.2461 38.9692 64.7308 38.1846 66.8231C38.4462 68.3923 37.9231 70.0923 37.1385 71.4C37.0077 71.6615 36.7462 71.9231 36.3538 72.0538C36.0923 72.0538 35.8308 71.9231 35.5692 71.7923C34.7846 71.4 34.1308 71.0077 33.3462 70.4846C33.0846 72.0538 31.9077 73.3615 30.3385 73.8846C28.7692 74.2769 27.0692 73.7538 26.0231 72.5769C25.7615 70.4846 25.5 68.3923 25.3692 66.1692C25.3692 66.0384 25.3692 65.9077 25.3692 65.7769C25.1077 62.9 24.7154 60.0231 24.4538 57.0154C24.3231 57.0154 24.3231 56.6231 24.4538 56.2308Z" fill="#79AA7D" stroke="#58595B" stroke-width="0.5669" stroke-miterlimit="10"/>
<path d="M87.0923 84.8692C86.5692 85 85.9154 84.7384 85.3923 84.4769C83.4308 83.4308 81.4692 82.5154 79.5077 81.4692C78.9846 81.2077 78.4615 80.9461 78.2 80.4231C77.8077 79.7692 78.0692 78.8538 78.4615 78.3308C78.9846 77.6769 79.6385 77.2846 80.2923 77.0231C79.3769 76.7615 78.4615 76.3692 77.9385 75.7154C77.4154 74.9308 77.6769 73.6231 78.5923 73.4923C79.5077 73.3615 80.4231 74.4077 81.0769 73.7538C81.4692 73.3615 81.3385 72.7077 81.0769 72.3154C80.1615 70.0923 78.5923 67.8692 79.2462 65.6461C79.3769 65.2538 79.6385 64.7308 80.0308 64.4692C81.0769 63.8154 82.2539 64.8615 83.0385 65.7769C83.0385 62.9 83.9539 60.0231 85.7846 57.8C89.5769 61.2 90.2308 66.9538 89.5769 72.0538C89.5769 72.4461 89.4462 72.8384 89.5769 73.2308C89.7077 73.6231 90.1 73.8846 90.3615 74.2769C91.2769 75.4538 90.7539 77.0231 90.3615 78.3308C90.8846 77.5461 91.4077 76.8923 92.1923 76.3692C92.4539 76.2385 92.7154 76.1077 92.9769 76.1077C93.6308 76.1077 93.7616 77.1538 93.7616 77.8077C93.6308 79.1154 93.5 80.4231 93.3692 81.7308C93.2385 82.6461 93.1077 83.6923 92.3231 84.2154C91.9308 84.4769 91.2769 84.4769 90.7539 84.4769C88.7923 84.4769 86.7 84.3461 84.7385 84.3461C83.4308 84.3461 81.8615 83.9538 81.6 82.7769" fill="#79AA7D"/>
<path d="M87.0923 84.8692C86.5692 85 85.9154 84.7384 85.3923 84.4769C83.4308 83.4308 81.4692 82.5154 79.5077 81.4692C78.9846 81.2077 78.4615 80.9461 78.2 80.4231C77.8077 79.7692 78.0692 78.8538 78.4615 78.3308C78.9846 77.6769 79.6385 77.2846 80.2923 77.0231C79.3769 76.7615 78.4615 76.3692 77.9385 75.7154C77.4154 74.9308 77.6769 73.6231 78.5923 73.4923C79.5077 73.3615 80.4231 74.4077 81.0769 73.7538C81.4692 73.3615 81.3385 72.7077 81.0769 72.3154C80.1615 70.0923 78.5923 67.8692 79.2462 65.6461C79.3769 65.2538 79.6385 64.7308 80.0308 64.4692C81.0769 63.8154 82.2539 64.8615 83.0385 65.7769C83.0385 62.9 83.9539 60.0231 85.7846 57.8C89.5769 61.2 90.2308 66.9538 89.5769 72.0538C89.5769 72.4461 89.4462 72.8384 89.5769 73.2308C89.7077 73.6231 90.1 73.8846 90.3615 74.2769C91.2769 75.4538 90.7539 77.0231 90.3615 78.3308C90.8846 77.5461 91.4077 76.8923 92.1923 76.3692C92.4539 76.2385 92.7154 76.1077 92.9769 76.1077C93.6308 76.1077 93.7616 77.1538 93.7616 77.8077C93.6308 79.1154 93.5 80.4231 93.3692 81.7308C93.2385 82.6461 93.1077 83.6923 92.3231 84.2154C91.9308 84.4769 91.2769 84.4769 90.7539 84.4769C88.7923 84.4769 86.7 84.3461 84.7385 84.3461C83.4308 84.3461 81.8615 83.9538 81.6 82.7769" stroke="#58595B" stroke-width="0.5669" stroke-miterlimit="10"/>
<path d="M57.8 46.9462C57.9308 47.6 57.6692 48.6462 58.3231 48.7769C58.5846 48.7769 58.9769 48.6462 59.2385 48.5154C60.0231 48.3846 60.6769 49.4308 60.4154 50.2154C60.1538 51 59.3692 51.3923 58.5846 51.6539C57.8 51.9154 57.0154 52.1769 56.4923 52.7C56.2308 52.9615 56.1 53.2231 56.1 53.6154C56.1 54.0077 56.3615 54.2692 56.6231 54.5308C57.8 56.3615 57.4077 58.8462 55.8385 60.2846C55.3154 60.6769 54.7923 61.0692 54.4 61.5923C54.0077 62.1154 54.0077 62.9 53.6154 63.4231C52.7 64.6 50.8692 64.3385 49.4308 63.8154C47.3385 63.1615 45.3769 62.5077 43.2846 61.8539C42.7615 61.7231 42.2385 61.3308 42.3692 60.8077C42.5 60.5462 42.6308 60.4154 42.7615 60.4154C43.6769 59.8923 44.4615 59.2385 45.3769 58.7154C44.4615 58.0615 43.5462 57.4077 43.1538 56.4923C42.7615 55.4462 43.1538 54.1385 44.2 53.8769C43.6769 53.3539 43.0231 52.7 43.4154 52.0462C43.5462 51.6539 44.0692 51.5231 44.3308 51.2615C45.2462 50.4769 45.1154 49.0385 44.5923 47.9923C44.0692 46.9462 43.4154 45.7692 43.5462 44.5923C43.6769 43.4154 45.3769 42.5 46.0308 43.4154C46.2923 41.4539 47.0769 39.6231 48.3846 38.0539C48.6462 37.7923 48.9077 37.5308 49.1692 37.5308C49.5615 37.4 49.8231 37.6615 50.2154 37.6615C51 37.7923 51.9154 37.1385 51.9154 36.2231C54.9231 38.0539 56.4923 41.9769 55.7077 45.3769C56.4923 45.3769 57.6692 46.0308 57.8 46.9462Z" fill="#79AA7D" stroke="#58595B" stroke-width="0.5669" stroke-miterlimit="10"/>
<path d="M24.0615 48.1231C25.5 46.5539 28.2462 47.0769 29.4231 48.7769C30.6 50.4769 30.0769 53.0923 28.6385 54.5308C30.0769 54.4 31.6462 54.2692 32.8231 55.1846C34 56.1 34.3923 57.9308 34 59.3692C33.6077 60.8077 32.6923 62.1154 31.6462 63.2923C33.3462 63.0308 34.7846 64.8616 34.5231 66.6923C34.3923 68.3923 33.2154 69.8308 32.0385 71.1385C33.2154 71.2692 33.0846 73.1 32.5615 74.1462C30.7308 77.2846 27.2 79.2462 23.5385 79.6385C19.8769 80.0308 16.2154 79.3769 12.8154 78.0692C11.9 77.6769 10.8538 77.1539 10.4615 76.2385C10.0692 75.3231 10.8538 74.0154 11.7692 74.1462C9.93847 74.5385 7.71539 73.6231 6.93077 71.9231C6.14616 70.0923 7.71539 67.6077 9.67693 67.8692C9.02308 66.0385 8.36923 64.0769 8.5 62.1154C8.63077 60.1539 9.8077 58.0616 11.6385 57.5385C10.8538 55.3154 10.7231 52.9616 11.2462 50.6077C11.6385 49.0385 12.9462 47.2077 14.3846 47.8616C14.3846 44.3308 15.9538 40.8 18.7 38.4462C19.4846 39.1 20.0077 40.0154 20.5308 40.8C21.1846 39.4923 23.1462 39.2308 24.1923 40.1462C25.2385 41.0616 25.7615 42.6308 25.6308 43.9385C25.3692 45.5077 24.7154 46.8154 24.0615 48.1231Z" fill="#AEC894" stroke="#58595B" stroke-width="0.5669" stroke-miterlimit="10"/>
<path d="M28.9 70.7461C29.4231 70.4846 30.0769 71.1385 30.0769 71.7923C30.0769 72.4461 29.6846 72.9692 29.2923 73.4923C27.7231 75.3231 25.8923 77.0231 23.8 78.2C22.3615 78.9846 20.6615 79.6385 19.0923 79.1154C18.7 78.9846 18.1769 78.7231 17.7846 78.3308C15.9538 77.1538 14.2538 75.9769 12.4231 74.6692C11.9 74.2769 11.3769 73.8846 11.1154 73.3615C10.8538 72.8384 10.8538 72.0538 11.3769 71.6615C10.7231 72.3154 9.54615 71.9231 9.15384 71.1385C8.76154 70.3538 9.02308 69.3077 9.67692 68.6538C10.2 68 10.9846 67.6077 11.7692 67.6077C11.7692 66.6923 11.1154 65.7769 10.5923 64.9923C10.0692 64.2077 9.41538 63.2923 9.54615 62.3769C9.67692 61.4615 11.1154 60.8077 11.6385 61.5923C11.2462 59.8923 10.8538 57.8 12.1615 56.6231C12.9462 55.8384 14.3846 55.5769 14.9077 54.4C15.3 53.4846 14.7769 52.4384 14.5154 51.3923C14.2538 50.3461 14.6462 49.0385 15.6923 49.0385C15.9538 49.0385 16.3462 49.1692 16.6077 49.0385C17.5231 48.6461 16.3462 46.6846 17.3923 46.5538C18.9615 47.3384 19.8769 49.1692 20.4 50.8692C21.7077 54.7923 22.3615 58.9769 22.3615 63.1615C22.8846 62.2461 23.6692 61.0692 24.7154 61.3308C26.1538 61.7231 25.6308 64.0769 26.4154 65.3846C27.5923 64.9923 28.9 65.9077 29.2923 67.0846C29.4231 68.3923 29.1615 69.5692 28.9 70.7461Z" fill="#79AA7D" stroke="#58595B" stroke-width="0.5669" stroke-miterlimit="10"/>
<path d="M14.6462 73.4923C13.6 71.2692 10.4615 71.0077 7.97692 71.2692C9.67692 70.6154 11.6385 69.3077 11.2462 67.6077C10.9846 66.6923 10.2 66.0385 9.67692 65.3846C9.15384 64.7308 8.76154 63.5538 9.41538 62.9C10.2 62.1154 11.5077 62.7692 12.5538 62.3769C13.2077 62.1154 13.6 61.4615 14.3846 61.3308C15.4308 61.0692 16.2154 62.3769 16.6077 63.4231C17.5231 65.9077 18.4385 68.3923 19.4846 70.8769C21.5769 70.4846 23.6692 70.0923 25.8923 69.7C26.1538 69.7 26.5462 69.5692 26.6769 69.8308C26.9385 69.9615 27.0692 70.2231 27.2 70.4846C27.9846 72.7077 28.7692 75.3231 27.4615 77.2846C26.2846 79.1154 23.5385 79.5077 21.8385 78.0692C21.7077 78.8539 20.5308 78.5923 19.8769 78.2C17.7846 76.8923 15.3 76.1077 12.8154 75.9769C12.9462 74.9308 13.7308 74.0154 14.6462 73.4923Z" fill="#4C8574" stroke="#58595B" stroke-width="0.5669" stroke-miterlimit="10"/>
<path d="M46.0308 48.9077C46.6846 49.1692 47.3385 49.0384 47.8615 49.1692C49.0385 49.4307 49.9538 50.6077 50.4769 51.7846C50.8692 52.9615 50.8692 54.2692 50.8692 55.5769C52.0462 55.5769 52.4385 53.3538 53.6154 53.6154C53.8769 53.6154 54.1385 53.8769 54.2692 54.0077C55.5769 55.3154 55.8385 57.5384 55.1846 59.3692C54.5308 61.2 53.4846 62.7692 52.4385 64.3384C52.0462 64.8615 51.6538 65.2538 51.1308 65.5154C50.6077 65.7769 49.8231 65.3846 49.6923 64.8615C47.3385 63.6846 44.9846 62.3769 42.6308 61.0692C42.7615 60.0231 43.2846 58.9769 43.2846 57.9307C43.2846 56.8846 42.3692 55.5769 41.3231 55.9692C41.3231 55.1846 41.7154 54.5308 42.3692 54.1384C41.9769 52.4384 41.8461 50.7384 42.1077 49.0384C42.1077 48.7769 42.2385 48.3846 42.3692 48.1231C42.7615 47.6 43.6769 47.6 44.3308 47.9923C44.8538 48.1231 45.3769 48.6461 46.0308 48.9077Z" fill="#4C8574" stroke="#58595B" stroke-width="0.5669" stroke-miterlimit="10"/>
<path d="M89.0538 79.7693C89.3154 80.0308 89.3154 80.4231 89.5769 80.6846C90.2308 81.2077 91.2769 80.0308 91.9308 80.4231C92.0615 80.5539 92.1923 80.6846 92.3231 80.8154C93.1077 82.5154 91.6692 84.6077 89.9692 85.2616C88.1385 85.9154 86.1769 85.5231 84.3461 85C82.1231 84.4769 80.0308 83.9539 77.8077 83.5616C77.2846 83.4308 76.6308 83.1693 76.3692 82.6462C76.1077 81.9923 76.7615 81.3385 77.4154 80.9462C78.0692 80.5539 78.8538 80.2923 79.1154 79.6385C79.3769 78.7231 78.5923 77.9385 77.9385 77.2846C77.2846 76.6308 76.6308 75.5846 77.2846 74.8C78.0692 73.8846 79.5077 74.9308 80.6846 74.5385C81.7308 74.1462 81.8615 72.8385 81.7308 71.7923C81.4692 70.7462 81.0769 69.7 81.3385 68.6539C83.1692 69.3077 84.3461 71.0077 85 72.8385C85.6538 74.6693 85.9154 76.6308 86.4385 78.4616C86.5692 78.9846 86.8308 79.5077 87.3538 79.6385C87.8769 79.6385 88.6615 79.3769 89.0538 79.7693Z" fill="#4C8574" stroke="#58595B" stroke-width="0.5669" stroke-miterlimit="10"/>
<path d="M121.223 38.1846C122.662 37.0077 125.538 37.2692 126.715 38.7077C127.892 40.0154 127.369 41.9769 125.931 43.1539C127.369 43.0231 128.938 42.8923 130.115 43.6769C131.423 44.3308 131.685 45.7692 131.292 46.9462C130.9 48.1231 129.854 49.0385 128.938 49.9539C130.638 49.6923 132.077 51.2615 131.946 52.5692C131.815 53.8769 130.638 55.0539 129.462 55.9692C130.638 56.1 130.638 57.5385 129.985 58.3231C128.023 60.8077 124.492 62.2462 120.831 62.6385C117.169 63.0308 113.377 62.3769 109.977 61.3308C109.062 61.0692 108.015 60.6769 107.623 59.8923C107.231 59.1077 108.015 58.0615 108.931 58.3231C106.969 58.5846 104.746 57.9308 103.962 56.6231C103.177 55.1846 104.746 53.3539 106.708 53.4846C106.054 52.0462 105.4 50.6077 105.531 49.0385C105.662 47.4692 106.838 45.9 108.8 45.5077C108.015 43.8077 107.885 41.8462 108.408 40.1462C108.8 38.9692 110.108 37.5308 111.546 38.0539C111.546 35.3077 113.246 32.5615 115.862 30.7308C116.646 31.2539 117.169 31.9077 117.692 32.5615C118.346 31.5154 120.308 31.3846 121.485 32.0385C122.662 32.6923 123.054 33.8692 122.923 35.0462C122.531 36.0923 121.877 37.1385 121.223 38.1846Z" fill="#AEC894" stroke="#58595B" stroke-width="0.5669" stroke-miterlimit="10"/>
<path d="M126.192 55.8385C126.715 55.7077 127.369 56.1 127.5 56.6231C127.631 57.1462 127.108 57.5385 126.715 57.9308C125.146 59.3693 123.315 60.677 121.092 61.5923C119.654 62.2462 117.823 62.7693 116.254 62.2462C115.862 62.1154 115.338 61.8539 114.946 61.7231C113.115 60.8077 111.285 59.8923 109.585 58.8462C109.062 58.5846 108.538 58.3231 108.146 57.8C107.885 57.4077 107.885 56.7539 108.408 56.4923C107.754 57.0154 106.446 56.7539 106.054 56.1C105.662 55.4462 105.923 54.6616 106.577 54.1385C107.1 53.6154 107.885 53.3539 108.669 53.3539C108.669 52.5693 108.015 51.9154 107.492 51.3923C106.838 50.7385 106.315 50.0846 106.446 49.3C106.577 48.5154 108.015 48.1231 108.538 48.6462C108.146 47.3385 107.754 45.6385 109.062 44.7231C109.846 44.0693 111.285 43.9385 111.808 43.0231C112.2 42.2385 111.677 41.4539 111.415 40.6693C111.154 39.8846 111.546 38.8385 112.592 38.8385C112.854 38.8385 113.246 38.9693 113.508 38.8385C114.423 38.577 113.246 37.0077 114.292 36.877C115.992 37.4 116.777 38.8385 117.3 40.277C118.608 43.4154 119.262 46.6846 119.262 49.8231C119.785 49.0385 120.569 48.2539 121.615 48.3846C123.054 48.777 122.531 50.477 123.315 51.5231C124.492 51.2616 125.8 51.9154 126.192 52.8308C126.585 53.7462 126.454 54.9231 126.192 55.8385Z" fill="#79AA7D" stroke="#58595B" stroke-width="0.5669" stroke-miterlimit="10"/>
<path d="M110.108 58.8462C109.715 57.4077 108.146 56.6231 106.577 56.1C105.923 55.9693 105.923 55.0539 106.446 54.7923C107.231 54.4 107.754 53.8769 107.623 53.0923C107.623 52.3077 106.838 51.6539 106.446 50.8693C105.923 50.0846 105.792 49.1693 106.577 48.6462C107.492 48.1231 108.8 49.0385 109.846 48.9077C110.5 48.777 111.154 48.3846 111.938 48.3846C113.115 48.5154 113.638 49.6923 113.769 50.6077L115.208 57.0154C115.338 57.2769 115.469 57.5385 115.862 57.5385C117.954 57.6693 120.046 57.8 122.138 57.9308C122.4 57.9308 122.792 57.9308 123.054 58.1923C123.315 58.3231 123.315 58.5846 123.446 58.8462C123.838 60.9385 124.231 63.2923 122.531 64.6C120.962 65.9077 118.085 65.6462 116.646 64.077C116.385 64.7308 115.208 64.2077 114.554 63.6846C112.592 62.1154 110.238 60.9385 107.754 60.2846C108.146 59.6308 109.062 59.1077 110.108 58.8462Z" fill="#4C8574" stroke="#58595B" stroke-width="0.5669" stroke-miterlimit="10"/>
<path d="M138.746 69.5692L144.631 72.0538L145.285 71.5308V88.4L138.615 85.2615L138.746 69.5692Z" fill="#AAA1B5" stroke="#58595B" stroke-width="0.5669" stroke-miterlimit="10"/>
<path d="M144.892 71.0077L152.738 50.0846L164.115 57.1461L162.677 58.3231V75.1923L145.285 88.4V71.5308L144.631 71.7923L144.892 71.0077Z" fill="#BEBFDB" stroke="#58595B" stroke-width="0.5669" stroke-miterlimit="10"/>
<path d="M137.046 42.5C137.438 42.3693 142.669 40.4077 142.669 40.4077L145.415 46.5539L137.046 42.5Z" fill="#B5B9D8" stroke="#58595B" stroke-width="0.5669" stroke-miterlimit="10"/>
<path d="M113.9 52.7L121.092 34.6539L152.738 50.0846L144.631 72.0539L138.746 69.5693L138.615 63.0308L139.008 62.9L128.154 47.4693L118.738 48.5154L113.9 52.7Z" fill="#B22B43" stroke="#58595B" stroke-width="0.5669" stroke-miterlimit="10"/>
<path d="M89.0538 83.9538V75.3231L88.2692 74.9308L94.8077 68.7846L105.138 74.9308L108.538 86.8308V108.669L106.969 107.492L102.131 110.892L92.9769 105.662L93.3692 85L90.7538 83.4308L89.0538 83.9538Z" fill="#D9A481" stroke="#58595B" stroke-width="0.5669" stroke-miterlimit="10"/>
<path d="M108.538 86.8308L138.485 63.5538L138.615 92.8461L108.538 116.908V86.8308Z" fill="#FCCBAA" stroke="#58595B" stroke-width="0.5669" stroke-miterlimit="10"/>
<path d="M94.8077 68.7846L118.738 48.5154L128.154 47.4692L106.577 64.3385L94.8077 68.7846Z" fill="#943041" stroke="#58595B" stroke-width="0.5669" stroke-miterlimit="10"/>
<path d="M108.538 86.8308L105.138 74.9308L106.577 64.3385L128.154 47.4692L139.008 62.9L108.538 86.8308Z" fill="#E85A62" stroke="#58595B" stroke-width="0.5669" stroke-miterlimit="10"/>
<path d="M127.631 37.7923C127.631 37.6615 132.992 35.9615 132.992 35.9615L142.408 40.4077L137.046 42.5L127.762 37.9231L127.631 37.7923Z" fill="#E85A62" stroke="#58595B" stroke-width="0.5669" stroke-miterlimit="10"/>
<path d="M105.138 74.9307L94.8077 68.7846L106.577 64.3384L105.138 74.9307Z" fill="#B22B43" stroke="#58595B" stroke-width="0.5669" stroke-miterlimit="10"/>
<path d="M3.92308 150.908L20.1385 161.369V167.908L13.7308 167.123L8.23847 164.246L4.05385 157.315L3.92308 150.908Z" fill="#98ABB7" stroke="#58595B" stroke-width="0.5669" stroke-miterlimit="10"/>
<path d="M64.6 126.454V153.131L46.0308 167.908H20.1385V161.369L64.6 126.454Z" fill="#BAC5CC" stroke="#58595B" stroke-width="0.5669" stroke-miterlimit="10"/>
<path d="M3.92308 131.423L19.0923 141.362L20.1385 161.369L3.92308 150.908V131.423Z" fill="#A7ABB4" stroke="#58595B" stroke-width="0.5669" stroke-miterlimit="10"/>
<path d="M18.4385 134.954L47.2077 112.854L58.1923 111.285L19.0923 141.362L18.4385 134.954Z" fill="#A7ABB4" stroke="#58595B" stroke-width="0.5669" stroke-miterlimit="10"/>
<path d="M3.92308 131.423L4.05385 125.408L18.4385 134.954L19.0923 141.362L3.92308 131.423Z" fill="#CACED7" stroke="#58595B" stroke-width="0.5669" stroke-miterlimit="10"/>
<path d="M20.1385 161.369L19.0923 141.362L58.0615 111.285L66.0385 125.408L20.1385 161.369Z" fill="#CACED7" stroke="#58595B" stroke-width="0.5669" stroke-miterlimit="10"/>
<path d="M18.7 81.6L21.8385 83.9538L25.5 85.6538V91.0154L52.3077 107.1L47.9923 112.462H47.3385L46.0308 113.508L8.76154 89.5769L18.7 81.6Z" fill="#777E87" stroke="#58595B" stroke-width="0.5669" stroke-miterlimit="10"/>
<path d="M18.7 58.1923L26.5462 51.9154L30.6 54.6616L32.1692 50.8693L37.9231 54.4L38.1846 59.1077C38.1846 59.1077 40.5385 60.2846 41.7154 60.4154C42.7615 60.5462 44.8538 60.2846 45.7692 59.7616C46.6846 59.2385 46.6846 58.977 46.6846 58.977L55.3154 63.9462V64.6L55.9692 64.8616V72.577L54.5308 71.6616L52.8308 72.9693L54.5308 74.0154V86.3077L24.8462 68.3923L25.8923 65.5154L22.1 62.7693L18.7 58.1923Z" fill="#777E87" stroke="#58595B" stroke-width="0.5669" stroke-miterlimit="10"/>
<path d="M10.4615 91.0154L46.0308 113.508L27.9846 127.631L10.4615 116.385V91.0154Z" fill="#AFBFD2" stroke="#58595B" stroke-width="0.5669" stroke-miterlimit="10"/>
<path d="M18.7 58.1923L22.2308 62.9L26.0231 65.5154L24.8462 68.3923L54.2692 86.5692V105.138L52.3077 107.1L25.5 91.0154V85.6539L22.2308 83.9539L18.7 81.6V58.1923Z" fill="#AFBFD2" stroke="#58595B" stroke-width="0.5669" stroke-miterlimit="10"/>
<path d="M10.4615 91.0154L46.0308 113.508L44.2 114.946L10.5923 93.7615L10.4615 91.0154Z" fill="#B66629" stroke="#58595B" stroke-width="0.5669" stroke-miterlimit="10"/>
<path d="M18.7 58.1923L22.2308 62.9L26.0231 65.5154L25.1077 67.8692L22.1 65.6462L18.7 61.2V58.1923Z" fill="#B66629" stroke="#58595B" stroke-width="0.5669" stroke-miterlimit="10"/>
<path d="M25.3692 68.7846L54.2692 86.5692V89.0538L25.3692 71.1385V68.7846Z" fill="#B66629" stroke="#58595B" stroke-width="0.5669" stroke-miterlimit="10"/>
<path d="M47.9923 112.462C47.9923 112.462 53.7462 105.923 54.6615 104.354C55.5769 102.785 56.8846 97.1615 57.2769 93.7615C57.6692 90.3615 57.6692 89.8384 57.6692 89.8384L61.3308 91.6692C61.3308 91.6692 60.2846 98.3384 60.0231 99.5154C59.7615 100.692 59.1077 104.485 57.8 106.708C56.4923 108.8 54.5308 111.808 54.5308 111.808L47.9923 112.462Z" fill="#253C80" stroke="#58595B" stroke-width="0.5669" stroke-miterlimit="10"/>
<path d="M80.2923 78.8538C80.2923 78.8538 83.5615 82.3846 84.3462 82.9077C85.1308 83.4307 86.4385 84.2154 87.8769 84.2154C89.3154 84.2154 90.7539 83.4307 90.7539 83.4307L93.3692 85C93.3692 85 92.5846 86.0461 92.1923 86.3077C91.8 86.5692 90.6231 87.3538 88.7923 87.223C86.9615 87.0923 85.6539 86.4384 84.8692 85.6538C84.0846 84.8692 82.3846 82.9077 81.8615 81.7307C81.2077 80.6846 80.2923 78.8538 80.2923 78.8538Z" fill="#253C80" stroke="#58595B" stroke-width="0.5669" stroke-miterlimit="10"/>
<path d="M45.2462 29.8154C45.2462 29.8154 44.7231 31.3846 42.6308 31.3846C40.6692 31.3846 39.2308 30.0769 39.2308 30.0769C39.2308 30.0769 38.1846 30.9923 38.7077 31.9077C39.2308 32.8231 40.6692 33.2154 42.3692 33.2154C43.5462 33.2154 45.3769 32.6923 45.7692 31.7769C46.1615 31.2538 46.1615 30.2077 45.2462 29.8154Z" fill="#B66629" stroke="#58595B" stroke-width="0.5669" stroke-miterlimit="10"/>
<path d="M47.3385 44.7231C47.3385 44.7231 46.5538 46.9462 43.1538 46.9462C39.8846 46.9462 37.5308 44.9846 37.5308 44.9846C37.5308 44.9846 35.8308 46.2923 36.7462 47.4692C37.6615 48.6462 40.0154 49.3 43.0231 49.3C44.8539 49.3 47.9923 48.6462 48.7769 47.3385C48.7769 46.6846 48.7769 45.2462 47.3385 44.7231Z" fill="#B66629" stroke="#58595B" stroke-width="0.5669" stroke-miterlimit="10"/>
<path d="M38.0538 48.5154C38.0538 48.5154 39.6231 49.1692 40.2769 49.3C40.9308 49.4308 41.4538 49.3 41.4538 49.3V60.6769C41.4538 60.6769 39.4923 60.0231 38.8385 59.7615C38.1846 59.5 38.0538 59.2385 38.0538 59.2385V48.5154Z" fill="#AFBFD2" stroke="#58595B" stroke-width="0.5669" stroke-miterlimit="10"/>
<path d="M54.2692 74.2769L63.1615 78.9846V112.2L61.3308 113.508V91.6692L57.6692 89.8385C57.6692 89.8385 56.8846 96.3769 56.6231 97.5538C55.4462 102.915 54.1385 104.615 54.1385 104.615L54.2692 74.2769Z" fill="#AFBFD2" stroke="#58595B" stroke-width="0.5669" stroke-miterlimit="10"/>
<path d="M55.7077 64.9923L61.7231 67.8692V75.8462L55.7077 72.7077V64.9923Z" fill="#AFBFD2" stroke="#58595B" stroke-width="0.5669" stroke-miterlimit="10"/>
<path d="M58.7154 57.9307V51.6538L60.1539 52.4384C60.1539 52.4384 60.2846 49.4308 60.8077 48.9077C61.3308 48.3846 62.1154 47.7307 62.7692 48.6461C63.4231 49.5615 64.0769 51 64.2077 51.5231C64.3385 52.0461 64.4692 54.4 64.4692 54.4L67.0846 55.7077V61.4615L59.6308 58.1923H58.7154V57.9307Z" fill="#AFBFD2" stroke="#58595B" stroke-width="0.5669" stroke-miterlimit="10"/>
<path d="M52.5692 73.2308L54.2692 71.7923L62.9 76.3692L79.6385 63.6846L81.6 65.1231L63.1615 78.8539L52.5692 73.2308Z" fill="#B66629" stroke="#58595B" stroke-width="0.5669" stroke-miterlimit="10"/>
<path d="M41.4538 60.6769V49.3C41.4538 49.3 43.6769 49.3 44.7231 49.0385C45.7692 48.7769 46.8154 48.5154 46.8154 48.5154V59.2385C46.8154 59.2385 44.8538 60.2846 43.8077 60.4154C42.7615 60.6769 41.4538 60.6769 41.4538 60.6769Z" fill="#DFD8D2" stroke="#58595B" stroke-width="0.5669" stroke-miterlimit="10"/>
<path d="M44.8538 32.4308V40.0154C43.1538 42.5 40.2769 40.2769 40.2769 40.2769V32.9539C40.2769 32.9539 41.9769 33.2154 42.8923 33.0846C43.8077 32.9539 44.4615 32.9539 44.8538 32.4308Z" fill="#AFBFD2" stroke="#58595B" stroke-width="0.5669" stroke-miterlimit="10"/>
<path d="M45.2462 29.8154C45.9 27.4615 44.8539 26.6769 43.8077 26.0231C42.7615 25.3692 42.6308 23.8 42.6308 23.8C42.6308 23.8 43.2846 24.4538 41.0615 26.0231C38.8385 27.5923 39.3615 29.8154 39.3615 29.8154C39.3615 29.8154 40.1462 30.9923 41.7154 31.2538C43.2846 31.6461 44.0692 31.2538 44.3308 30.9923C44.5923 30.7308 45.1154 30.4692 45.2462 29.8154Z" fill="#686C77" stroke="#58595B" stroke-width="0.5669" stroke-miterlimit="10"/>
<path d="M37.2692 44.9846C37.2692 44.9846 37.5308 43.2846 37.7923 42.6308C38.0538 42.1077 38.5769 41.1923 38.9692 40.8C39.3615 40.4077 40.1461 40.1462 40.1461 40.1462C40.1461 40.1462 40.4077 40.5385 40.9308 40.8C41.3231 41.0615 42.1077 41.3231 42.7615 41.3231C43.0231 41.3231 43.8077 41.3231 44.4615 40.6692C44.8538 40.1462 44.9846 40.0154 44.9846 40.0154C44.9846 40.0154 46.1615 40.8 46.4231 41.4538C46.6846 41.9769 47.0769 43.1538 47.2077 43.9385C47.3385 44.7231 47.2077 44.9846 47.2077 44.9846C47.2077 44.9846 46.2923 46.0308 45.6385 46.4231C44.5923 46.9462 43.1538 46.9462 42.1077 46.9462C41.1923 46.9462 39.4923 46.5538 38.8385 46.1615C38.4461 45.6385 37.2692 44.9846 37.2692 44.9846Z" fill="#686C77" stroke="#58595B" stroke-width="0.5669" stroke-miterlimit="10"/>
<path d="M57.6692 51.2615C57.6692 51.2615 57.6692 49.3 58.1923 47.9923C58.7154 46.6846 59.2385 45.7692 59.7615 45.5077C60.2846 45.2462 61.5923 44.9846 62.5077 45.2461C63.4231 45.6385 64.4692 46.1615 65.1231 47.2077C65.7769 48.2538 66.3 49.5615 66.3 50.4769C66.3 51.3923 66.4308 52.7 66.4308 52.7C66.4308 52.7 66.8231 50.6077 67.0846 49.9538C67.4769 49.3 68.3923 47.8615 69.4385 47.0769C70.6154 46.2923 71.4 46.0308 71.9231 46.1615C72.3154 46.2923 73.1 46.1615 73.6231 47.2077C74.1462 48.2538 74.4077 48.7769 74.4077 49.6923C74.4077 50.6077 74.4077 51.2615 74.4077 51.2615L72.5769 52.7C72.5769 52.7 72.5769 51.1308 72.4462 50.7385C72.3154 50.3462 72.1846 49.8231 71.7923 49.5615C71.4 49.3 70.7462 49.3 70.3539 49.5615C70.0923 49.8231 69.4385 50.2154 69.1769 51.5231C68.9154 52.8308 68.7846 54.1385 68.7846 54.1385L66.8231 55.3154L64.3385 53.8769C64.3385 53.8769 64.3385 51.9154 64.0769 51.2615C63.8154 50.6077 63.5538 49.1692 63.0308 48.6462C62.5077 48.1231 61.7231 47.6 60.9385 48.2538C60.1539 48.9077 60.0231 52.1769 60.0231 52.1769L57.6692 51.2615Z" fill="#B66629" stroke="#58595B" stroke-width="0.5669" stroke-miterlimit="10"/>
<path d="M71.0077 29.1616C71.0077 29.1616 70.2231 31.3846 66.8231 31.3846C63.5538 31.3846 61.2 29.4231 61.2 29.4231C61.2 29.4231 59.5 30.7308 60.4154 31.9077C61.3308 33.0846 63.6846 33.7385 66.6923 33.7385C68.5231 33.7385 71.6615 33.0846 72.4461 31.7769C72.4461 31.2539 72.4462 29.8154 71.0077 29.1616Z" fill="#B66629" stroke="#58595B" stroke-width="0.5669" stroke-miterlimit="10"/>
<path d="M68.9154 14.3846C68.9154 14.3846 68.3923 15.9539 66.3 15.9539C64.3385 15.9539 62.9 14.6462 62.9 14.6462C62.9 14.6462 61.8539 15.5616 62.3769 16.477C62.9 17.3923 64.3385 17.7846 66.0385 17.7846C67.2154 17.7846 69.0462 17.2616 69.4385 16.3462C69.8308 15.8231 69.8308 14.6462 68.9154 14.3846Z" fill="#B66629" stroke="#58595B" stroke-width="0.5669" stroke-miterlimit="10"/>
<path d="M60.8077 29.4231C60.8077 29.4231 62.5077 30.3384 64.2077 30.8615C65.3846 31.2538 66.3 31.6461 68.5231 30.9923C70.0923 30.6 70.7462 29.2923 70.7462 29.2923C71.2692 25.5 68.6538 24.3231 68.6538 24.3231C68.3923 24.4538 68.2615 24.8461 67.8692 25.1077C67.3462 25.5 66.5615 25.6308 66.3 25.6308C66.0385 25.6308 65.5154 25.6308 64.8615 25.3692C64.2077 25.1077 63.9462 24.5846 63.9462 24.5846C60.9385 25.5 60.8077 29.4231 60.8077 29.4231Z" fill="#686C77" stroke="#58595B" stroke-width="0.5669" stroke-miterlimit="10"/>
<path d="M68.9154 14.3846C69.5692 12.0307 68.5231 11.2461 67.4769 10.5923C66.4308 9.93843 66.3 8.3692 66.3 8.3692C66.3 8.3692 66.9538 9.02305 64.7308 10.5923C62.5077 12.1615 63.0308 14.3846 63.0308 14.3846C63.0308 14.3846 63.5538 15.1692 64.2077 15.4307C64.9923 15.823 65.7769 15.9538 66.0385 15.9538C66.3 15.9538 67.2154 15.9538 67.7385 15.6923C68.2615 15.3 68.7846 14.7769 68.9154 14.3846Z" fill="#686C77" stroke="#58595B" stroke-width="0.5669" stroke-miterlimit="10"/>
<path d="M61.5923 32.9539C61.5923 32.9539 62.6385 33.4769 63.2923 33.4769C63.9462 33.4769 64.7308 33.6077 64.7308 33.6077V44.9846C64.7308 44.9846 62.6385 44.0692 62.3769 43.9385C62.1154 43.8077 61.7231 43.5462 61.7231 43.5462L61.5923 32.9539Z" fill="#AFBFD2" stroke="#58595B" stroke-width="0.5669" stroke-miterlimit="10"/>
<path d="M70.4846 33.0846C70.4846 33.0846 69.7 33.3461 68.7846 33.4769C67.8692 33.6077 64.8615 33.6077 64.8615 33.6077V44.9846C64.8615 44.9846 66.5615 45.2461 67.6077 44.8538C68.6538 44.4615 69.8308 44.0692 70.0923 43.9384C70.3538 43.8077 70.7462 43.5461 70.7462 43.5461L70.4846 33.0846Z" fill="#DFD8D2" stroke="#58595B" stroke-width="0.5669" stroke-miterlimit="10"/>
<path d="M63.9462 17.3923C63.9462 17.3923 65.2538 17.6539 66.0385 17.6539C66.8231 17.6539 68.6538 17.1308 68.6538 17.1308V24.5846C68.6538 24.5846 68 25.6308 67.4769 25.6308C66.9538 25.7616 65.7769 25.7616 65.2538 25.5C64.7308 25.2385 63.9462 24.4539 63.9462 24.4539C63.9462 24.4539 63.9462 17.1308 63.9462 17.3923Z" fill="#AFBFD2" stroke="#58595B" stroke-width="0.5669" stroke-miterlimit="10"/>
<path d="M59.1077 46.1616C59.1077 46.1616 59.7615 44.4616 60.1538 44.0693C60.5462 43.677 61.2 43.1539 61.2 43.1539C61.2 43.1539 62.3769 44.2 63.2923 44.4616C64.3385 44.7231 65.6462 45.5077 66.9539 45.1154C68.3923 44.7231 70.3539 43.677 70.3539 43.677V42.8923C70.3539 42.8923 71.6615 43.8077 72.0539 44.3308C72.4462 44.7231 72.9692 45.5077 73.1 46.1616C73.3615 46.8154 73.4923 47.4693 73.4923 47.4693C73.4923 47.4693 72.8385 46.5539 72.0539 46.5539C71.2692 46.5539 70.2231 46.4231 69.1769 47.3385C68.1308 48.2539 67.3462 49.1693 66.9539 50.2154C66.5615 51.2616 66.3 52.8308 66.3 52.8308C66.3 52.8308 66.4308 51 66.1692 50.3462C65.9077 49.5616 65.7769 48.3846 64.9923 47.6C64.2077 46.8154 63.1615 45.9 62.5077 45.6385C61.9846 45.377 60.9385 45.3769 60.2846 45.5077C60.0231 45.2462 59.1077 46.1616 59.1077 46.1616Z" fill="#686C77" stroke="#58595B" stroke-width="0.5669" stroke-miterlimit="10"/>
<path d="M55.1846 64.7308C55.1846 64.7308 55.3154 62.6385 55.4462 61.9846C55.5769 61.3308 56.1 59.7616 56.6231 59.1077C57.2769 58.4539 57.8 57.9308 58.5846 57.9308C59.3692 57.9308 59.3692 57.9308 59.8923 58.1923C60.4154 58.4539 66.8231 61.2 66.8231 61.2C66.8231 61.2 65.6462 61.2 65.1231 61.3308C64.6 61.4616 63.8154 61.8539 63.1615 62.6385C62.6385 63.2923 62.1154 64.2077 61.9846 65.2539C61.8538 66.3 61.7231 67.8693 61.7231 67.8693L55.1846 64.7308Z" fill="#686C77" stroke="#58595B" stroke-width="0.5669" stroke-miterlimit="10"/>
<path d="M74.1461 51.6539L78.4615 53.6154C78.4615 53.6154 77.1538 53.7462 76.8923 54.0077C76.6308 54.2693 74.6692 55.9693 74.5385 56.6231C74.4077 57.2769 74.0154 58.0616 74.0154 58.0616L74.1461 51.6539Z" fill="#A7ABB4" stroke="#58595B" stroke-width="0.5669" stroke-miterlimit="10"/>
<path d="M61.7231 75.8462C61.5923 75.3231 61.7231 67.6077 61.7231 67.6077C61.7231 67.6077 61.9846 64.9923 62.2462 64.3385C62.5077 63.5539 63.2923 62.3769 63.9462 61.9846C64.6 61.5923 66.0385 61.2 66.3 61.2C66.5615 61.2 66.8231 61.3308 66.8231 61.3308L66.9539 73.3615L62.7692 76.5L61.7231 75.8462Z" fill="#DFD8D2" stroke="#58595B" stroke-width="0.5669" stroke-miterlimit="10"/>
<path d="M66.9539 55.5769L68.9154 54.4C68.9154 54.4 69.0462 52.1769 69.4385 51.2615C69.9616 50.3462 70.4846 49.6923 71.1385 49.5615C71.7923 49.4308 72.3154 49.8231 72.4462 50.3462C72.5769 50.8692 72.7077 52.8308 72.7077 52.8308L74.1462 51.6538L74.0154 68L66.9539 73.3615V55.5769Z" fill="#DFD8D2" stroke="#58595B" stroke-width="0.5669" stroke-miterlimit="10"/>
<path d="M74.1461 57.1462C74.1461 57.1462 75.5846 54.9231 76.2385 54.4C76.8923 53.8769 77.9385 53.3539 78.4615 53.6154C78.8538 53.8769 79.6385 54.4 79.6385 54.7923C79.7692 55.1846 79.7692 63.6846 79.7692 63.6846L74.0154 68L74.1461 57.1462Z" fill="#DFD8D2" stroke="#58595B" stroke-width="0.5669" stroke-miterlimit="10"/>
<path d="M63.1615 78.8539L79.6385 66.4308V98.7308L63.1615 112.069V78.8539Z" fill="#DFD8D2" stroke="#58595B" stroke-width="0.5669" stroke-miterlimit="10"/>
<path d="M61.7231 67.8692L63.5539 66.1692C63.5539 66.1692 63.6846 64.8615 63.9462 64.0769C64.3385 63.2923 64.8615 63.0308 65.6462 62.7692C66.1692 62.6385 66.8231 62.6385 66.8231 62.6385L66.9539 61.0692C66.9539 61.0692 65.9077 60.8077 65.6462 61.0692C65.3846 61.3308 64.0769 61.5923 63.4231 62.3769C62.9 63.1616 62.3769 64.0769 62.2462 64.6C62.1154 65.2539 61.7231 67.8692 61.7231 67.8692Z" fill="#B66629" stroke="#58595B" stroke-width="0.5669" stroke-miterlimit="10"/>
<path d="M74.0154 60.0231C74.0154 60.0231 74.9308 58.0615 75.3231 57.4077C75.4538 57.1461 75.9769 55.8384 76.8923 55.5769C78.0692 55.1846 78.5923 56.2307 78.5923 56.2307L79.6385 55.7077C79.6385 55.7077 79.7692 54.7923 79.3769 54.4C79.1154 54.0077 78.4615 53.3538 77.5462 53.6154C76.6308 53.8769 75.7154 54.5307 75.1923 55.1846C74.6692 55.8384 74.1462 56.7538 74.0154 57.0154C74.0154 57.4077 74.0154 60.0231 74.0154 60.0231Z" fill="#B66629" stroke="#58595B" stroke-width="0.5669" stroke-miterlimit="10"/>
<path d="M63.1615 82.3846L79.6385 70.3538V72.7077L63.1615 84.7384V82.3846Z" fill="#B66629" stroke="#58595B" stroke-width="0.5669" stroke-miterlimit="10"/>
<path d="M67.4769 103.046V85.9154C67.4769 85.9154 67.2154 83.8231 68.6538 82.5154C69.5692 81.6 72.0538 80.2923 72.1846 83.6923C72.3154 86.3077 72.0539 99.3846 72.0539 99.3846L67.4769 103.046Z" fill="#263474" stroke="#58595B" stroke-width="0.5669" stroke-miterlimit="1"/>
<path d="M67.4769 91.6692L72.0539 88.5308V90.8846L67.4769 94.0231V91.6692Z" fill="#9A395C" stroke="#58595B" stroke-width="0.5669" stroke-miterlimit="10"/>
<path d="M69.1769 86.177L70.7462 84.8693V100.3L69.1769 101.608V86.177Z" fill="#9A395C" stroke="#58595B" stroke-width="0.5669" stroke-miterlimit="10"/>
<path d="M54.2692 111.677C54.2692 111.677 57.0154 108.146 57.4077 107.362C57.8 106.577 59.2385 103.438 59.5 102.131C59.8923 100.431 60.6769 96.3769 60.8077 95.2C60.9385 94.0231 61.3308 91.9308 61.3308 91.9308V113.377L60.0231 114.554L58.1923 111.154L54.2692 111.677Z" fill="#DFD8D2" stroke="#58595B" stroke-width="0.5669" stroke-miterlimit="10"/>
<path d="M79.6385 77.2846C79.6385 77.2846 81.3385 81.2077 81.7308 81.8615C82.1231 82.5154 84.0846 85.1308 84.7385 85.7846C85.3923 86.3077 87.6154 87.3538 88.6615 87.3538C89.7077 87.3538 90.8846 87.0923 91.6692 86.7C92.4538 86.3077 93.1077 85.5231 93.1077 85.5231V88.0077L79.6385 98.7308V77.2846Z" fill="#CACED7" stroke="#58595B" stroke-width="0.5669" stroke-miterlimit="10"/>
<path d="M60.0231 114.685L92.9769 87.7462L92.8461 91.6692L61.2 116.908L60.0231 114.685Z" fill="#B66629" stroke="#58595B" stroke-width="0.5669" stroke-miterlimit="10"/>
<path d="M61.2 116.908L92.8462 91.6693L92.9769 117.169L91.0154 118.477L89.8385 117.169L87.6154 121.092L81.3385 125.8L80.1616 124.754L78.0692 128.546L64.7308 138.877L64.6 126.454L66.0385 125.408L61.2 116.908Z" fill="#DFD8D2" stroke="#58595B" stroke-width="0.5669" stroke-miterlimit="10"/>
<path d="M67.4769 136.785V123.054C67.4769 123.054 67.3462 120.569 69.4385 118.869C71.5308 117.169 73.4923 119.131 73.6231 120.438C73.6231 121.746 73.6231 132.077 73.6231 132.077L67.4769 136.785Z" fill="#893346" stroke="#58595B" stroke-width="0.5669" stroke-miterlimit="10"/>
<path d="M83.4308 119.915L87.4846 116.646V107.885C87.4846 107.885 87.3538 105.662 85.7846 105.792C84.2154 105.923 83.4308 108.277 83.4308 109.715C83.4308 111.154 83.4308 119.915 83.4308 119.915Z" fill="#89AEC7" stroke="#58595B" stroke-width="0.5669" stroke-miterlimit="10"/>
<path d="M67.4769 117.954V115.992L80.1615 106.054V108.015L67.4769 117.954Z" fill="#B66629" stroke="#58595B" stroke-width="0.5669" stroke-miterlimit="10"/>
<path d="M80.1615 107.885V105.923L90.7539 97.5538V99.5154L80.1615 107.885Z" fill="#B66629" stroke="#58595B" stroke-width="0.5669" stroke-miterlimit="10"/>
<path d="M101.738 113.769L108.408 108.931L108.538 116.908L102.392 121.485V114.946L102.654 114.554L101.738 113.769Z" fill="#F9DD9F" stroke="#58595B" stroke-width="0.5669" stroke-miterlimit="10"/>
<path d="M64.4692 144.5L71.7923 139.008V137.831H72.0539L74.5385 136V136.915L79.7692 132.862V130.246H80.1615L83.4308 127.892V135.869L64.6 150.908L64.4692 144.5Z" fill="#DFD8D2" stroke="#58595B" stroke-width="0.5669" stroke-miterlimit="10"/>
<path d="M89.3154 122.923L92.8462 120.308L92.9769 123.315L99.2539 118.477L99.3846 116.908H99.6462L102.392 114.946V121.485L89.3154 131.031V122.923Z" fill="#DFD8D2" stroke="#58595B" stroke-width="0.5669" stroke-miterlimit="10"/>
<path d="M100.169 112.331L106.969 107.623L108.408 108.931L101.738 113.769L100.169 112.331Z" fill="#A7ABB4" stroke="#58595B" stroke-width="0.5669" stroke-miterlimit="10"/>
<path d="M98.2077 116.254L99.3846 116.908L99.2539 118.477L92.9769 123.315L92.8462 121.485L98.0769 117.823L98.2077 116.254Z" fill="#A7ABB4" stroke="#58595B" stroke-width="0.5669" stroke-miterlimit="10"/>
<path d="M87.8769 121.877L89.3154 122.923V131.031L87.8769 130.115V121.877Z" fill="#A7ABB4" stroke="#58595B" stroke-width="0.5669" stroke-miterlimit="10"/>
<path d="M78.5923 129.592L79.7692 130.246V132.862L74.5385 136.915V136L75.1923 135.608L74.5385 134.954L78.7231 132.077L78.5923 129.592Z" fill="#A7ABB4" stroke="#58595B" stroke-width="0.5669" stroke-miterlimit="10"/>
<path d="M64.6 142.669L70.4846 138.354V137.177L71.7923 137.831V139.008L64.6 144.762V142.669Z" fill="#A7ABB4" stroke="#58595B" stroke-width="0.5669" stroke-miterlimit="10"/>
<path d="M99.6461 111.808L102.654 114.554L99.6461 116.908V111.808Z" fill="#AF6466" stroke="#58595B" stroke-width="0.5669" stroke-miterlimit="10"/>
<path d="M89.5769 122.792L89.8385 117.169L92.8462 120.308L89.5769 122.792Z" fill="#AF6466" stroke="#58595B" stroke-width="0.5669" stroke-miterlimit="10"/>
<path d="M80.1615 130.115V124.754L83.4308 127.892L80.1615 130.115Z" fill="#AF6466" stroke="#58595B" stroke-width="0.5669" stroke-miterlimit="10"/>
<path d="M72.0538 137.831L72.1846 132.862L75.1923 135.608L72.0538 137.831Z" fill="#AF6466" stroke="#58595B" stroke-width="0.5669" stroke-miterlimit="10"/>
<path d="M70.0923 136.915L72.1846 132.862L72.0539 137.831L70.0923 136.915Z" fill="#893346" stroke="#58595B" stroke-width="0.5669" stroke-miterlimit="10"/>
<path d="M77.9385 129.2L80.1615 124.754V130.115L77.9385 129.2Z" fill="#893346" stroke="#58595B" stroke-width="0.5669" stroke-miterlimit="10"/>
<path d="M87.4846 121.615L89.7077 117.431L89.5769 122.923L87.4846 121.615Z" fill="#893346" stroke="#58595B" stroke-width="0.5669" stroke-miterlimit="10"/>
<path d="M97.6846 115.992L99.5154 112.069L99.6462 116.908L97.6846 115.992Z" fill="#893346" stroke="#58595B" stroke-width="0.5669" stroke-miterlimit="10"/>
<path d="M44.8538 41.4539C44.8538 41.4539 46.8154 43.5462 46.1615 44.5923C45.6385 45.7692 44.0692 45.6385 44.0692 45.6385C44.0692 45.6385 45.6385 43.5462 44.8538 41.4539Z" fill="#CACED7" stroke="#58595B" stroke-width="0.5669" stroke-miterlimit="10"/>
<path d="M68.7846 25.8923C68.7846 25.8923 70.7462 27.9846 70.0923 29.0308C69.5692 30.2077 68 30.077 68 30.077C68 30.077 69.5692 27.9846 68.7846 25.8923Z" fill="#CACED7" stroke="#58595B" stroke-width="0.5669" stroke-miterlimit="10"/>
<path d="M66.6923 10.7231C66.6923 10.7231 68.6538 12.8154 68 13.8615C67.4769 15.0385 65.9077 14.9077 65.9077 14.9077C65.9077 14.9077 67.4769 12.8154 66.6923 10.7231Z" fill="#CACED7" stroke="#58595B" stroke-width="0.5669" stroke-miterlimit="10"/>
<path d="M43.1538 26.4154C43.1538 26.4154 45.1154 28.5077 44.4615 29.5539C43.9385 30.7308 42.3692 30.6 42.3692 30.6C42.3692 30.6 43.9385 28.5077 43.1538 26.4154Z" fill="#CACED7" stroke="#58595B" stroke-width="0.5669" stroke-miterlimit="10"/>
<path d="M121.092 34.6539L153.654 50.6077L164.115 57.1462L144.631 72.0539L138.485 69.4385" stroke="#58595B" stroke-width="0.5669" stroke-miterlimit="1"/>
<path d="M144.631 71.5308L152.738 50.0846" stroke="#58595B" stroke-width="0.5669" stroke-miterlimit="1"/>
<path d="M114.292 52.1769L121.092 34.5231" stroke="#58595B" stroke-width="0.5669" stroke-miterlimit="1"/>
<path d="M138.615 85.2615L145.285 88.4V72.0538" stroke="#58595B" stroke-width="0.5669" stroke-miterlimit="1"/>
<path d="M162.677 58.3231V75.3231L145.285 88.4" stroke="#58595B" stroke-width="0.5669" stroke-miterlimit="1"/>
<path d="M88.2692 74.9308L108.538 86.8308L105.138 74.9308L94.8077 68.7846L88.2692 74.9308Z" stroke="#58595B" stroke-width="0.5669" stroke-miterlimit="1"/>
<path d="M94.8077 68.7846L106.577 64.3384L105.138 74.9307" stroke="#58595B" stroke-width="0.5669" stroke-miterlimit="1"/>
<path d="M106.577 64.3385L128.415 47.4692L139.138 63.0308L108.538 86.8308" stroke="#58595B" stroke-width="0.5669" stroke-miterlimit="1"/>
<path d="M94.8077 68.7846L119 48.5154L128.415 47.4692" stroke="#58595B" stroke-width="0.5669" stroke-miterlimit="1"/>
<path d="M89.0538 75.3231V83.8231" stroke="#58595B" stroke-width="0.5669" stroke-miterlimit="1"/>
<path d="M108.538 86.8308V116.908L138.615 92.8461V63.0308" stroke="#58595B" stroke-width="0.5669" stroke-miterlimit="1"/>
<path d="M100.169 112.331L101.738 113.769L108.538 108.8L106.969 107.623L100.169 112.331Z" stroke="#58595B" stroke-width="0.5669" stroke-miterlimit="1"/>
<path d="M92.9769 105.662L102.392 111.023" stroke="#58595B" stroke-width="0.5669" stroke-miterlimit="1"/>
<path d="M127.631 37.7923L132.862 35.9615" stroke="#58595B" stroke-width="0.5669" stroke-miterlimit="1"/>
<path d="M132.862 35.9615L142.669 40.4077L145.415 46.5539" stroke="#58595B" stroke-width="0.5669" stroke-miterlimit="1"/>
<path d="M137.046 42.5L142.669 40.4077" stroke="#58595B" stroke-width="0.5669" stroke-miterlimit="1"/>
<path d="M105.008 53.0923V41.4539" stroke="#58595B" stroke-width="0.5669" stroke-miterlimit="1"/>
<path d="M92.0615 34.6539V47.4693L103.831 54.0077" stroke="#58595B" stroke-width="0.5669" stroke-miterlimit="1"/>
<path d="M118.215 31.6461L120.7 29.8154L122.269 28.6384L107.623 21.8384L91.0154 34.5231L105.008 41.4538" stroke="#58595B" stroke-width="0.5669" stroke-miterlimit="1"/>
<path d="M105.008 41.4538L107.754 39.3615" stroke="#58595B" stroke-width="0.5669" stroke-miterlimit="1"/>
<path d="M121.092 31.9077V29.8154" stroke="#58595B" stroke-width="0.5669" stroke-miterlimit="1"/>
<path d="M58.1923 111.285L19.0923 141.362L3.92308 131.423" stroke="#58595B" stroke-width="0.5669" stroke-miterlimit="1"/>
<path d="M4.05385 125.408C7.71539 127.631 18.5692 134.954 18.5692 134.954L47.3385 112.462L58.0615 111.285L65.9077 125.277L20.0077 161.238L4.18462 151.3" stroke="#58595B" stroke-width="0.5669" stroke-miterlimit="1"/>
<path d="M19.0923 141.362L18.4385 134.954" stroke="#58595B" stroke-width="0.5669" stroke-miterlimit="1"/>
<path d="M19.0923 141.362L20.1385 161.369" stroke="#58595B" stroke-width="0.5669" stroke-miterlimit="1"/>
<path d="M20.1385 161.631V167.908" stroke="#58595B" stroke-width="0.5669" stroke-miterlimit="1"/>
<path d="M46.0308 167.908L64.6 153.131V126.454" stroke="#58595B" stroke-width="0.5669" stroke-miterlimit="1"/>
<path d="M27.9846 127.631L10.4615 116.385V91.0154" stroke="#58595B" stroke-width="0.5669" stroke-miterlimit="1"/>
<path d="M18.4385 81.6L8.76154 89.8384L46.0308 113.508" stroke="#58595B" stroke-width="0.5669" stroke-miterlimit="1"/>
<path d="M52.3077 107.1L25.5 91.0154V68.7846L54.2692 86.8308" stroke="#58595B" stroke-width="0.5669" stroke-miterlimit="1"/>
<path d="M24.8462 68.3923L32.0385 50.8693L38.1846 54.6616" stroke="#58595B" stroke-width="0.5669" stroke-miterlimit="1"/>
<path d="M8.76154 89.8385L21.8385 83.9539L18.7 81.6V58.1923L22.2308 62.9L26.0231 65.5154" stroke="#58595B" stroke-width="0.5669" stroke-miterlimit="1"/>
<path d="M25.5 85.6539L21.8385 83.9539" stroke="#58595B" stroke-width="0.5669" stroke-miterlimit="1"/>
<path d="M22.2308 81.6V62.9" stroke="#58595B" stroke-width="0.5669" stroke-miterlimit="1"/>
<path d="M18.7 58.1923L26.5462 51.9154L30.4692 54.6616" stroke="#58595B" stroke-width="0.5669" stroke-miterlimit="1"/>
<path d="M46.5538 59.1077L54.2692 63.2923" stroke="#58595B" stroke-width="0.5669" stroke-miterlimit="1"/>
<path d="M54.2692 73.7538V104.354" stroke="#58595B" stroke-width="0.5669" stroke-miterlimit="1"/>
<path d="M60.0231 114.685L92.9769 88.0077V116.908" stroke="#58595B" stroke-width="0.5669" stroke-miterlimit="1"/>
<path d="M61.3308 116.908L92.9769 91.4077" stroke="#58595B" stroke-width="0.5669" stroke-miterlimit="1"/>
<path d="M79.6385 66.5615V98.7308" stroke="#58595B" stroke-width="0.5669" stroke-miterlimit="1"/>
<path d="M63.1615 78.8539L52.5692 73.2308L54.2692 71.7923L62.9 76.3692L79.6385 63.6846L81.6 65.1231L63.1615 78.8539ZM63.1615 78.8539V112.069" stroke="#58595B" stroke-width="0.5669" stroke-miterlimit="1"/>
<path d="M54.2692 111.677C54.2692 111.677 56.7538 108.931 58.3231 105.662C60.0231 102.392 61.3308 91.6692 61.3308 91.6692L57.6692 89.8384C57.6692 89.8384 57.0154 101.215 53.8769 105.269C50.7385 109.454 47.9923 112.462 47.9923 112.462" stroke="#58595B" stroke-width="0.5669" stroke-miterlimit="1"/>
<path d="M108.538 116.908L89.3154 131.031V123.185L92.9769 120.177V128.285" stroke="#58595B" stroke-width="0.5669" stroke-miterlimit="1"/>
<path d="M99.3846 123.708V116.908L97.6846 115.992L99.6462 111.808" stroke="#58595B" stroke-width="0.5669" stroke-miterlimit="1"/>
<path d="M99.6461 116.908L102.654 114.685L99.6461 111.808V116.908Z" stroke="#58595B" stroke-width="0.5669" stroke-miterlimit="1"/>
<path d="M71.7923 145.285V137.831L70.0923 136.915L72.0539 132.862" stroke="#58595B" stroke-width="0.5669" stroke-miterlimit="1"/>
<path d="M72.0538 137.831L75.0615 135.608L72.0538 132.862V137.831Z" stroke="#58595B" stroke-width="0.5669" stroke-miterlimit="1"/>
<path d="M89.3154 122.792L87.4846 121.615L89.7077 117.169" stroke="#58595B" stroke-width="0.5669" stroke-miterlimit="1"/>
<path d="M89.7077 122.792L92.8462 120.308L89.7077 117.169V122.792Z" stroke="#58595B" stroke-width="0.5669" stroke-miterlimit="1"/>
<path d="M80.1615 124.754L77.9385 129.2L79.7692 130.246V138.746" stroke="#58595B" stroke-width="0.5669" stroke-miterlimit="1"/>
<path d="M80.1615 130.246L83.4308 127.892L80.1615 124.754V130.246Z" stroke="#58595B" stroke-width="0.5669" stroke-miterlimit="1"/>
<path d="M102.392 121.485V114.946" stroke="#58595B" stroke-width="0.5669" stroke-miterlimit="1"/>
<path d="M74.5385 136V143.062" stroke="#58595B" stroke-width="0.5669" stroke-miterlimit="1"/>
<path d="M64.6 151.169L83.4308 136V127.892" stroke="#58595B" stroke-width="0.5669" stroke-miterlimit="1"/>
<path d="M55.7077 65.2538V72.7077" stroke="#58595B" stroke-width="0.5669" stroke-miterlimit="1"/>
<path d="M61.7231 67.2154V75.8462" stroke="#58595B" stroke-width="0.5669" stroke-miterlimit="1"/>
<path d="M66.9539 55.5769V73.3615" stroke="#58595B" stroke-width="0.5669" stroke-miterlimit="1"/>
<path d="M74.0154 51.6539V68.2616" stroke="#58595B" stroke-width="0.5669" stroke-miterlimit="1"/>
<path d="M58.7154 57.9308V51.6539" stroke="#58595B" stroke-width="0.5669" stroke-miterlimit="1"/>
<path d="M61.7231 33.2154V43.6769" stroke="#58595B" stroke-width="0.5669" stroke-miterlimit="1"/>
<path d="M70.4846 32.8231V43.6769" stroke="#58595B" stroke-width="0.5669" stroke-miterlimit="1"/>
<path d="M79.6385 76.8923C79.6385 76.8923 82.1231 86.3077 87.7461 87.3539C91.1461 88.0077 93.1077 85.7846 93.1077 85.7846V88.1385" stroke="#58595B" stroke-width="0.5669" stroke-miterlimit="10"/>
<path d="M80.0308 77.8077C80.0308 77.8077 83.8231 84.2154 87.6154 84.2154C88.7923 84.2154 90.7538 83.4308 90.7538 83.4308L93.1077 85" stroke="#58595B" stroke-width="0.5669" stroke-miterlimit="10"/>
<path d="M59.5 57.9308L66.9538 61.2" stroke="#58595B" stroke-width="0.5669" stroke-miterlimit="10"/>
<path d="M74.0154 51.6539L78.4615 53.6154" stroke="#58595B" stroke-width="0.5669" stroke-miterlimit="10"/>
<path d="M54.7923 64.6L61.7231 67.8692" stroke="#58595B" stroke-width="0.5669" stroke-miterlimit="10"/>
<path d="M59.5 57.9308C59.5 57.9308 55.3154 57.1462 55.1846 64.7308" stroke="#58595B" stroke-width="0.5669" stroke-miterlimit="10"/>
<path d="M66.9538 61.2C66.9538 61.2 61.8539 60.1539 61.8539 68.1308" stroke="#58595B" stroke-width="0.5669" stroke-miterlimit="10"/>
<path d="M74.0154 57.4077C74.0154 57.4077 77.1538 51 79.7692 54.7923V63.9461" stroke="#58595B" stroke-width="0.5669" stroke-miterlimit="1"/>
<path d="M74.5385 51.2615C74.6692 46.2923 72.0539 46.1615 71.1385 46.4231C69.9615 46.6846 68.3923 47.9923 67.7385 49.0384C66.5615 51 66.5615 53.0923 66.5615 53.0923C66.5615 53.0923 66.6923 51 66.3 49.3C65.9077 47.6 63.5539 44.5923 60.6769 45.2461C58.0615 45.7692 57.8 51.2615 57.8 51.2615L60.1538 52.7C60.1538 52.7 60.2846 48.7769 61.3308 48.3846C63.1615 47.7308 64.4692 50.2154 64.4692 54.1384L67.0846 55.5769L69.0462 54.4C69.0462 54.4 69.1769 50.0846 71.0077 49.6923C72.4462 49.3 72.8385 49.9538 72.8385 52.9615" stroke="#58595B" stroke-width="0.5669" stroke-miterlimit="1"/>
<path d="M72.5769 52.8308L74.5385 51.2615" stroke="#58595B" stroke-width="0.5669" stroke-miterlimit="1"/>
<path d="M58.9769 46.5539C58.9769 46.5539 60.0231 43.4154 61.8539 42.8923" stroke="#58595B" stroke-width="0.5669" stroke-miterlimit="10"/>
<path d="M73.4923 47.2077C73.4923 47.2077 73.1 44.4616 70.4846 42.8923" stroke="#58595B" stroke-width="0.5669" stroke-miterlimit="10"/>
<path d="M61.7231 43.6769C61.7231 43.6769 64.7308 45.3769 66.8231 45.1154C68.9154 44.8539 70.3539 43.6769 70.3539 43.6769" stroke="#58595B" stroke-width="0.5669" stroke-miterlimit="10"/>
<path d="M71.0077 29.1616C71.0077 29.1616 70.2231 31.3846 66.8231 31.3846C63.5538 31.3846 61.2 29.4231 61.2 29.4231C61.2 29.4231 59.5 30.7308 60.4154 31.9077C61.3308 33.0846 63.6846 33.7385 66.6923 33.7385C68.5231 33.7385 71.6615 33.0846 72.4461 31.7769C72.4461 31.2539 72.4462 29.8154 71.0077 29.1616Z" stroke="#58595B" stroke-width="0.5669" stroke-miterlimit="1"/>
<path d="M68.9154 14.3846C68.9154 14.3846 68.3923 15.9539 66.3 15.9539C64.3385 15.9539 62.9 14.6462 62.9 14.6462C62.9 14.6462 61.8539 15.5616 62.3769 16.477C62.9 17.3923 64.3385 17.7846 66.0385 17.7846C67.2154 17.7846 69.0462 17.2616 69.4385 16.3462C69.8308 15.8231 69.8308 14.6462 68.9154 14.3846Z" stroke="#58595B" stroke-width="0.5669" stroke-miterlimit="1"/>
<path d="M60.8077 29.8154C60.8077 29.8154 60.9385 25.6308 63.9462 24.7154" stroke="#58595B" stroke-width="0.5669" stroke-miterlimit="1"/>
<path d="M68.5231 24.3231C68.5231 24.3231 71.4 25.6308 70.7461 29.4231" stroke="#58595B" stroke-width="0.5669" stroke-miterlimit="1"/>
<path d="M63.9462 17.5231V24.8462C63.9462 24.8462 66.8231 27.0692 68.5231 24.5846V17" stroke="#58595B" stroke-width="0.5669" stroke-miterlimit="1"/>
<path d="M62.9 14.3846C62.9 14.3846 62.5077 12.1615 64.6 10.5923C66.8231 9.02305 66.1692 8.3692 66.1692 8.3692C66.1692 8.3692 66.4308 9.93843 67.3462 10.5923C68.3923 11.2461 69.5692 12.0307 68.7846 14.3846" stroke="#58595B" stroke-width="0.5669" stroke-miterlimit="1"/>
<path d="M66.3 3.26923V8.63076" stroke="#58595B" stroke-width="0.5669" stroke-miterlimit="1"/>
<path d="M38.0538 48.7769V59.1077" stroke="#58595B" stroke-width="0.5669" stroke-miterlimit="1"/>
<path d="M46.8154 48.2538V59.1077" stroke="#58595B" stroke-width="0.5669" stroke-miterlimit="1"/>
<path d="M38.0538 59.1077C38.0538 59.1077 41.0615 60.8077 43.1538 60.5461C45.2462 60.2846 46.6846 59.1077 46.6846 59.1077" stroke="#58595B" stroke-width="0.5669" stroke-miterlimit="10"/>
<path d="M47.3385 44.7231C47.3385 44.7231 46.5538 46.9462 43.1538 46.9462C39.8846 46.9462 37.5308 44.9846 37.5308 44.9846C37.5308 44.9846 35.8308 46.2923 36.7462 47.4692C37.6615 48.6462 40.0154 49.3 43.0231 49.3C44.8539 49.3 47.9923 48.6462 48.7769 47.3385C48.7769 46.6846 48.7769 45.2462 47.3385 44.7231Z" stroke="#58595B" stroke-width="0.5669" stroke-miterlimit="1"/>
<path d="M45.2462 29.8154C45.2462 29.8154 44.7231 31.3846 42.6308 31.3846C40.6692 31.3846 39.2308 30.0769 39.2308 30.0769C39.2308 30.0769 38.1846 30.9923 38.7077 31.9077C39.2308 32.8231 40.6692 33.2154 42.3692 33.2154C43.5462 33.2154 45.3769 32.6923 45.7692 31.7769C46.1615 31.2538 46.1615 30.2077 45.2462 29.8154Z" stroke="#58595B" stroke-width="0.5669" stroke-miterlimit="1"/>
<path d="M37.1385 45.2462C37.1385 45.2462 37.2692 41.0616 40.2769 40.1462" stroke="#58595B" stroke-width="0.5669" stroke-miterlimit="1"/>
<path d="M44.8539 39.8846C44.8539 39.8846 47.7308 41.1923 47.0769 44.9846" stroke="#58595B" stroke-width="0.5669" stroke-miterlimit="1"/>
<path d="M42.6308 10.0692V24.1923" stroke="#58595B" stroke-width="0.5669" stroke-miterlimit="1"/>
<path d="M40.0154 18.1769L45.2462 13.8615" stroke="#58595B" stroke-width="0.5669" stroke-miterlimit="1"/>
<path d="M64.7308 7.84616L68 5.23077" stroke="#58595B" stroke-width="0.5669" stroke-miterlimit="1"/>
<path d="M10.7231 111.023L31.9077 124.623" stroke="#58595B" stroke-width="0.5669" stroke-miterlimit="1"/>
<path d="M10.4615 93.7615L44.2 114.946" stroke="#58595B" stroke-width="0.5669" stroke-miterlimit="1"/>
<path d="M67.4769 75.7154V108.408" stroke="#58595B" stroke-width="0.5669" stroke-miterlimit="1"/>
<path d="M67.4769 112.331V136.523" stroke="#58595B" stroke-width="0.5669" stroke-miterlimit="1"/>
<path d="M75.0615 105.662V130.9" stroke="#58595B" stroke-width="0.5669" stroke-miterlimit="1"/>
<path d="M80.1615 101.346V123.969" stroke="#58595B" stroke-width="0.5669" stroke-miterlimit="1"/>
<path d="M90.7538 93.8923V118.215" stroke="#58595B" stroke-width="0.5669" stroke-miterlimit="1"/>
<path d="M75.0615 70.3538V102.523" stroke="#58595B" stroke-width="0.5669" stroke-miterlimit="1"/>
<path d="M24.8462 68L25.5 68.7846" stroke="#58595B" stroke-width="0.5669" stroke-miterlimit="1"/>
<path d="M22.2308 84.0846V62.9" stroke="#58595B" stroke-width="0.5669" stroke-miterlimit="1"/>
<path d="M18.7 61.3307L22.2308 65.7769L25.2385 67.7384" stroke="#58595B" stroke-width="0.5669" stroke-miterlimit="1"/>
<path d="M25.5 71.2692L54.2692 89.0538" stroke="#58595B" stroke-width="0.5669" stroke-miterlimit="1"/>
<path d="M61.3308 113.508V91.6693" stroke="#58595B" stroke-width="0.5669" stroke-miterlimit="1"/>
<path d="M41.4538 49.3V60.6769" stroke="#58595B" stroke-width="0.5669" stroke-miterlimit="1"/>
<path d="M64.7308 33.8693V44.8539" stroke="#58595B" stroke-width="0.5669" stroke-miterlimit="1"/>
<path d="M67.7385 33.8693V44.8539" stroke="#58595B" stroke-width="0.5669" stroke-miterlimit="1"/>
<path d="M44.7231 48.9077V60.2846" stroke="#58595B" stroke-width="0.5669" stroke-miterlimit="1"/>
<path d="M39.2308 29.8154C39.2308 29.8154 38.8385 27.5923 40.9308 26.0231C43.0231 24.4538 42.5 23.8 42.5 23.8C42.5 23.8 42.7615 25.3692 43.6769 26.0231C44.7231 26.6769 45.9 27.4615 45.1154 29.8154" stroke="#58595B" stroke-width="0.5669" stroke-miterlimit="1"/>
<path d="M40.2769 33.0846V40.4077C40.2769 40.4077 43.1538 42.6308 44.8538 40.1461V32.5615" stroke="#58595B" stroke-width="0.5669" stroke-miterlimit="1"/>
<path d="M91.6692 117.954L92.9769 116.908" stroke="#58595B" stroke-width="0.5669" stroke-miterlimit="1"/>
<path d="M81.9923 125.538L86.8308 121.746" stroke="#58595B" stroke-width="0.5669" stroke-miterlimit="1"/>
<path d="M73.1 132.338L77.1539 129.331" stroke="#58595B" stroke-width="0.5669" stroke-miterlimit="1"/>
<path d="M64.6 139.008L70.4846 134.562" stroke="#58595B" stroke-width="0.5669" stroke-miterlimit="1"/>
<path d="M67.4769 103.046V85.9154C67.4769 85.9154 67.2154 83.8231 68.6538 82.5154C69.5692 81.6 72.0538 80.2923 72.1846 83.6923C72.3154 86.3077 72.0539 99.3846 72.0539 99.3846L67.4769 103.046Z" stroke="#58595B" stroke-width="0.5669" stroke-miterlimit="1"/>
<path d="M67.4769 136.785V123.054C67.4769 123.054 67.3462 120.569 69.4385 118.869C71.5308 117.169 73.4923 119.131 73.6231 120.438C73.6231 121.746 73.6231 132.077 73.6231 132.077L67.4769 136.785Z" stroke="#58595B" stroke-width="0.5669" stroke-miterlimit="1"/>
<path d="M70.4846 118.477V134.169" stroke="#58595B" stroke-width="0.5669" stroke-miterlimit="1"/>
<path d="M83.4308 119.915L87.4846 116.646V107.885C87.4846 107.885 87.3538 105.662 85.7846 105.792C84.2154 105.923 83.4308 108.277 83.4308 109.715C83.4308 111.154 83.4308 119.915 83.4308 119.915Z" stroke="#58595B" stroke-width="0.5669" stroke-miterlimit="5"/>
<path d="M70.4846 137.177V138.354L64.6 142.8" stroke="#58595B" stroke-width="0.5669" stroke-miterlimit="1"/>
<path d="M78.7231 129.592V132.077L74.5385 135.215" stroke="#58595B" stroke-width="0.5669" stroke-miterlimit="1"/>
<path d="M74.5385 136.915L79.7692 132.862L78.5923 131.946" stroke="#58595B" stroke-width="0.5669" stroke-miterlimit="1"/>
<path d="M98.2077 116.254V117.692L92.9769 121.485" stroke="#58595B" stroke-width="0.5669" stroke-miterlimit="1"/>
<path d="M92.9769 123.315L99.2539 118.477L97.9462 117.562" stroke="#58595B" stroke-width="0.5669" stroke-miterlimit="1"/>
<path d="M64.6 144.631L71.7923 139.008L70.4846 138.354" stroke="#58595B" stroke-width="0.5669" stroke-miterlimit="1"/>
<path d="M89.3154 131.031L88.0077 130.115V121.877" stroke="#58595B" stroke-width="0.5669" stroke-miterlimit="1"/>
<path d="M37.1385 29.8154L38.7077 28.9" stroke="#58595B" stroke-width="0.5669" stroke-miterlimit="1"/>
<path d="M53.3539 167.908C71.2692 153.523 89.7077 139.138 89.7077 139.138C89.7077 139.138 150.777 90.2308 156.138 86.4385C157.708 85.3923 160.323 83.3 166.862 77.9385" stroke="#58595B" stroke-width="0.5669" stroke-miterlimit="1"/>
<rect x="1.5" y="1.5" width="167" height="167" rx="13.5" stroke="#2D6598" stroke-width="3"/>
</svg>
