<svg width="170" height="171" viewBox="0 0 170 171" fill="none" xmlns="http://www.w3.org/2000/svg">
<rect x="1.5" y="1.5" width="167" height="167" rx="13.5" fill="white"/>
<path d="M19.3539 81.3385L50.6077 55.0539L22.6231 21.8385L6.14617 35.7L20.7923 52.9616L6.0154 65.5154L19.3539 81.3385Z" fill="#C4CDCF" stroke="#2D6598" stroke-width="1.1339" stroke-miterlimit="10"/>
<path d="M56.2847 62.243L28.2884 86.446L44.1102 104.748L72.1065 80.5445L56.2847 62.243Z" fill="#C4CDCF" stroke="#2D6598" stroke-width="1.1339" stroke-miterlimit="10"/>
<path d="M26.8818 98.5327L7.19537 115.552L23.0171 133.853L42.7036 116.834L26.8818 98.5327Z" fill="#C4CDCF" stroke="#2D6598" stroke-width="1.1339" stroke-miterlimit="10"/>
<path d="M131.208 50.2411L94.6433 7.86682L76.3273 23.6717L112.892 66.046L131.208 50.2411Z" fill="#C4CDCF" stroke="#2D6598" stroke-width="1.1339" stroke-miterlimit="10"/>
<path d="M165.01 39.3183L142.456 13.1808L131.169 22.92L153.723 49.0575L165.01 39.3183Z" fill="#C4CDCF" stroke="#2D6598" stroke-width="1.1339" stroke-miterlimit="10"/>
<path d="M160.364 82.7585L141.312 60.6803L122.997 76.4851L142.048 98.5633L160.364 82.7585Z" fill="#C4CDCF" stroke="#2D6598" stroke-width="1.1339" stroke-miterlimit="10"/>
<path d="M127.631 139.661L100.3 109.977L99.9077 110.369L99.6462 110.108L66.4308 142.015L82.9077 159.538L98.8615 144.5L110.108 156.269L127.631 139.661Z" fill="#C4CDCF" stroke="#2D6598" stroke-width="1.1339" stroke-miterlimit="10"/>
<path d="M114.292 75.9769L117.038 73.4923" stroke="#2D6598" stroke-width="1.1339" stroke-miterlimit="1"/>
<path d="M120.308 70.4846L138.092 54.2692" stroke="#2D6598" stroke-width="1.1339" stroke-miterlimit="1" stroke-dasharray="6.71 3.35"/>
<path d="M139.792 52.8308L142.538 50.3462L140.054 47.4692" stroke="#2D6598" stroke-width="1.1339" stroke-miterlimit="1"/>
<path d="M137.7 44.7231L103.308 4.96924" stroke="#2D6598" stroke-width="1.1339" stroke-miterlimit="1" stroke-dasharray="5.55 2.77"/>
<path d="M102.131 3.53076L99.7769 0.784607" stroke="#2D6598" stroke-width="1.1339" stroke-miterlimit="1"/>
<path d="M142.538 139.792L139.792 142.277" stroke="#2D6598" stroke-width="1.1339" stroke-miterlimit="1"/>
<path d="M137.046 144.762L114.031 166.077" stroke="#2D6598" stroke-width="1.1339" stroke-miterlimit="1" stroke-dasharray="5.64 2.82"/>
<path d="M112.723 167.385L109.977 169.869" stroke="#2D6598" stroke-width="1.1339" stroke-miterlimit="1"/>
<path d="M51.7846 5.23077L166.077 134.038" stroke="#2D6598" stroke-width="1.1339" stroke-miterlimit="10"/>
<path d="M7.84616 157.577L90.1 81.0769C54.2692 40.5385 21.8385 4.18463 21.8385 4.18463" stroke="#2D6598" stroke-width="1.1339" stroke-miterlimit="10"/>
<path d="M160.192 158.885C160.062 157.838 133.777 130.246 100.692 92.8461L24.1923 165.685" stroke="#2D6598" stroke-width="1.1339" stroke-miterlimit="10"/>
<path d="M53.4437 143.019L43.279 152.444L56.4377 166.636L66.6023 157.211L53.4437 143.019Z" fill="#C4CDCF" stroke="#2D6598" stroke-width="1.1339" stroke-miterlimit="1"/>
<path d="M24.6731 115.811H21.4431V115.021L24.3831 110.741H25.5031V115.121H26.2031V115.811H25.5031V117.231H24.6731V115.811ZM24.6731 115.121V111.531L22.2431 115.121H24.6731Z" fill="#474747"/>
<path d="M53.66 156.562C53.1 156.562 52.47 156.498 51.77 156.372V155.652C52.5633 155.818 53.2267 155.902 53.76 155.902C54.6467 155.902 55.09 155.652 55.09 155.152V154.042C55.09 153.768 54.9433 153.588 54.65 153.502C54.51 153.468 54.3833 153.448 54.27 153.442C54.1633 153.428 54.0233 153.422 53.85 153.422H52.6V152.802H53.68C53.8533 152.802 53.9933 152.798 54.1 152.792C54.2067 152.778 54.33 152.752 54.47 152.712C54.6167 152.678 54.73 152.615 54.81 152.522C54.89 152.428 54.93 152.308 54.93 152.162V151.002C54.93 150.662 54.53 150.492 53.73 150.492C53.1967 150.492 52.5867 150.545 51.9 150.652V149.962C52.4733 149.902 53.08 149.872 53.72 149.872C54.46 149.872 54.9967 149.955 55.33 150.122C55.67 150.282 55.84 150.558 55.84 150.952V152.202C55.84 152.408 55.7567 152.582 55.59 152.722C55.4233 152.855 55.21 152.942 54.95 152.982V153.022C55.11 153.048 55.24 153.078 55.34 153.112C55.4467 153.138 55.56 153.182 55.68 153.242C55.9133 153.362 56.03 153.572 56.03 153.872V155.172C56.03 155.398 55.98 155.602 55.88 155.782C55.78 155.962 55.6533 156.102 55.5 156.202C55.3667 156.295 55.19 156.372 54.97 156.432C54.75 156.485 54.5333 156.522 54.32 156.542C54.0667 156.555 53.8467 156.562 53.66 156.562Z" fill="#474747"/>
<path d="M98.6515 127.333L96.6815 128.623V127.803L98.6615 126.433H99.5215V132.923H98.6515V127.333Z" fill="#474747"/>
<path d="M48.0523 84.0003C48.0523 83.8136 48.0823 83.6403 48.1423 83.4803C48.209 83.3136 48.2923 83.1736 48.3923 83.0603C48.4723 82.9669 48.5923 82.8669 48.7523 82.7603C48.919 82.6469 49.0756 82.5536 49.2223 82.4803C49.349 82.4136 49.5156 82.3369 49.7223 82.2503L50.8023 81.7703C51.229 81.5836 51.4423 81.2936 51.4423 80.9003V80.0103C51.4423 79.7036 51.349 79.5003 51.1623 79.4003C50.9756 79.2936 50.649 79.2403 50.1823 79.2403C49.7223 79.2403 49.089 79.3103 48.2823 79.4503V78.7503C48.9556 78.6236 49.6523 78.5603 50.3723 78.5603C51.0923 78.5603 51.6123 78.6703 51.9323 78.8903C52.2523 79.1036 52.4123 79.4636 52.4123 79.9703V81.0303C52.4123 81.2703 52.3723 81.4703 52.2923 81.6303C52.2123 81.7836 52.0823 81.9236 51.9023 82.0503C51.729 82.1703 51.4723 82.3069 51.1323 82.4603L49.6323 83.1503C49.1923 83.3503 48.9723 83.6436 48.9723 84.0303V84.4603H52.4123V85.1603H48.0523V84.0003Z" fill="#474747"/>
<path d="M65.763 39.871L68.638 34.2598L69.4252 35.1334L66.9883 39.5099L67.0044 39.5277L71.5057 37.4424L72.2367 38.2536L64.1157 41.646L63.3606 40.808L65.763 39.871ZM68.4348 42.7286C68.3545 42.6395 68.2858 42.5453 68.2286 42.446L68.9151 41.8275C68.9722 41.9268 69.0383 42.018 69.1132 42.1012C69.3435 42.3568 69.7098 42.3928 70.2122 42.2094C70.7258 42.0265 71.4849 41.4826 72.4893 40.5775L73.5056 39.6618L76.1483 42.5948L71.8336 46.4827L71.1106 45.6803L74.8994 42.2664L73.6222 40.8489L72.9982 41.4112C72.0175 42.2948 71.1375 42.8778 70.3581 43.1601C69.5847 43.4371 68.9436 43.2932 68.4348 42.7286ZM73.982 46.9309L74.9138 47.965L73.951 48.8325L73.0192 47.7984L73.982 46.9309ZM80.8538 56.4933L77.0382 52.2587L82.8239 47.0455L83.6031 47.9102L78.4236 52.5773L80.7933 55.2071L85.9728 50.5401L86.752 51.4048L81.5725 56.0719L82.1347 56.6959L80.3161 58.3346L79.6414 57.5857L80.8538 56.4933ZM86.75 54.3605L88.453 56.2504C88.801 56.6367 89.0557 56.9672 89.2171 57.2418C89.3843 57.5111 89.4626 57.7474 89.4521 57.9508C89.4421 58.1429 89.397 58.302 89.3168 58.4281C89.2366 58.5542 89.1014 58.7029 88.9112 58.8743L88.7596 59.0109C88.5278 59.2197 88.3019 59.3156 88.0819 59.2985C87.8619 59.2813 87.5963 59.1599 87.2852 58.9341L87.2495 58.9662C87.7519 59.7628 87.7623 60.3779 87.2809 60.8117L87.0224 61.0446C86.7312 61.307 86.4488 61.4538 86.1753 61.4849C85.9131 61.5165 85.6258 61.4308 85.3135 61.2276C85.0012 61.0244 84.6282 60.6821 84.1944 60.2007L82.4352 58.2484L86.75 54.3605ZM86.6986 57.9605C86.9128 58.1982 87.0913 58.3604 87.2341 58.4471C87.3828 58.5285 87.5175 58.5525 87.6382 58.5192C87.7648 58.4804 87.9173 58.3807 88.0956 58.2201L88.149 58.1719C88.3095 58.0273 88.407 57.8964 88.4414 57.7793C88.4811 57.668 88.4597 57.5366 88.3769 57.385C88.3055 57.2341 88.16 57.0367 87.9404 56.793L86.9202 55.6609L85.6543 56.8015L86.6986 57.9605ZM84.8141 59.7232C85.0657 60.0025 85.2737 60.1974 85.4379 60.3079C85.6021 60.4184 85.7469 60.4656 85.8723 60.4495C86.0037 60.428 86.1497 60.345 86.3101 60.2004L86.5954 59.9433C86.744 59.8094 86.8126 59.6346 86.8011 59.4187C86.7784 59.2023 86.593 58.9009 86.2449 58.5146L85.1284 57.2755L83.7377 58.5286L84.8141 59.7232ZM88.5413 65.2042C87.3525 63.8848 87.1978 62.8288 88.0774 62.0362L89.7802 60.502C90.3032 60.0307 90.8115 59.8419 91.3051 59.9356C91.81 60.0298 92.365 60.4127 92.9701 61.0843C93.5431 61.7202 93.8455 62.2769 93.8773 62.7544C93.9145 63.2378 93.6626 63.7232 93.1218 64.2105L92.1679 65.07L89.5573 62.1727L88.9065 62.7591C88.6093 63.0269 88.4891 63.3237 88.5458 63.6495C88.6025 63.9753 88.8263 64.3552 89.2172 64.789C89.5867 65.1991 90.0945 65.6192 90.7405 66.0493L90.1254 66.6036C89.5138 66.1639 88.9858 65.6975 88.5413 65.2042ZM91.9709 63.7938L92.6485 63.1833C92.91 62.9476 93.016 62.7068 92.9665 62.4606C92.9283 62.215 92.7378 61.9021 92.3951 61.5217C92.0631 61.1532 91.7716 60.9313 91.5206 60.8559C91.2755 60.7752 91.0223 60.8527 90.7608 61.0883L90.0832 61.6988L91.9709 63.7938ZM95.997 65.8059L94.6314 64.2904L95.2198 63.7603L98.6659 67.5847L98.0775 68.1149L96.7199 66.6083L92.9935 69.966L92.2706 69.1636L95.997 65.8059ZM96.7783 74.3455C96.4355 73.9652 96.1934 73.6665 96.0517 73.4496C95.9041 73.2379 95.7892 72.9969 95.707 72.7264C95.6194 72.4499 95.6335 72.1788 95.7493 71.9129C95.8711 71.6417 96.1013 71.3534 96.4401 71.0482L97.9378 69.6987C98.2052 69.4577 98.4694 69.2789 98.7304 69.1622C98.9914 69.0455 99.2265 68.9897 99.4358 68.9949C99.6172 68.9931 99.8149 69.0572 100.029 69.1873C100.255 69.3179 100.462 69.4703 100.651 69.6445C100.856 69.8477 101.062 70.0652 101.271 70.297C101.55 70.6061 101.75 70.8459 101.871 71.0165C102.004 71.1876 102.127 71.3838 102.24 71.6049C102.352 71.8374 102.401 72.0523 102.385 72.2497C102.369 72.4472 102.292 72.6726 102.154 72.926C102.005 73.1788 101.794 73.4283 101.52 73.6747L100.023 75.0242C99.5175 75.4794 99.0446 75.6955 98.604 75.6726C98.4232 75.6632 98.2258 75.5934 98.0116 75.4633C97.7975 75.3332 97.5958 75.1811 97.4066 75.007C97.1912 74.7919 96.9818 74.5714 96.7783 74.3455ZM97.3042 73.8716C97.5292 74.1212 97.6984 74.2971 97.8121 74.3993C97.9257 74.5015 98.0575 74.582 98.2074 74.6408C98.3513 74.705 98.4955 74.7096 98.64 74.6548C98.7957 74.6006 98.9717 74.4852 99.1678 74.3085L100.915 72.734C101.183 72.493 101.346 72.2863 101.406 72.1138C101.472 71.936 101.451 71.7508 101.342 71.5582C101.244 71.3662 101.045 71.1038 100.745 70.7709C100.445 70.4381 100.202 70.2102 100.016 70.0872C99.8413 69.9649 99.662 69.9272 99.4783 69.9743C99.3006 70.016 99.0779 70.1574 98.8105 70.3983L97.0632 71.9728C96.8671 72.1495 96.7313 72.3095 96.6559 72.4529C96.5917 72.5968 96.5841 72.7437 96.6329 72.8935C96.6758 73.0487 96.7422 73.1881 96.8321 73.3117C96.9219 73.4354 97.0793 73.622 97.3042 73.8716ZM104.356 78.6685C103.877 78.9607 103.246 78.673 102.464 77.8053C101.966 77.2526 101.713 76.7749 101.706 76.3724C101.71 75.9704 101.926 75.5766 102.354 75.191L104.101 73.6166L104.824 74.4189L103.13 75.9452C102.857 76.1915 102.734 76.4315 102.761 76.6652C102.789 76.8989 102.952 77.1821 103.252 77.5149C103.547 77.8418 103.79 78.0697 103.981 78.1986C104.184 78.3281 104.363 78.3771 104.518 78.3455C104.678 78.3198 104.85 78.224 105.034 78.058L106.728 76.5318L107.451 77.3341L103.136 81.222L102.413 80.4196L104.356 78.6685ZM108.706 78.7269L109.429 79.5293L107.637 81.1439L109.549 83.2656L111.34 81.651L112.063 82.4533L107.749 86.3412L107.026 85.5389L108.96 83.7958L107.048 81.674L105.114 83.4172L104.391 82.6148L108.706 78.7269ZM110.111 89.1425C109.742 88.7324 109.494 88.3797 109.368 88.0842C109.247 87.7947 109.239 87.511 109.344 87.2333C109.454 86.9615 109.694 86.6596 110.062 86.3275C110.389 86.033 110.682 85.85 110.941 85.7785C111.211 85.7075 111.483 85.7472 111.759 85.8975C112.039 86.0537 112.364 86.3369 112.734 86.747L113.899 88.0396L114.585 87.4211C114.746 87.2765 114.838 87.134 114.862 86.9937C114.898 86.8539 114.867 86.6937 114.768 86.513C114.676 86.3382 114.503 86.1112 114.252 85.8318C113.85 85.3861 113.37 84.9249 112.811 84.4484L113.4 83.9182C113.983 84.4584 114.489 84.9662 114.918 85.4416C115.367 85.9409 115.661 86.3442 115.798 86.6515C115.941 86.9535 115.96 87.2321 115.856 87.4872C115.752 87.7424 115.507 88.044 115.121 88.3921L112.072 91.1393L111.373 90.3637L111.783 89.9942C111.392 90.2287 110.834 89.9448 110.111 89.1425ZM110.758 88.8023C111.02 89.0935 111.263 89.3214 111.487 89.486C111.781 89.7052 112.027 89.7265 112.223 89.5498L113.4 88.4894L112.283 87.2503C112.053 86.9947 111.866 86.8292 111.723 86.7538C111.585 86.673 111.447 86.663 111.308 86.7237C111.169 86.7845 110.98 86.9219 110.742 87.1361C110.529 87.3289 110.381 87.4997 110.299 87.6484C110.224 87.7917 110.208 87.941 110.251 88.0962C110.3 88.246 110.42 88.4279 110.613 88.6418L110.758 88.8023ZM120.773 92.1197L116.459 96.0076L115.736 95.2052L117.287 93.8075L116.435 92.8626L113.896 93.1637L112.94 92.1029L115.832 91.888C115.58 91.5011 115.468 91.1553 115.495 90.8509C115.533 90.547 115.701 90.2612 115.998 89.9934L116.462 89.5757C116.771 89.2972 117.04 89.13 117.27 89.074C117.505 89.0239 117.746 89.0761 117.992 89.2305C118.245 89.3796 118.556 89.6592 118.926 90.0693L120.773 92.1197ZM119.498 91.8154L118.445 90.6476C118.247 90.4277 118.082 90.2803 117.95 90.2054C117.818 90.1306 117.689 90.1125 117.562 90.1513C117.441 90.1959 117.294 90.2959 117.122 90.4512L116.819 90.7243C116.587 90.9332 116.457 91.1473 116.428 91.3668C116.405 91.5921 116.495 91.8178 116.699 92.0436L117.84 93.3095L119.498 91.8154Z" fill="#474747"/>
<path d="M103.472 41.4846C102.932 41.4846 102.296 41.4246 101.562 41.3046V40.5846C102.336 40.7446 102.982 40.8246 103.502 40.8246C103.909 40.8246 104.206 40.768 104.392 40.6546C104.586 40.5346 104.682 40.3413 104.682 40.0746V38.7846C104.682 38.5046 104.562 38.3246 104.322 38.2446C104.209 38.2113 104.102 38.1913 104.002 38.1846C103.909 38.1713 103.786 38.1646 103.632 38.1646H101.712V34.8946H105.452V35.5746H102.612V37.5446H104.112C104.379 37.5446 104.616 37.578 104.822 37.6446C105.029 37.7046 105.212 37.8113 105.372 37.9646C105.539 38.1313 105.622 38.348 105.622 38.6146V40.0946C105.622 40.328 105.579 40.5346 105.492 40.7146C105.412 40.888 105.302 41.0246 105.162 41.1246C105.036 41.218 104.872 41.2946 104.672 41.3546C104.479 41.4146 104.286 41.4513 104.092 41.4646C103.852 41.478 103.646 41.4846 103.472 41.4846Z" fill="#474747"/>
<path d="M148.186 27.6985H144.466V27.0485H149.026V27.6985L146.546 33.5385H145.586L148.186 27.6985Z" fill="#474747"/>
<path d="M138.66 82.0231C138.1 82.0231 137.47 81.9598 136.77 81.8331V81.1131C137.563 81.2798 138.227 81.3631 138.76 81.3631C139.647 81.3631 140.09 81.1131 140.09 80.6131V79.5031C140.09 79.2298 139.943 79.0498 139.65 78.9631C139.51 78.9298 139.383 78.9098 139.27 78.9031C139.163 78.8898 139.023 78.8831 138.85 78.8831H137.6V78.2631H138.68C138.853 78.2631 138.993 78.2598 139.1 78.2531C139.207 78.2398 139.33 78.2131 139.47 78.1731C139.617 78.1398 139.73 78.0764 139.81 77.9831C139.89 77.8898 139.93 77.7698 139.93 77.6231V76.4631C139.93 76.1231 139.53 75.9531 138.73 75.9531C138.197 75.9531 137.587 76.0064 136.9 76.1131V75.4231C137.473 75.3631 138.08 75.3331 138.72 75.3331C139.46 75.3331 139.997 75.4164 140.33 75.5831C140.67 75.7431 140.84 76.0198 140.84 76.4131V77.6631C140.84 77.8698 140.757 78.0431 140.59 78.1831C140.423 78.3164 140.21 78.4031 139.95 78.4431V78.4831C140.11 78.5098 140.24 78.5398 140.34 78.5731C140.447 78.5998 140.56 78.6431 140.68 78.7031C140.913 78.8231 141.03 79.0331 141.03 79.3331V80.6331C141.03 80.8598 140.98 81.0631 140.88 81.2431C140.78 81.4231 140.653 81.5631 140.5 81.6631C140.367 81.7564 140.19 81.8331 139.97 81.8931C139.75 81.9464 139.533 81.9831 139.32 82.0031C139.067 82.0164 138.847 82.0231 138.66 82.0231Z" fill="#474747"/>
<path d="M31.6592 54.5615C31.3659 54.5615 31.1292 54.5515 30.9492 54.5315C30.7692 54.5115 30.5826 54.4715 30.3892 54.4115C30.1826 54.3515 30.0192 54.2649 29.8992 54.1515C29.7792 54.0315 29.6792 53.8649 29.5992 53.6515C29.5192 53.4382 29.4792 53.1882 29.4792 52.9015V49.6215C29.4792 49.3215 29.5259 49.0582 29.6192 48.8315C29.7192 48.6049 29.8459 48.4249 29.9992 48.2915C30.1326 48.1782 30.3126 48.0882 30.5392 48.0215C30.7659 47.9482 30.9926 47.9015 31.2192 47.8815C31.4726 47.8682 31.7026 47.8615 31.9092 47.8615C32.3159 47.8615 32.8626 47.8915 33.5492 47.9515V48.6315C32.8626 48.5449 32.2726 48.5015 31.7792 48.5015C31.4059 48.5015 31.1226 48.5282 30.9292 48.5815C30.7359 48.6349 30.5926 48.7415 30.4992 48.9015C30.4126 49.0549 30.3692 49.2882 30.3692 49.6015V50.6215H31.8392C32.1726 50.6215 32.4226 50.6282 32.5892 50.6415C32.7559 50.6549 32.9326 50.6815 33.1192 50.7215C33.3059 50.7615 33.4426 50.8282 33.5292 50.9215C33.6226 51.0149 33.7026 51.1482 33.7692 51.3215C33.8292 51.4882 33.8592 51.6982 33.8592 51.9515V52.9015C33.8592 53.6215 33.6326 54.0882 33.1792 54.3015C32.9592 54.4015 32.7392 54.4682 32.5192 54.5015C32.2992 54.5415 32.0126 54.5615 31.6592 54.5615ZM31.6792 53.9715C32.0326 53.9715 32.2959 53.9482 32.4692 53.9015C32.6492 53.8482 32.7759 53.7515 32.8492 53.6115C32.9292 53.4649 32.9692 53.2449 32.9692 52.9515V51.9815C32.9692 51.7615 32.9359 51.5982 32.8692 51.4915C32.8026 51.3782 32.6792 51.3015 32.4992 51.2615C32.3192 51.2215 32.0426 51.2015 31.6692 51.2015H30.3692V52.9515C30.3692 53.2449 30.4092 53.4649 30.4892 53.6115C30.5692 53.7515 30.6992 53.8482 30.8792 53.9015C31.0592 53.9482 31.3259 53.9715 31.6792 53.9715Z" fill="#474747"/>
<path d="M149.469 43.9384L142.538 50.3461" stroke="#2D6598" stroke-width="1.1339" stroke-miterlimit="1" stroke-dasharray="5.67 2.83"/>
<rect x="1.5" y="1.5" width="167" height="167" rx="13.5" stroke="#2D6598" stroke-width="3"/>
</svg>
