<svg width="40" height="41" viewBox="0 0 40 41" fill="none" xmlns="http://www.w3.org/2000/svg">
<path d="M30.6759 12.2238C32.0014 12.2238 33.0759 11.1493 33.0759 9.82383C33.0759 8.49835 32.0014 7.42383 30.6759 7.42383C29.3505 7.42383 28.2759 8.49835 28.2759 9.82383C28.2759 11.1493 29.3505 12.2238 30.6759 12.2238Z" fill="white"/>
<path d="M20 10.2297C17.9687 10.2297 15.983 10.8321 14.2941 11.9606C12.6051 13.0891 11.2887 14.6931 10.5114 16.5698C9.73406 18.4464 9.53068 20.5115 9.92696 22.5037C10.3232 24.496 11.3014 26.326 12.7377 27.7623C14.1741 29.1986 16.0041 30.1768 17.9963 30.5731C19.9886 30.9693 22.0536 30.766 23.9302 29.9886C25.8069 29.2113 27.4109 27.8949 28.5394 26.206C29.6679 24.517 30.2703 22.5314 30.2703 20.5001C30.2703 17.7762 29.1882 15.1639 27.2622 13.2378C25.3361 11.3118 22.7238 10.2297 20 10.2297ZM20 27.1667C18.6814 27.1667 17.3925 26.7757 16.2962 26.0432C15.1998 25.3107 14.3453 24.2695 13.8408 23.0513C13.3362 21.8331 13.2041 20.4927 13.4614 19.1995C13.7186 17.9063 14.3536 16.7184 15.2859 15.786C16.2183 14.8537 17.4061 14.2187 18.6993 13.9615C19.9926 13.7043 21.333 13.8363 22.5512 14.3409C23.7693 14.8455 24.8105 15.6999 25.5431 16.7963C26.2756 17.8926 26.6666 19.1815 26.6666 20.5001C26.6666 22.2682 25.9642 23.9639 24.714 25.2141C23.4638 26.4644 21.7681 27.1667 20 27.1667Z" fill="white"/>
<path d="M20 4.10367C25.3402 4.10367 25.9728 4.124 28.0817 4.22033C29.3499 4.23543 30.6061 4.46838 31.7955 4.909C32.658 5.24181 33.4413 5.75146 34.095 6.40516C34.7487 7.05887 35.2584 7.84217 35.5912 8.70467C36.0318 9.89402 36.2647 11.1502 36.2798 12.4185C36.376 14.5273 36.3965 15.16 36.3965 20.5002C36.3965 25.8403 36.3762 26.473 36.2798 28.5818C36.2647 29.8501 36.0318 31.1063 35.5912 32.2957C35.2584 33.1582 34.7487 33.9415 34.095 34.5952C33.4413 35.2489 32.658 35.7585 31.7955 36.0913C30.6061 36.532 29.3499 36.7649 28.0817 36.78C25.973 36.8762 25.3407 36.8967 20 36.8967C14.6593 36.8967 14.027 36.8763 11.9183 36.78C10.6501 36.7649 9.39385 36.532 8.2045 36.0913C7.342 35.7585 6.55871 35.2489 5.905 34.5952C5.25129 33.9415 4.74164 33.1582 4.40883 32.2957C3.96821 31.1063 3.73526 29.8501 3.72017 28.5818C3.624 26.473 3.6035 25.8403 3.6035 20.5002C3.6035 15.16 3.62383 14.5273 3.72017 12.4185C3.73526 11.1502 3.96821 9.89402 4.40883 8.70467C4.74162 7.84214 5.25126 7.05881 5.90497 6.40507C6.55868 5.75133 7.34198 5.24166 8.2045 4.90883C9.39385 4.46821 10.6501 4.23526 11.9183 4.22017C14.0272 4.124 14.6598 4.10367 20 4.10367ZM20 0.5C14.5683 0.5 13.8872 0.523 11.754 0.620333C10.0951 0.653638 8.45382 0.967983 6.9 1.55C5.57122 2.06386 4.36446 2.84967 3.35706 3.85706C2.34967 4.86446 1.56386 6.07122 1.05 7.4C0.46789 8.95409 0.153544 10.5956 0.120333 12.2548C0.0229997 14.3872 0 15.0683 0 20.5C0 25.9317 0.0229997 26.6128 0.120333 28.746C0.153564 30.4052 0.467909 32.0467 1.05 33.6008C1.56386 34.9296 2.34967 36.1364 3.35706 37.1438C4.36446 38.1512 5.57122 38.937 6.9 39.4508C8.45409 40.0329 10.0956 40.3473 11.7548 40.3805C13.8872 40.477 14.5683 40.5 20 40.5C25.4317 40.5 26.1128 40.477 28.246 40.3797C29.9052 40.3464 31.5467 40.0321 33.1008 39.45C34.4296 38.9361 35.6364 38.1503 36.6438 37.1429C37.6512 36.1355 38.437 34.9288 38.9508 33.6C39.5329 32.0459 39.8473 30.4044 39.8805 28.7452C39.977 26.6128 40 25.9317 40 20.5C40 15.0683 39.977 14.3872 39.8797 12.254C39.8464 10.5951 39.532 8.95382 38.95 7.4C38.436 6.07138 37.6502 4.86478 36.6428 3.85753C35.6354 2.85028 34.4287 2.0646 33.1 1.55083C31.5459 0.968742 29.9044 0.654397 28.2452 0.621167C26.1128 0.523 25.4317 0.5 20 0.5Z" fill="white"/>
</svg>
