<svg width="35" height="34" viewBox="0 0 35 34" fill="none" xmlns="http://www.w3.org/2000/svg">
<g clip-path="url(#clip0_488_716)">
<path d="M32.2 0H11.2C10.4576 0.000741267 9.74586 0.295979 9.22092 0.82092C8.69598 1.34586 8.40074 2.05762 8.4 2.8V23.1788C7.55266 22.6745 6.58603 22.4057 5.6 22.4C4.49243 22.4 3.40972 22.7284 2.48881 23.3438C1.56789 23.9591 0.850128 24.8337 0.426277 25.857C0.00242639 26.8802 -0.108472 28.0062 0.107605 29.0925C0.323682 30.1788 0.85703 31.1766 1.6402 31.9598C2.42338 32.743 3.4212 33.2763 4.5075 33.4924C5.59379 33.7085 6.71976 33.5976 7.74303 33.1737C8.7663 32.7499 9.6409 32.0321 10.2562 31.1112C10.8716 30.1903 11.2 29.1076 11.2 28V11.2H32.2V23.1787C31.3527 22.6744 30.386 22.4056 29.4 22.4C28.2924 22.4 27.2097 22.7284 26.2888 23.3438C25.3679 23.9591 24.6501 24.8337 24.2263 25.857C23.8024 26.8802 23.6915 28.0062 23.9076 29.0925C24.1237 30.1788 24.657 31.1766 25.4402 31.9598C26.2234 32.743 27.2212 33.2763 28.3075 33.4924C29.3938 33.7085 30.5198 33.5976 31.543 33.1737C32.5663 32.7499 33.4409 32.0321 34.0562 31.1112C34.6716 30.1903 35 29.1076 35 28V2.8C34.9991 2.05766 34.7039 1.34596 34.179 0.821042C33.654 0.296125 32.9423 0.000852227 32.2 0ZM5.6 30.8C5.04621 30.8 4.50486 30.6358 4.04441 30.3281C3.58395 30.0204 3.22506 29.5831 3.01314 29.0715C2.80121 28.5599 2.74576 27.9969 2.8538 27.4537C2.96184 26.9106 3.22852 26.4117 3.6201 26.0201C4.01169 25.6285 4.5106 25.3618 5.05375 25.2538C5.5969 25.1458 6.15988 25.2012 6.67152 25.4131C7.18315 25.6251 7.62045 25.9839 7.92812 26.4444C8.23578 26.9049 8.4 27.4462 8.4 28C8.39915 28.7423 8.10388 29.454 7.57896 29.979C7.05404 30.5039 6.34235 30.7991 5.6 30.8ZM29.4 30.8C28.8462 30.8 28.3049 30.6358 27.8444 30.3281C27.3839 30.0204 27.0251 29.5831 26.8131 29.0715C26.6012 28.5599 26.5458 27.9969 26.6538 27.4537C26.7618 26.9106 27.0285 26.4117 27.4201 26.0201C27.8117 25.6285 28.3106 25.3618 28.8537 25.2538C29.3969 25.1458 29.9599 25.2012 30.4715 25.4131C30.9831 25.6251 31.4204 25.9839 31.7281 26.4444C32.0358 26.9049 32.2 27.4462 32.2 28C32.199 28.7423 31.9037 29.4539 31.3788 29.9788C30.8539 30.5037 30.1423 30.799 29.4 30.8ZM11.2 2.8H32.2V8.4H11.2V2.8Z" fill="white"/>
</g>
<defs>
<clipPath id="clip0_488_716">
<rect width="35" height="34" fill="white"/>
</clipPath>
</defs>
</svg>
