<svg width="30" height="30" viewBox="0 0 30 30" fill="none" xmlns="http://www.w3.org/2000/svg">
<g clip-path="url(#clip0_480_743)">
<path d="M7.5 0H3.75C2.75544 0 1.80161 0.31607 1.09835 0.87868C0.395089 1.44129 0 2.20435 0 3V27C0 27.7956 0.395089 28.5587 1.09835 29.1213C1.80161 29.6839 2.75544 30 3.75 30H7.5C8.49456 30 9.44839 29.6839 10.1516 29.1213C10.8549 28.5587 11.25 27.7956 11.25 27V3C11.25 2.20435 10.8549 1.44129 10.1516 0.87868C9.44839 0.31607 8.49456 0 7.5 0V0Z" fill="white"/>
<path d="M26.25 0H22.5C21.5054 0 20.5516 0.31607 19.8484 0.87868C19.1451 1.44129 18.75 2.20435 18.75 3V27C18.75 27.7956 19.1451 28.5587 19.8484 29.1213C20.5516 29.6839 21.5054 30 22.5 30H26.25C27.2446 30 28.1984 29.6839 28.9016 29.1213C29.6049 28.5587 30 27.7956 30 27V3C30 2.20435 29.6049 1.44129 28.9016 0.87868C28.1984 0.31607 27.2446 0 26.25 0V0Z" fill="white"/>
</g>
<defs>
<clipPath id="clip0_480_743">
<rect width="30" height="30" fill="white"/>
</clipPath>
</defs>
</svg>
