<svg width="35" height="35" viewBox="0 0 35 35" fill="none" xmlns="http://www.w3.org/2000/svg">
<path d="M5.76704 35C5.39785 35 5.04378 34.8656 4.78272 34.6263C4.52166 34.387 4.375 34.0624 4.375 33.724V5.65113C4.37498 5.42938 4.43801 5.21145 4.55786 5.01883C4.67772 4.82621 4.85026 4.66554 5.05849 4.55267C5.26672 4.4398 5.50344 4.37861 5.74533 4.37516C5.98721 4.3717 6.2259 4.42608 6.43787 4.53294L34.2787 18.5694C34.4971 18.6795 34.6793 18.8413 34.8062 19.038C34.9331 19.2347 35 19.459 35 19.6875C35 19.916 34.9331 20.1403 34.8062 20.337C34.6793 20.5337 34.4971 20.6955 34.2787 20.8056L6.43787 34.842C6.23234 34.9456 6.0016 35 5.76704 35Z" fill="white"/>
</svg>
