<svg width="50" height="50" viewBox="0 0 50 50" fill="none" xmlns="http://www.w3.org/2000/svg">
<path d="M13.2187 12.3794C11.3958 14.3322 10.0833 16.6197 9.28125 19.0524C8.66667 20.9159 6.76042 21.8867 5.03125 21.2283C3.30208 20.57 2.38542 18.5279 3 16.6755C4.125 13.2498 5.95833 10.0472 8.5 7.32446C17.5833 -2.40601 32.2812 -2.43949 41.3958 7.21287L45.7292 2.57081C46.4479 1.80085 47.5208 1.57768 48.4583 1.99055C49.3958 2.40343 50 3.3854 50 4.46781V18.7511C50 20.2352 48.8854 21.4292 47.5 21.4292H46.625H34.1667C33.1562 21.4292 32.2396 20.782 31.8542 19.7777C31.4687 18.7734 31.6771 17.624 32.3958 16.8541L36.6771 12.2678C30.1563 5.40515 19.6875 5.43862 13.2083 12.3794H13.2187ZM0 31.2489C0 29.7648 1.11458 28.5708 2.5 28.5708H3.29167H3.36458H15.8333C16.8437 28.5708 17.7604 29.218 18.1458 30.2223C18.5312 31.2266 18.3229 32.376 17.6042 33.1459L13.3229 37.7322C19.8437 44.5949 30.3125 44.5614 36.7917 37.6206C38.6146 35.6678 39.9271 33.3803 40.7292 30.9476C41.3437 29.0841 43.25 28.1133 44.9792 28.7717C46.7083 29.43 47.625 31.4721 47.0104 33.3245C45.8854 36.7391 44.0521 39.9416 41.5 42.6755C32.4167 52.406 17.7187 52.4395 8.60417 42.7871L4.27083 47.4292C3.55208 48.1991 2.47917 48.4223 1.54167 48.0095C0.604167 47.5966 0 46.6146 0 45.5322V32.1863V32.1082V31.2601V31.2489Z" fill="black"/>
</svg>
