<svg width="54" height="54" viewBox="0 0 54 54" fill="none" xmlns="http://www.w3.org/2000/svg">
<path d="M2 27C2 40.807 13.1929 52 27 52C40.807 52 52 40.807 52 27C52 13.1929 40.807 2 27 2C13.1929 2 2 13.1929 2 27Z" stroke="white" stroke-width="3" stroke-linecap="round" stroke-linejoin="round"/>
<path d="M30 3C30 3 41 12.4019 41 27.2472C41 42.0925 30 51 30 51" stroke="white" stroke-width="3" stroke-linecap="round" stroke-linejoin="round"/>
<path d="M4 36C4 36 15.2182 41 28.9637 41C42.7091 41 50 36 50 36" stroke="white" stroke-width="3" stroke-linecap="round" stroke-linejoin="round"/>
<path d="M4 18C4 18 15.2182 12.5558 28.4727 13.0292C41.7273 13.5026 50 18 50 18" stroke="white" stroke-width="3" stroke-linecap="round" stroke-linejoin="round"/>
<path d="M10.1527 20.02H18.8727V21.38H12.0927V25.62H18.2127V26.98H12.0927V31.64H19.0727V33H10.1527V20.02ZM21.7542 20.02H24.0942L31.1542 30.74V20.02H32.8542V33H30.5142L23.4542 22.1V33H21.7542V20.02Z" fill="white"/>
</svg>
