<svg width="50" height="50" viewBox="0 0 50 50" fill="none" xmlns="http://www.w3.org/2000/svg">
<rect x="1.5" y="1.5" width="47" height="47" rx="7.5" fill="white" stroke="#EB5E39" stroke-width="3"/>
<path d="M34.9224 29H14.0328C13.652 29 13.3043 29.2162 13.1359 29.5577L7.71127 40.5577C7.38354 41.2223 7.86716 42 8.60814 42H41.2686C42.0382 42 42.5194 41.1669 42.1348 40.5003L35.7886 29.5003C35.61 29.1907 35.2798 29 34.9224 29Z" stroke="#474747" stroke-width="2"/>
<path d="M11 33.5H37.5" stroke="#474747" stroke-width="2"/>
<path d="M19 42L21.2222 29M31 42L28.3333 29" stroke="#474747" stroke-width="2"/>
<path d="M35 18.7847C35 24.7409 24.5 38 24.5 38C24.5 38 14 24.7409 14 18.7847C14 12.8285 18.701 8 24.5 8C30.299 8 35 12.8285 35 18.7847Z" fill="#2D6598"/>
<path d="M32.3503 18.8832C32.3503 23.237 28.914 26.7664 24.6751 26.7664C20.4363 26.7664 17 23.237 17 18.8832C17 14.5294 20.4363 11 24.6751 11C28.914 11 32.3503 14.5294 32.3503 18.8832Z" fill="white"/>
</svg>
