<svg width="42" height="35" viewBox="0 0 42 35" fill="none" xmlns="http://www.w3.org/2000/svg">
<path d="M38.4193 0.30899C38.4193 0.30899 42.3046 -1.20601 41.9808 2.47328C41.8729 3.9883 40.9016 9.2908 40.1461 15.0262L37.5559 32.0159C37.5559 32.0159 37.3401 34.5048 35.3974 34.9377C33.4547 35.3705 30.5408 33.4227 30.0011 32.9898C29.5694 32.6652 21.9068 27.7955 19.2086 25.4148C18.4531 24.7655 17.5897 23.4669 19.3165 21.9519L30.6487 11.1305C31.9438 9.8319 33.2389 6.8019 27.8426 10.4812L12.7331 20.7616C12.7331 20.7616 11.0063 21.8437 7.7686 20.8698L0.753421 18.7055C0.753421 18.7055 -1.83679 17.0823 2.58815 15.459C13.3807 10.3729 26.6555 5.1786 38.4193 0.30899Z" fill="white"/>
</svg>
