<svg width="40" height="33" viewBox="0 0 40 33" fill="none" xmlns="http://www.w3.org/2000/svg">
<path d="M12.5818 32.7514C15.653 32.7707 18.6974 32.18 21.5385 31.0137C24.3797 29.8473 26.9609 28.1284 29.1326 25.9567C31.3043 23.785 33.0232 21.2038 34.1896 18.3626C35.3559 15.5215 35.9466 12.4771 35.9273 9.40593C35.9273 9.04229 35.9273 8.69684 35.9273 8.3332C37.5193 7.16681 38.8972 5.73351 40 4.09684C38.5009 4.75246 36.9147 5.18729 35.2909 5.38774C37.0126 4.36189 38.3044 2.74714 38.9273 0.842289C37.3228 1.80491 35.5633 2.48163 33.7273 2.84229C32.4908 1.52477 30.8546 0.651482 29.0718 0.357537C27.289 0.0635916 25.459 0.36538 23.865 1.21621C22.271 2.06703 21.0018 3.41947 20.2538 5.06425C19.5059 6.70903 19.3208 8.55447 19.7273 10.315C16.4655 10.1549 13.274 9.3096 10.3606 7.83412C7.44728 6.35864 4.87734 4.28607 2.81818 1.75138C1.77986 3.55352 1.46514 5.68288 1.93774 7.70833C2.41035 9.73378 3.63496 11.504 5.36364 12.6605C4.08839 12.6113 2.84264 12.2625 1.72727 11.6423V11.7332C1.71594 13.6165 2.3504 15.4469 3.52492 16.9191C4.69943 18.3914 6.34304 19.4167 8.18182 19.8241C6.99571 20.1431 5.75326 20.1928 4.54545 19.9696C5.07779 21.5757 6.09397 22.9779 7.45463 23.9837C8.81529 24.9896 10.4538 25.5499 12.1455 25.5877C9.25311 27.916 5.65835 29.1975 1.94545 29.2241C1.29446 29.2053 0.644995 29.1506 0 29.0605C3.7581 31.4548 8.12583 32.7172 12.5818 32.6968" fill="white"/>
</svg>
