<svg width="41" height="41" viewBox="0 0 41 41" fill="none" xmlns="http://www.w3.org/2000/svg">
<path d="M26.14 0H13.8613C2.65625 0 0 2.65625 0 13.8612V26.14C0 37.345 2.65625 40.0013 13.8613 40.0013H26.14C37.345 40.0013 40.0013 37.345 40.0013 26.14V13.8612C40.0013 2.65625 37.3187 0 26.14 0V0ZM32.2925 28.535H29.3888C28.2887 28.535 27.95 27.6625 25.9712 25.6575C24.2525 23.9912 23.4912 23.77 23.0675 23.77C22.4687 23.77 22.2987 23.9388 22.2987 24.76V27.3837C22.2987 28.0875 22.0775 28.51 20.215 28.51C17.135 28.51 13.7175 26.6475 11.3212 23.1775C7.7075 18.0925 6.71875 14.2837 6.71875 13.4963C6.71875 13.0725 6.8875 12.6762 7.70125 12.6762H10.6112C11.3475 12.6762 11.6275 13.015 11.9137 13.8025C13.3525 17.9562 15.7488 21.595 16.7375 21.595C17.1025 21.595 17.2712 21.4263 17.2712 20.495V16.205C17.16 14.2262 16.1188 14.0562 16.1188 13.3537C16.1188 13.015 16.3988 12.6762 16.8475 12.6762H21.4237C22.0425 12.6762 22.27 13.015 22.27 13.7437V19.5312C22.27 20.1562 22.55 20.3775 22.7188 20.3775C23.0837 20.3775 23.3962 20.1562 24.0725 19.4788C26.1625 17.135 27.66 13.5213 27.66 13.5213C27.855 13.0975 28.1937 12.7013 28.93 12.7013H31.84C32.7125 12.7013 32.9075 13.15 32.7125 13.775C32.3475 15.4675 28.7862 20.4938 28.7862 20.4938C28.48 21.0013 28.3625 21.2225 28.7862 21.7887C29.0987 22.2125 30.115 23.0913 30.7912 23.8787C32.035 25.2913 32.9912 26.4762 33.2463 27.2962C33.5325 28.11 33.11 28.5337 32.2887 28.5337L32.2925 28.535Z" fill="white"/>
</svg>
