<svg width="37" height="35" viewBox="0 0 37 35" fill="none" xmlns="http://www.w3.org/2000/svg">
<g clip-path="url(#clip0_480_756)">
<path d="M37 16.25H32.0667V11.25H29.6V16.25H24.6667V18.75H29.6V23.75H32.0667V18.75H37V16.25Z" fill="white"/>
<path d="M19.7333 35C19.5702 35.0002 19.4087 34.9674 19.2581 34.9037C19.1076 34.84 18.9711 34.7466 18.8566 34.6289L9.45473 25H1.23333C1.07146 25.0001 0.911155 24.9679 0.761565 24.9052C0.611976 24.8425 0.476035 24.7506 0.361506 24.6346C0.246977 24.5187 0.156104 24.381 0.0940762 24.2295C0.0320485 24.078 8.1255e-05 23.9155 3.02515e-07 23.7515V11.25C-0.000113107 11.0859 0.0316615 10.9234 0.0935095 10.7718C0.155358 10.6202 0.246068 10.4824 0.360459 10.3664C0.47485 10.2503 0.610682 10.1582 0.760198 10.0953C0.909713 10.0325 1.06998 10.0001 1.23185 9.99998H9.45473L18.8564 0.371102C19.0284 0.194913 19.2481 0.0744924 19.4877 0.0251365C19.7273 -0.0242194 19.976 -0.000283072 20.2021 0.0939048C20.4283 0.188093 20.6217 0.348282 20.7578 0.554124C20.894 0.759966 20.9666 1.00217 20.9667 1.24998V33.75C20.9664 34.0814 20.8364 34.3992 20.6052 34.6336C20.3739 34.868 20.0604 34.9997 19.7333 35V35Z" fill="white"/>
</g>
<defs>
<clipPath id="clip0_480_756">
<rect width="37" height="35" fill="white"/>
</clipPath>
</defs>
</svg>
