<svg width="35" height="35" viewBox="0 0 35 35" fill="none" xmlns="http://www.w3.org/2000/svg">
<g clip-path="url(#clip0_480_751)">
<path d="M31.45 7.6L29.5375 9.2125C31.5023 11.5399 32.5497 14.5047 32.4829 17.5498C32.4162 20.5949 31.2399 23.5109 29.175 25.75L31.0125 27.5C33.4921 24.8131 34.9049 21.3131 34.9855 17.6577C35.0661 14.0024 33.8088 10.4435 31.45 7.65V7.6Z" fill="white"/>
<path d="M24.475 12.5C25.6536 13.8975 26.2811 15.6774 26.2397 17.5051C26.1982 19.3327 25.4907 21.0823 24.25 22.425L26.0875 24.125C27.7411 22.333 28.6829 19.9985 28.7359 17.5606C28.7888 15.1228 27.9492 12.7496 26.375 10.8875L24.475 12.5Z" fill="white"/>
<path d="M20 35C19.8346 34.9993 19.671 34.9658 19.5187 34.9014C19.3663 34.8371 19.2283 34.7431 19.1125 34.625L9.5875 25H1.25C0.918479 25 0.600537 24.8683 0.366116 24.6339C0.131696 24.3995 0 24.0815 0 23.75V23.75V11.25C0 10.9185 0.131696 10.6005 0.366116 10.3661C0.600537 10.1317 0.918479 10 1.25 10H9.5875L19.1125 0.375C19.3467 0.142186 19.6635 0.0115089 19.9938 0.0115089C20.324 0.0115089 20.6408 0.142186 20.875 0.375C21.1105 0.605788 21.2453 0.920288 21.25 1.25V33.75C21.25 34.0815 21.1183 34.3995 20.8839 34.6339C20.6495 34.8683 20.3315 35 20 35Z" fill="white"/>
</g>
<defs>
<clipPath id="clip0_480_751">
<rect width="35" height="35" fill="white"/>
</clipPath>
</defs>
</svg>
