<svg width="35" height="35" viewBox="0 0 35 35" fill="none" xmlns="http://www.w3.org/2000/svg">
<g clip-path="url(#clip0_480_747)">
<path d="M34.7635 13.1372L33.0963 11.4236L28.8514 15.7865L24.6064 11.4236L22.9392 13.1372L27.1841 17.5L22.9392 21.8629L24.6064 23.5764L28.8514 19.2135L33.0963 23.5764L34.7635 21.8629L30.5186 17.5L34.7635 13.1372Z" fill="white"/>
<path d="M19.3919 34.5139C19.2355 34.5132 19.0807 34.4807 18.9366 34.4181C18.7925 34.3555 18.6619 34.2641 18.5524 34.1493L9.54223 24.7917H1.65541C1.34181 24.7917 1.04105 24.6636 0.819303 24.4357C0.597554 24.2078 0.472977 23.8987 0.472977 23.5764V23.5764V11.4236C0.472977 11.1013 0.597554 10.7922 0.819303 10.5643C1.04105 10.3364 1.34181 10.2083 1.65541 10.2083H9.54223L18.5524 0.850693C18.7739 0.624346 19.0736 0.497299 19.386 0.497299C19.6984 0.497299 19.9981 0.624346 20.2196 0.850693C20.4424 1.07507 20.5699 1.38083 20.5743 1.70139V33.2986C20.5743 33.6209 20.4498 33.93 20.228 34.1579C20.0063 34.3859 19.7055 34.5139 19.3919 34.5139Z" fill="white"/>
</g>
<defs>
<clipPath id="clip0_480_747">
<rect width="35" height="35" fill="white"/>
</clipPath>
</defs>
</svg>
