<svg width="1062" height="3731" viewBox="0 0 1062 3731" fill="none" xmlns="http://www.w3.org/2000/svg">
<path d="M41.5 3730.5C46.5 3656.95 33.4552 3593.68 44.5 3494.54C58 3373.37 44.5 3335.17 44.5001 3224.84C44.5001 3127.26 203.5 3122.06 297 3133.37C316 3135.73 379.1 3134.69 401.5 3128.66C429.5 3121.11 559 3121.11 622.5 3128.66C673.3 3134.69 807.667 3131.17 868.5 3128.66M868 3127.71H906.5M204 2391.22C219.5 2397.35 287.294 2401.6 300.294 2393.58C325.363 2387.92 393.1 2378.3 463.5 2385.09C551.5 2393.58 645 2409.14 700 2398.77C767.5 2386.04 835.5 2398.77 870 2398.77C982.548 2398.77 1047.56 2404.1 1053.96 2462.61C1061.96 2535.75 1019.68 2534.13 1037.97 2626.26C1056.25 2718.38 1033.97 2795.96 1033.97 2865.06C1033.97 2912 1049.98 3041.43 1037.97 3077.26C1029.66 3102.03 1019 3116.89 998.5 3123.24C989.348 3126.07 918.737 3128.15 905 3127.71M153.294 2217.71C161.127 2249.14 98.2941 2367.65 205.294 2391.22M1019 1387.86C1023.5 1406.72 1009.47 1442.64 1019 1465.66C1035 1504.33 1032 1559.49 949 1559.49H861M310.5 1559.49C243 1563.73 172.5 1559.49 158.5 1588.25C138.816 1628.69 193.5 1631.63 158.5 1675.48C155.5 1679.25 151 1685.85 145.5 1695.76C130.614 1729.91 114.509 1806.45 131.5 1970.17C153.5 2182.16 150 2205.92 153.5 2218.65M36 95C27.1973 169.969 55.4564 217.333 33.6789 311.792C11.9014 406.251 33.679 431.412 33.679 535.049C33.679 638.686 17.7995 733.557 44.1137 774.806C70.428 816.054 162.468 814 301 814C301 814 861.5 805.5 864 805.194C866.5 804.889 931.102 804.01 970.245 809.435C1014.2 815.526 1083.32 825.926 1050.39 878.225C1017.47 930.525 1016.84 958.795 1016.84 958.795M1017.5 958.324C1011 992.743 998.7 1072.71 1001.5 1117.22C1005 1172.86 1015 1259.14 1016 1293.56C1017 1327.98 1016.97 1376.55 1020.24 1389.75M862.5 1559.02H310" stroke="#474747" stroke-width="4"/>
<path d="M970 3120.95C970 3140.8 935 3185 935 3185C935 3185 900 3140.8 900 3120.95C900 3101.09 915.67 3085 935 3085C954.33 3085 970 3101.09 970 3120.95Z" fill="#EB5E39"/>
<ellipse cx="934.584" cy="3121.28" rx="25.5838" ry="26.2774" fill="white"/>
<path d="M270 2390.95C270 2410.8 235 2455 235 2455C235 2455 200 2410.8 200 2390.95C200 2371.09 215.67 2355 235 2355C254.33 2355 270 2371.09 270 2390.95Z" fill="#EB5E39"/>
<ellipse cx="234.584" cy="2391.28" rx="25.5838" ry="26.2774" fill="white"/>
<path d="M970 1541.95C970 1561.8 935 1606 935 1606C935 1606 900 1561.8 900 1541.95C900 1522.09 915.67 1506 935 1506C954.33 1506 970 1522.09 970 1541.95Z" fill="#EB5E39"/>
<ellipse cx="934.584" cy="1542.28" rx="25.5838" ry="26.2774" fill="white"/>
<path d="M269 796.949C269 816.803 234 861 234 861C234 861 199 816.803 199 796.949C199 777.095 214.67 761 234 761C253.33 761 269 777.095 269 796.949Z" fill="#EB5E39"/>
<ellipse cx="233.584" cy="797.277" rx="25.5838" ry="26.2774" fill="white"/>
<path d="M70 35.9489C70 55.8029 35 100 35 100C35 100 0 55.8029 0 35.9489C0 16.0949 15.67 0 35 0C54.33 0 70 16.0949 70 35.9489Z" fill="#EB5E39"/>
<ellipse cx="34.5838" cy="36.2774" rx="25.5838" ry="26.2774" fill="white"/>
</svg>
